<?xml version="1.0" encoding="utf-8"?>
<!-- Generator: Adobe Illustrator 24.0.0, SVG Export Plug-In . SVG Version: 6.00 Build 0)  -->
<svg version="1.1" id="Layer_1" xmlns="http://www.w3.org/2000/svg" xmlns:xlink="http://www.w3.org/1999/xlink" x="0px" y="0px"
	 viewBox="0 0 3000 3000" style="enable-background:new 0 0 3000 3000;" xml:space="preserve">
<style type="text/css">
	.st0{fill:#662D91;}
</style>
<g>
	<path class="st0" d="M160.7,1363.8c1.7,14.7,3.7,29.3,4.9,44c0.2,2.4-3.2,5.1-4.9,7.7C160.7,1398.3,160.7,1381.1,160.7,1363.8z"/>
	<path class="st0" d="M2707,1330.2c0,10.2,0,20.4,0,30.6c-0.7,0-1.3,0.1-2,0.1c-0.5-5.7-1.1-11.3-1.6-17c-0.6,0-1.2,0.1-1.8,0.1
		c3.6,46.7,7.2,93.4,10.7,140.1c0.5,0.2,1,0.4,1.5,0.6c1.3-5.2,2.6-10.3,3.8-15.5c1,0,1.9-0.1,2.9-0.1c0.6,8.8,1.3,17.7,1.9,26.5
		l-0.1-0.2c0,4.8,0,9.6,0,14.4c-1.1,0.1-2.2,0.1-3.2,0.2c-1.5-5.6-3-11.2-4.5-16.8c-1.6,0-3.1,0.1-4.7,0.1
		c-5.6,54.6-11.2,109.1-16.8,163.7c-1.2,0-2.4,0-3.6,0.1c-0.5-1.8-1-3.5-1.5-5.3c-0.9-0.1-1.8-0.2-2.7-0.2
		c-1.8,22.4-3.6,44.8-5.5,67c17,3.3,4.7,16.9,11,27c1.3-3,2.5-5.6,3.8-8.6c10.4,20.2,6.8,41.7-6.8,57.8c-4.6,5.5-5.5,14-8.6,20.9
		c-1.1,2.5-4,4.2-6,6.2c0.6-3.8,2.3-7.8,1.8-11.4c-2-14.3-0.2-26.3,11.6-37.2c4-3.7,19.9-7.1,9.6-18.8c-4.2,1.6-10,2-11.9,4.9
		c-6.2,9.5-11.6,19.6-16.2,30c-3.8,8.5-6.6,17.5-8.7,26.5c-1.4,6.2-0.4,12.9-1.4,19.2c-1.3,8-3.5,15.9-5.4,23.8
		c1.1,0.2,2.3,0.5,3.4,0.7c0.7-2.7,0.9-5.6,2.1-8.1c4.9-10,10.2-19.9,15.3-29.8c-0.4,4.7-0.8,9.4-1.3,14c-0.6,5.5-0.5,11.3-2.4,16.4
		c-10.1,27.8-20.6,55.4-31,83c-1.5,4-4.4,7.5-5.6,11.5c-0.9,3.2-0.1,6.8-0.1,10.2c3.1-1.4,8.2-2.1,9-4.3c4.3-12,7.5-24.3,11.1-36.5
		c1.5-5.2-2.1-14.3,9.6-11.7c1.5,0.3,4.9-4.2,6.1-7.1c7.6-17.8,15.7-35.4,22-53.6c10.7-30.9,20.3-62.2,30-93.5
		c2.9-9.3,4.8-19,7.2-28.5c2.2,0.3,4.4,0.6,6.6,0.8c0,12,0,24.1,0,36.1c-1.2,0-2.4-0.1-3.6-0.1c0.9-6,1.9-12.1,3.2-20.2
		c-10.3,9-9.1,19.4-9.9,29.2c-1.5,18.6-3.3,37.2-5,55.7c-1.2-0.1-2.4-0.2-3.5-0.2c0-3.2,0-6.5,0-9.7c-0.9-0.2-1.9-0.4-2.8-0.6
		c-4.9,15.4-9.3,31.1-14.9,46.2c-8.6,23.3-18.2,46.3-26.9,69.6c-1.2,3.1,0.9,7.3,0.9,10.9c0,3.5-0.2,7.1-1.2,10.4
		c-1.9,6.3-4.5,12.4-6.6,18.1c2.5,1.8,3.3,2.8,3.8,2.7c25.4-7.3,48.7,5.5,73,8c13.7,1.4,17.9,9.9,12.6,22.1
		c-18.9,43.8-36.3,88.4-57.7,131c-21.6,43-46.3,84.6-71.6,125.5c-22.3,36.2-47.1,70.9-71.3,105.8c-15.6,22.5-31,45.4-48.8,66.1
		c-26,30.1-53.4,59.3-81.8,87.3c-35.5,35-72.1,68.9-109.2,102.1c-21.2,18.9-43.2,37.4-67,52.7c-37.2,23.9-75.5,46-114.6,66.7
		c-39.5,20.9-80.4,39.2-120.9,58.4c-10.1,4.8-21,7.7-31.1,12.3c-32.1,14.8-64,30.1-96.4,45.5c3.6-0.3,7.1,0.3,10-0.8
		c36.1-14.4,72.1-28.9,108-43.7c22.9-9.4,46.4-17.6,68.2-29.2c41-21.8,80.9-45.5,121.1-68.8c29.6-17.1,59.1-34.6,88.3-52.4
		c7.3-4.4,13.3-10.9,19.9-16.4c3.5-2.8,7.1-5.5,10.7-8.2c0.9,0.9,1.8,1.8,2.7,2.7c-2.9,3.1-5.5,6.7-8.9,9.1
		c-41.7,29.7-82.1,61.5-125.7,88.2c-47.4,28.9-96.9,55-147.3,78.6c-45.1,21.1-93.3,35.6-138.9,55.8c-47.3,21-97.5,30.6-147.3,41.4
		c-21.6,4.7-44.1,5.5-66.1,8.7c-24.7,3.6-49.1,9.1-73.8,11.9c-37.3,4.2-74.7,8-112.3,2.1c-1.7-0.3-3.5-0.2-5.2,0
		c-9,1.2-18.2,4.8-25.8-4.5c-1.5-1.8-6.5-0.6-9.9-0.8c0.6-1.1,1.1-2.1,1.7-3.2c-3-2.7-5.6-6.2-9.1-7.8c-5.2-2.4-12.4-2.9-3.4-10.1
		c0.8-0.7-1.7-5.6-3-9.4c21.9-2.7,43.1-5.3,64.4-7.9c0.1-0.4,0.2-0.9,0.2-1.3c-3.1-0.6-6.2-1.5-9.3-1.6c-17.9-0.6-35.8-1.2-53.7-1.2
		c-2.8,0-5.8,3.1-8.5,5.1c-4.5,3.3-19.1,0.3-23.6-4.2c-4.5-4.5-9.8-8.3-15.1-12.6c10.1,0,19.4,2.5,26.4-0.5c19-8.2,38.5-5.4,58-6.3
		c4.6-0.2,8.9-5.4,13.7-6.4c12.9-2.5,26-3.6,38.9-6.1c5.1-1,9.9-4.1,13.9-8.7c-4.6,0.4-9.1,0.8-13.7,1.2c0.3-1,0.5-1.9,0.8-2.9
		c-5.2-2.2-10.4-6.5-15.5-6.3c-36.5,1.8-72.9,5.4-109.4,6.5c-18.1,0.6-36.4-3-54.6-4.4c-12-0.9-22.7,10.4-35.5,3.6
		c-3.3-1.8-7.6-1.7-11-3.5c-8.7-4.7-16.5-8.4-24.9,1.4c-2,2.4-9.2,1.4-13.7,0.5c-21.9-4.1-44.1-7.5-65.5-13.6
		c-12.9-3.7-24.5-11.8-38.2-18.8c18-0.4,34.3-12.7,50.8,2.3c-9.8-17.1-9.9-16.7-27.7-21.1c-25.4-6.4-50.7-13.2-75.8-20.6
		c-4.4-1.3-7.6-6.5-12.3-10.8c13.9-2.2,24.3-3.9,34.8-5.6c-7.7-14.3-7.7-14-23.7-15.4c-4.6-0.4-9.4-1.9-13.4-4.2
		c-3-1.7-4.9-5.5-7.3-8.4c3.5-1.7,7.4-5.4,10.4-4.7c13.4,3,26.5,7.1,39.7,10.9c4.8,1.4,9.4,3.1,14.6,3.1
		c-25.6-12.6-51.4-24.7-81.5-22.7c3.3,1.3,6.6,2.5,8.6,3.3c0.7,4.8,1.2,9,2.1,15.2c-9.1-3.4-17.2-6.5-27.2-10.3
		c4.2-2.6,7.1-4.3,14.4-8.7c-13-5.5-22.7-9.6-32.3-13.7c-0.6,1.3-1.2,2.6-1.9,4c3.1,2,6.2,4,9.2,5.9c-0.6,1-1.3,2.1-1.9,3.1
		c-5.1-3.9-11.8-6.9-14.9-12c-6.1-10.1-12-17.9-24.7-21.4c-16.7-4.7-32.4-13.2-48.6-19.8c-5.5-2.2-11.3-3.7-17.1-5.6
		c0,2.4,0,4,0,5.5c-3.8-2.1-8.9-3.4-11.1-6.6c-3.5-5-4-12.5-8-16.9c-3.7-4-9.6-9.9-16.7-2.5c-1.7,1.7-6.2,2.3-8.6,1.4
		c-6-2.2-11.6-5.5-17.3-8.5c-8.5-4.5-16.9-9.4-25.5-13.8c-11.1-5.7-19.5-13.5-27.2-23.8c-11.7-16-26.6-29.6-40.6-44.7
		c4.5-10,1.6-16.3-8.4-23.4c-28-19.8-56.7-38.8-82.6-61c-38.3-32.7-74.5-67.9-111.4-102.2c-42.4-39.4-78.2-84.4-111.8-131.3
		c-4.8-6.8-7.3-15.3-12.2-22c-10.4-14-22.4-26.7-32.4-40.9c-15.1-21.3-28.6-43.7-43.7-64.9c-5.6-7.8-15.5-12.6-20.8-20.5
		c-23.3-34.2-40.8-71.4-55.9-110c-11.8-30-27-58.7-39.4-88.5c-23.5-56.1-43.5-113.5-55.3-173.3c-10.6-53.2-22.4-106.5-28.3-160.3
		c-6.4-58.5-6.8-117.7-9.1-176.6c-0.2-4.9,3.6-11.7,7.7-14.8c49.9-37.6,100.2-74.7,150.5-111.8c5.4-3.9,11.5-6.8,21-12.4
		c2.2,113.1,0.7,223,25.8,330.5c6.6-17.3-8.4-31.2-5.8-48.4c1,3.5,2.1,7.1,3.1,10.6c1,0.4,1.9,0.9,2.9,1.3c1.8-4.8,5.2-9.6,5.1-14.4
		c-0.2-18.3-1.2-36.7-2.6-55c-0.3-4.6-4-8.9-4.9-13.5c-1.8-9.2-2.7-18.6-4-28c1.2-0.2,2.5-0.4,3.7-0.6c0.7,3,1.4,6.1,2,8.8
		c3.3-3.1,7.9-5.5,8.7-8.8c1.1-4.9,0.9-14.1-1.3-15c-12-4.5-8.1-14.2-8-21.8c0.2-12.7,0.4-25.7,3.6-37.8
		c4.5-17.1,11.6-33.5,17.8-50.1c3.5-9.4,7.1-18.9,11.6-27.9c1-2.1,6.7-1.6,8.3-3.8c4.8-6.6,11-13.5,12.4-21.1
		c4.5-23.4,15.6-43.8,25.3-64.9c9-19.5,16.6-39.7,25.2-59.4c5.6-12.9,12.3-25.3,17.6-38.3c1.5-3.6-0.2-8.6-0.7-12.9
		c-0.2-1.4-2.1-2.9-1.9-4.1c2.5-12,4.4-24.2,8.4-35.7c4.1-11.7,9.9-23,15.9-34c12.4-22.4,21.9-48.1,39.3-65.7
		c19.6-19.9,32.4-44,50.5-64.3c14.1-15.8,30.3-29.9,44.9-45.2c9.2-9.6,15.4-24.9,26.3-29.3c17.4-6.9,27.7-22.3,44.1-29.7
		c5.3-2.4,8.1-10.1,12.1-15.4c1.5-1.9,3-5.5,4.5-5.5c15.1-0.2,22.5-10.8,30.4-21.1c1.8-2.4,5-3.7,9.7-3.9c-1.3,3.5-2.6,7.1-4.3,12
		c48-34.4,95-68,143.1-102.5c1.4,5.4,1.8,7.3,3.5,14c2.9-5.3,4.1-8,5.8-10.4c5.8-8.4,10.3-17.1,24.3-12.2c5.2,1.8,13.4-5.3,22.6-9.4
		c-5.3-2.5-7.5-3.5-10.6-4.9c5.3-3.3,9.9-6.2,14.5-9.1c-0.6-1.3-1.1-2.7-1.7-4c-13.8,6-27.6,11.9-41.4,17.9c-0.7-1.1-1.3-2.2-2-3.3
		c11-6.4,21.9-12.8,32.9-19.2c-15.7-0.2-26.6,15.1-42.4,13.3c-0.7-1.7-1.4-3.4-2.1-5.1c25.2-11.7,50.3-23.4,75.5-35.1
		c0,0-0.1-0.1-0.1-0.1c-1.2,2.2-2.4,4.4-4.9,9c18.3-2.7,34.8-4.8,51.2-7.5c6.9-1.1,6.9-1.7,8.1,3.8c-6.4,2-12.8,4-19.1,6
		c0.6,2,1.2,4.1,1.9,6.1c7.3-2.2,14.6-4.3,23.6-7c-3.6-2.9-4.9-4-6.2-5c12.4,3.4,23.1-1,34.7-5.2c23.4-8.5,47.6-14.9,71.5-21.8
		c1.7-0.5,4.1,2.7,6.3,2.8c7.4,0.5,15,1.4,22.3,0.3c7.7-1.1,13.9-8.2,23.4-0.7c3.3,2.6,13.9-3.8,21-8.1c-3-0.5-5.9-1.1-12.5-2.3
		c10.5-3,17.8-5.2,26.4-7.7c-3.2-2.4-5.1-3.8-8.3-6.1c3.7,0,6.5-0.8,8.4,0.1c8.4,4.2,14.9,1.8,23.6-1.6c14.1-5.6,30-7.8,45.3-9.1
		c38.1-3.1,76.4-4.8,114.9-8.4c-9.1-0.8-18.3-2.3-27.4-2.2c-9.7,0.1-19.3,1.8-29,2.8c-0.1-1.2-0.2-2.4-0.3-3.7
		c22.7-1.3,45.4-2.6,68.1-3.9c0.1-1.2,0.2-2.4,0.3-3.6c-6.9-1.1-13.8-2.2-20.8-3.3c-0.1-0.6-0.1-1.3-0.2-1.9
		c18.1-1.6,36.2-3.3,54.2-4.9c0-1,0.1-2,0.1-3c-8.1-0.8-16.2-1.4-24.2-2.4c-2.7-0.3-5.4-1.5-8-2.5c-3.4-1.2-6.7-3.6-10.1-3.8
		c-11.9-0.6-24.8,4.9-34.7-6.9c-1.5-1.8-5.6-1.5-8.6-1.8c-18.9-1.8-37.8-3.4-56.5-6.6c70.1,0.9,139.8,5.7,208.3,23.9
		c-7.6,0-15.2,0-22.9,0c-7.9,0-15.8,0-23.7,0c-0.1,1.2-0.3,2.5-0.4,3.7c19.4,7.3,38.8,14.6,56.6,21.3c-12.8,0-27.7,0-42.6,0
		c0,0.7-0.1,1.4-0.1,2.1c6.7,0.5,13.3,1,20,1.7c11.5,1.2,22.9,2.7,34.4,3.7c9.6,0.8,19.2,1.2,28.8,1.7c-1.2,8.3-6.6,7.4-12.5,6.1
		c-10.9-2.4-21.9-4.5-36.1-7.4c5.1,8,7.9,12.3,10.7,16.7c12.6,0,25,0,37.4,0c11.9,0,23.8,0,35.7,0c0.1-0.9,0.1-1.9,0.2-2.8
		c-9.3-0.9-18.5-1.9-28.2-2.9c2.4-2.2,4.1-3.8,8.3-7.6c-7.1-0.9-11.5-1.4-15.8-1.9c4.1-0.7,8.6-2.6,12.3-1.8
		c26,6.2,51.8,12.9,77.7,19.5c-0.2,1.3-0.5,2.5-0.7,3.8c-12.6-1.8-25.3-3.5-37.9-5.3c-0.2,0.6-0.3,1.2-0.5,1.7
		c18,5.1,36,10.2,53.3,15.1c-0.1-0.6-0.5-3-0.8-5.1c1-0.5,1.4-0.9,1.7-0.9c14.6,1.8,29.2,3.5,43.8,5.5c2.4,0.3,4.6,2,7.1,2.6
		c8.1,1.9,17.2-3.9,24.6,5.3c2.3,2.9,11.4,2.9,16.1,1c13.4-5.4,25.6-3.9,39.5,5.3c-3.3-8.4-15.1-12.6-2.5-19.2
		c-40.3-12.8-79.1-25-117.8-37.3c0.4-1.4,0.8-2.8,1.2-4.1c8.1,1.4,16.3,2.8,24.4,4.2c0.3-0.8,0.5-1.6,0.8-2.4
		c-2.1-1.6-4.2-3.2-6.4-4.8c0.2-0.8,0.4-1.6,0.6-2.4c11.7,3,23.3,6.7,35.2,8.9c7,1.3,14.7-0.7,21.6,0.9c10.2,2.3,20,6.4,30,9.7
		c18.6,6,37,12.6,55.8,17.7c12.3,3.4,25.7,3.1,37.5,7.3c11,3.9,20.5,11.7,30.9,17.4c18.2,9.9,36.7,19.4,55.4,29.3
		c-2.7,1.4-6.1,3.3-9.9,5.3c1,1.9,1.9,3.8,2.8,5.6c-5.7-2.3-11.4-4.6-17.2-6.8c-0.6,1.2-1.3,2.4-1.9,3.6
		c14.1,8.7,28.2,17.4,42.3,26.1c2.8,1.7,6.5,3.1,7.9,5.7c5.6,10.4,10.4,21.2,16.1,33.1c-4.4,0-6.4,0-6.6,0
		c2.7,5.7,3.8,14.3,8.3,16.6c18.9,9.8,38.5,18.6,58.5,26c8.1,3,17.8,1.4,26.1,1.9c-2.9-2.5-7.6-6.5-12.2-10.6
		c-13.8-12.5-27.4-25.1-41.2-37.6c-17-15.3-31.1-33.9-55.3-40.2c-9.2-2.4-16.6-11.7-24.8-17.9c15.2,7,30.3,14.1,45.7,21.2
		c-3.7-4.5-7.6-9.2-11.5-14c0.5-0.6,1.1-1.2,1.6-1.7c10.5,6.1,20.8,12.6,31.7,18.2c2.7,1.4,6.9-0.3,10.5-0.6c-1-3.4-0.9-8.4-3.2-10
		c-17.1-12-34.8-23.3-51-34c16.6-0.5,17-1.1,41.7,15.1c31.2,20.5,61.9,41.7,92.2,63.4c14.3,10.2,26.8,22.8,40.7,33.6
		c6.2,4.8,14.1,7.2,20.7,11.6c3.4,2.3,5.6,6.5,8.4,9.8c1.2,1.4,2.5,2.6,3.8,3.9c1-1.3,2-2.8,3.2-4c2.7-2.5,5.5-4.9,7.7-6.9
		c6.1,7.2,10.8,12.7,17.8,21c-10.2-1.8-16.3-2.9-24.7-4.4c2.8,4.3,3.9,6.9,5.8,8.8c9.8,9.8,19.4,19.8,29.8,29
		c10.5,9.3,22.3,17.2,32.8,26.5c4.6,4.1,6.8,10.5,10.9,15.3c11.3,13.4,22.6,27,34.7,39.7c11.8,12.4,25.2,23.4,36.7,36.1
		c5,5.5,6.7,13.8,10.1,20.8c1.1,2.2,2.9,4,4.1,6.2c6.6,11.3,12.8,22.8,19.9,33.9c2.8,4.4,8.4,7.3,10.8,11.8
		c7,13,12.8,26.6,19.7,39.7c1.7,3.3,5.6,5.5,9.5,9c-6,11,6.2,15,12,21.5c4.2,4.8,7,7.7,7.5,15.4c0.8,11.1,7.4,22,12.9,32.3
		c4.8,9,14.6,16.1,9.5,25.4c19.2,32.7,35.3,64.7,46.3,98.9c16.1-2.2,12.5-11.6,10.4-19.5c-2.4,0.1-6.3,0.8-6.5,0.3
		c-2.1-6.4-5.4-13.2-4.9-19.5c1.1-14.4-8.2-31.4-20.8-37.7c-4-2-6.3-8.5-8.2-13.3c-16.5-41.6-31.5-83.8-49.6-124.7
		c-10.7-24.2-25.6-46.8-45.1-65.6c-3.7-3.6-5.3-9.5-7.7-14.4c-7.4-15.3-17.9-27.6-32.5-36.8c-3.2-2-4.1-7.7-6-11.8
		c-1.1-2.4-1.7-5.2-3.2-7.2c-15.4-19.6-31-39-46.5-58.5c-1.6-2-3.3-3.9-4.2-6.5c17.4,16.7,34.7,33.4,52.2,50.2c8.4-6,8.1-8.7-1-13.8
		c-7.5-4.3-14.5-9.5-24.5-16.2c6.3-1.6,8.7-2.2,13.7-3.5c-5-4-8.9-7.1-12.8-10.1c-2.3-1.7-6-2.7-6.8-4.9
		c-10.5-29-31.5-51.2-51.6-72.6c-25.3-27-54.6-50.3-83.2-74c-14.3-11.9-31.1-20.7-46.3-31.7c-3.5-2.5-5-7.9-8.4-13.6
		c-7.7-2.9-18.8-4-23.1-16.9c-1.1-3.4-9.2-4.6-14.1-6.7c-4.4-1.9-12.1-2.9-12.7-5.7c-3.7-15.4-18-15.4-28.2-21.1
		c-16.1-9.1-32.1-18.1-48.2-27.2c-20.4-11.1-40.4-23-61.4-32.9c-10.6-4.9-22.9-6-34.5-8.8c0,0,0.1,0,0.1,0c1.3-1.1,2.6-2.3,5.4-4.9
		c-7.8-3-14.5-6.4-21.7-8.4c-29.7-8.1-59.4-16.2-89.2-23.6c-32.9-8.2-65.8-16.4-99-23.3c-10.2-2.1-21.3,0-32,0.1
		c-2.1,0-5,0.3-6.1-0.9c-11.8-12.3-27.8-9.6-42-10.7c-36.9-2.9-73.8-4.8-110.8-5.6c-21.3-0.5-42.7,1.8-64.1,3.2
		c-79.8,5.2-158,19.4-233.8,43.5c1.1,2,2.8,4,3.2,6.3c0.1,0.7-3.3,3.1-4.9,2.9c-24.1-2.9-43.7,7.9-64.7,17.7
		c-19.4,9-41.8,11.6-62.8,17c-0.3-0.4-0.6-0.8-0.9-1.1c17-15.2,37.5-23.8,58.5-31.3c5.8-2.1,12.4-2.2,18.6-3.1
		c1.6-0.2,3.8,0.7,4.9,0c9.9-6.7,19.6-13.8,29.6-20.5c2.4-1.6,5.5-2.3,8.4-2.9c18.6-4.4,37.2-8.5,55.7-13c2.1-0.5,3.9-2.7,5.2-5.7
		c-32.3,4.3-63.1,16.2-94.7,23.4c-0.5-2.1-1-4.1-1.5-6.2c9.9-3.3,19.7-7.2,29.7-9.9c48.9-13.2,97.8-26.1,146.7-39.3
		c19.6-5.3,39-11,58.6-16.3c3.6-1,7.5-1,11.7,0.2c-9.5,2.2-19,4.4-28.5,6.7c0.1,0.6,0.1,1.2,0.2,1.8c18.8-1.8,37.6-4,56.5-5.2
		c7.2-0.5,14.6,1.4,21.9,2.2c2.5,0.3,5.2,0.9,7.7,0.5c16.4-2.5,32.7-5.2,49.2-8.7c-8.5-0.6-17-1.2-25.4-1.9c0.1-1.4,0.1-2.8,0.2-4.2
		c24.7,0,49.4-0.7,74.1,0.2c24.4,0.9,48.6,3.4,73,3.9c-69-12.8-138.6-9.5-208.8-9.7c3.2-0.5,6.3-1.5,9.5-1.5
		c45.1-0.5,90.3-1.7,135.4-1c54.3,0.9,108.3,5.3,161,20c16.4,4.6,33.4,7.5,49.6,12.6c14.1,4.4,27.4,11.3,41.3,16.4
		c24.5,8.9,49.1,17.2,76.3,26.7c-3-5.3-4.7-8.3-6.1-10.6c9.3,1.6,18.8,3.2,28.4,4.8c6.8,13.7,18.4,22,31.9,27.7
		c2.6,1.1,6.7-1.5,10.1-2.3c-1.4-2.8-2.3-7.4-4.3-7.9c-6.5-1.7-13.4-1.9-21.1-2.8c0.4-2,1.1-4.9,1.9-8.5c-6.6-2.1-12.7-4-18.8-5.9
		c-6.3-4.1-12.1-9.9-19-11.9c-52.8-16-105.6-31.8-158.7-46.4c-16.3-4.5-33.8-4.9-50.6-7.9c-15.5-2.8-30.7-6.8-46.2-9.7
		c-14-2.6-28.2-8.4-41.6,2.7c-1.8,1.5-7,1.6-8.6,0.1c-13.5-12.1-30.3-11-46.4-11.8c-26.1-1.3-52.2-1.4-78.3-2.1c0-1,0-2.1,0-3.1
		c35.1,0,70.2-1.3,105.2,0.3c38.9,1.8,77.6,6.2,116.4,9.5c28,6.5,56.1,13,84.1,19.5c0.3-1.8,0.7-3.5,1-5.3
		c-28.4-4.7-56.8-9.4-85.2-14.1c-23.7-3.4-47.2-7.9-71-9.9c-34.6-2.9-69.3-3.9-103.9-5.9c-4.6-0.3-9.2-1.6-13.8-2.4
		c6.5-1.2,13-2.4,19.5-3.6c20.1,0,40.3,0.1,60.4,0.3c0.9,0,1.8,1.7,5.2,5.2c33.2,2.7,70.9,5.8,108.6,8.9c0.1-2,0.3-4,0.4-6
		c-21,0-41.9,0-62.9,0c10.8-14.1,23.6-7,32.1-7c6-4.1,9.3-8.3,12.5-8.2c14.9,0.4,30.1,0.5,44.6,3.6c40,8.3,80.1,16.3,119.3,27.7
		c59,17.1,117.8,35.2,171.4,66.9c46.6,27.5,93.9,53.7,141,80.5c12.2,9.2,24.4,18.4,36.6,27.7c1.2-1.4,2.4-2.8,3.6-4.2
		c-4.3-4.1-8-9.5-13-12.1c-8.7-4.6-18.2-7.5-27.3-11.1c-9.4-16.1-24.2-26.6-39.7-35.7c-29.3-17.2-59.2-33.5-88.9-50.1
		c-12.2-6.8-24.4-13.5-35.7-22.2c16.4,7.1,32.9,13.9,49.1,21.4c73.4,34.3,140.8,78.3,202.1,131.1c44.4,38.2,87.7,77.6,130.4,117.6
		c17.1,16,31.5,34.9,46.6,52.9c11.8,14.2,22.5,29.2,34,43.6c20.8,26.1,41.8,52.1,62.6,78.1c-6.8,3.9-5.1,8.4,0.6,13.1
		c3.1,2.5,6.9,4.7,9,8c12.4,19.1,23.1,39.5,37,57.4c28.1,36.2,45.1,78.1,64.1,119c1.6,3.5,2.8,7.5,5.3,10.3
		c9.9,11.6,16.3,24,20.7,39.2c5.8,20.4,17.6,39.1,27.5,59.8c-1-20.9-6.7-38.7-22.7-52.8c1.4-0.9,2.8-1.7,4.2-2.6
		c5.9,7,11.8,14.1,17.6,21.1c-23.5-113.1-88.4-207-142.1-306c1.1-0.6,2.2-1.3,3.3-1.9c4.8,6.4,9.8,12.7,14.5,19.1
		c13,18,26.1,35.9,38.8,54.1c16.6,23.8,34.4,47,48.7,72.1c24.7,43.5,42.8,90,59.4,137.1c7.3,20.7,14.2,41.5,22.4,61.8
		c13.4,32.9,27.8,65.3,41.6,98c2.5,5.9,4,12.3,5.5,18.5c5.7,24.8,11.3,49.6,16.9,74.4c3.9,17.4,0.1,20.3-17.4,16.8
		c-20.7-4.2-41.6-7.2-62.5-9.7c-12.5-1.5-14.9,2.4-12.8,15.3c2.2,13.4,4,26.9,3.4,41c-4.3-8.4-8.6-16.9-12.9-25.3
		c5-22.1,4-29.5-3.7-32.7c-1.1,10.5-2.1,21-3.2,31.5c0.3,0,0.6,0,0.8-0.1c0.6-2.5,1.2-5,2.2-8.9
		C2704.8,1324.7,2705.9,1327.5,2707,1330.2z M2197.3,543.4c7.6,14.6,20.1,22.6,31.7,19.1c-11.1-6.6-21.5-12.8-31.9-18.9
		c-22.1-30.4-52.5-48.8-91-60.9c6.6,5.4,10.6,9.2,15,12.2c18,12.3,36,24.6,54.3,36.5C2182.4,535.8,2190,539.3,2197.3,543.4z
		 M818,2533.4c8.2,6.7,16.5,13.4,24.7,20.1c1.1-1.7,2.3-3.5,3.4-5.2c-9.4-4.9-18.9-9.8-28.3-14.7c-3-3.3-5.6-7.1-9.1-9.8
		c-24.2-18.5-49.4-35.9-72.8-55.5c-26.7-22.3-51.5-46.7-77.7-69.7c-20.5-18-41.8-35.2-62.5-52.9c-6.3-5.4-12.1-11.4-18.2-17.1
		c9.9,14.4,20.6,27.9,32.9,39.8c17.3,16.7,35.7,32.2,53.7,48.1c14.3,12.7,28.2,25.9,43.1,37.9c24.1,19.4,48.5,38.5,73.4,56.7
		C792.3,2519.8,805.5,2526.1,818,2533.4z M2331.8,913.6c-15.1-17.7-30.1-35.5-45.2-53.2c-0.9,0.8-1.8,1.5-2.6,2.3
		c7.8,10.1,15.9,20,23.2,30.5c12.6,18,25.8,35.6,36.7,54.6c21.1,36.4,40.5,73.8,61,110.5c12.5,22.4,26.9,43.7,38.3,66.6
		c8.8,17.6,14.1,36.8,21,55.4c2.5,6.9,4.9,13.8,7.4,20.7c1.4-0.5,2.8-1.1,4.1-1.6c-9.6-44.7-31.8-84.9-46.9-125.8
		c-13.9,1.9-9.5-9.2-13.9-14.4c3.3,0.4,4.9,0.6,7.3,0.8c-14.4-27.2-28-53.1-41.9-78.9c-3.8-7.1-6.8-16.5-13-20.3
		c-18.3-11.4-25.4-30.4-35.8-47.2c4.5,4.3,9.1,8.6,13.6,12.9c0.9-0.7,1.8-1.3,2.6-2c-16.9-23.8-33.8-47.5-50.7-71.3
		c-1.4,0.8-2.7,1.7-4.1,2.5c2.4,4.6,4.5,9.4,7.4,13.6C2310.8,884,2321.4,898.7,2331.8,913.6z M2489.7,1682.2
		c3.3-4.1,8.7-7.8,9.5-12.4c5.8-31.3,11-62.7,15.5-94.3c2-13.6,4.3-27.8,2.2-41.1c-4.1-25.8-13.2-50.3-13.9-77.3
		c-0.4-12.9-1.7-26,0-39c1.1-8.2,5.7-17.1-5.5-22.5c-1.1-0.5-1-3.8-1.1-5.8c-1.3-23.9-2.1-47.9-3.8-71.8
		c-0.8-10.7-3.3-21.3-4.7-31.9c-0.7-5,0.8-10.8-1.2-15c-10.9-23.4-33.4-17-56-22.5c4.6,18.1,8.2,32.5,11.8,46.9
		c0.9,3.7,3.7,8.8,2.3,11c-6.5,10-4.3,18.7-0.6,29.2c4.4,12.4,1.7,26.4,2.6,39.5c2.6,36.8-0.8,74.1-1.7,111.1
		c-0.1,5.1,0.5,10.2,0.1,15.3c-2,24.7-4,49.4-6.4,74.1c-2.1,22.7-4.2,45.4-7.1,68c-2,15.7-5.4,31.3-8.1,46.9c0.7,0.1,1.3,0.3,2,0.4
		c3.8-12.8,7.7-25.6,11.5-38.5c1.4,0.5,2.8,0.9,4.2,1.4c-5.1,28.4-12.8,56-28.5,81c-0.2,0.4-0.8,0.5-0.9,0.9
		c-2.8,7.9-9.3,16.8-7.4,23.4c2.9,10.4,0.3,18.2-4.3,26.1c-8.9,15.4-14.4,33.3-30.8,43.4c-0.8,0.5-0.3,3-0.4,5
		c3-1.3,5.2-2.3,7.4-3.2c0.6,0.7,1.1,1.3,1.7,2c-9.7,16.7-19.3,33.3-29,50c-1.1-0.6-2.2-1.1-3.3-1.7c3.3-10.1,6.5-20.1,9.8-30.2
		c-3,1-4.9,2.6-6,4.6c-9.1,17.8-18.2,35.7-26.8,53.8c-2,4.3-4,10.8-2.2,14.1c4.6,8,36.3,6.6,42.5-1.2c5.3-6.7,10.1-13.9,15.2-20.8
		c10.1-13.5,20.4-27,30.6-40.4c-0.8-0.8-1.7-1.5-2.5-2.3c-5.2,3.6-10.3,7.2-15.5,10.7c-1-0.8-2.1-1.6-3.1-2.4
		c27.8-35.2,28.4-85.8,68.4-115.5c3.1,4.4,6,8.4,9.7,13.7c5.5-10.4,9.5-18,13.5-25.6c0.9,0.3,1.8,0.7,2.7,1
		c-1.7,9-3.4,18.1-5.1,27.1c1.2,0.2,2.4,0.5,3.6,0.7c3.1-16.2,6.3-32.5,9.4-48.7C2489.9,1706.9,2489.8,1694.6,2489.7,1682.2z
		 M776.6,750.6c0-0.8,0-1.6,0-2.5c14.3-11.4,28.6-22.7,43-34.1c-1.2-1.8-2.5-3.5-3.7-5.3c-9.2,5.3-19.7,9.2-27.5,16.1
		c-13.1,11.8-23.3,26.7-36.7,38.1c-39.9,33.9-72.4,74-101.1,116.1c0.3,5-0.6,10.2-3.3,14.1c-15.8,23.1-32.1,45.9-48.2,68.8
		c-5.9,8.4-10.6,18.1-17.9,24.9c-15.3,14.3-25.4,30.7-29.2,51.4c-1.1,5.6-4.3,11-7.1,16.2c-9.2,16.4-20.6,32-27.6,49.3
		c-10.2,25-16.7,51.5-25.7,77c-18.7,52.8-28.9,107-28.8,163.1c0,12-1.6,24-2.5,35.9c-1,0-2-0.1-3-0.1c0-30.1,0-60.1,0-92
		c-4.8,2.5-8.5,4.4-12.1,6.3c2.6-5.9,6.4-11.6,7.4-17.8c1.7-10,1.6-20.3,2.2-30.5c-1.7-0.2-3.4-0.4-5.1-0.7
		c-4.1,14.2-8.4,28.3-11.8,42.6c-0.3,1.4,4.8,4.1,7.4,6.2c0,3.5,0,7.1,0,12.4c3-4,4.6-6.1,8-10.5c-5.3,37.3-10.2,71.5-15.1,105.6
		c1.5,0.2,3,0.5,4.5,0.7c3.6-14.8,7.3-29.7,10.9-44.5c0.6,0,1.2,0.1,1.8,0.1c0,16.7,0,33.5,0,50.2c12.8-42.5,21.7-85.8,35.5-127.5
		c1.5,0,3,0,4.4,0c3.1,5.3,6.2,10.6,10.5,18.2c1-14.3,1.8-25.7,2.7-37.7c-3.3,1.6-5.8,2.7-10.7,5c4.8-13.4,8.5-24.8,12.9-35.9
		c3.3-8.3,7.9-16,11.2-24.3c12.8-32.8,25-65.9,38.2-98.5c2.6-6.5,8.2-12.1,13.5-16.9c2.6-2.3,8.7-3.6,11.5-2.1
		c2.9,1.5,5.6,7.4,4.9,10.7c-1.3,6.4-5.7,12-7.7,18.3c-5.8,18.4-11.8,36.8-16.4,55.6c-8.9,36.7-17.3,73.5-24.9,110.5
		c-2.7,13.4-2.4,27.4-3.5,41.2c-1,0-1.9,0.1-2.9,0.1c-1.7-9.7-3.3-19.4-5-29.1c-1.5-0.1-3-0.2-4.5-0.4c-4.4,7.5-8.9,14.9-14.9,25.1
		c17.8-4.1,12.1,7.3,13.1,13.7c21.8,2.2,16.5,25.4,24.3,32.4c8.7-2.6,16.6-7.6,19.6-5.5c10.6,7.5,19.2,17.5,9.9,33.1
		c5.3-2.7,10.6-5.4,16.7-8.4c23.2,15.1,28.6,23.8,24.4,35.9c-6.5,2.6-12.9,3.1-14.7,6.2c-2.3,4.1-2.7,11.2-0.6,15.3
		c7.1,13.8,7.6,28.2,8.9,43.2c1.2,13.1,2.8,24.3-10.4,34.4c31.7-2.8,27.9,21.3,32.8,36.9c3.5,0,6.5,0,9.4,0c-0.3,3.3,0,6.7-0.9,9.7
		c-1,3.4-3.6,6.4-4.6,9.8c-2.5,8.3-4.4,16.7-6.6,25.1c-1.5,0-3.1,0.1-4.6,0.1c-3.7-6-9.2-11.5-10.8-18c-1.6-6.7,0.5-14.3,0.9-21.5
		c-4.4,20.1-7.6,40.1-10.3,60.2c-0.3,2.2,2.7,6.9,4.3,6.9c8.4,0.4,7.4,4.5,5.9,10.5c-0.9,3.4-0.4,8,1.2,11.1
		c8.7,15.7,18.1,31.1,27.5,47.1c0.4-6.3,0.8-11.9,1.3-19.9c-0.5-0.5-3.1-3.6-6.6-7.6c4.8-2.1,8.1-3.5,12.3-5.3
		c-1.4-5.9-3.1-11.6-4.1-17.5c-2.3-12.9,5.8-19.9,18.8-19c14.9,1.1,15.2,11.8,15.8,21.8c0.8,14.7,0.2,29.4,0.2,45
		c-2.3-1.5-4.5-3-5.3-3.6c-16.3,20.7-0.4,39.8,2.9,60.3c-2.4-0.4-4.5-0.7-9-1.4c3.3,6.6,6.5,11.6,8.2,17c1,3.2,0.1,7.3-0.5,10.8
		c-0.8,4.8-3.2,9.7-2.9,14.4c1.1,17.1,14.4,23.8,28.6,30.2c-1.3,4-1.4,9.6-3.7,10.7c-13.7,6.6-7.9,16.2-4.4,25.1
		c3.8,9.7,7.7,19.6,13.3,28.2c6.9,10.5,13.9,23.7,24.2,28.7c12.7,6.1,20.5,14.5,27.4,25.5c2.1,3.4,5,6.4,7.6,9.6
		c-0.5-19.6-23.5-28.1-19.5-51.5c11.7,5.9,22.3,10.8,32.5,16.5c4.7,2.6,10.2,6,12.2,10.5c4.8,10.6,6.7,22.5,11.9,32.9
		c5.1,10.3,12.8,19.2,19.2,28.8c1.2,1.9,1.6,4.3,2.5,6.4c5.8,13.5,11.4,27.1,17.7,40.3c2.9,6.1,7.5,11.4,11.2,17
		c3.8,5.7,7.7,11.5,13.4,20.1c0-5.8,0-7.4,0-8.9c5,1.5,9.9,3,13.8,4.1C884.2,2046,874,2030,858,2017c1.8-1.3,3.6-2.6,5.4-3.9
		c13,12.2,25.9,24.4,38.9,36.7c4.7,4.4,11.3,8,13.6,13.4c7.9,18.9,24.4,27.1,41.1,34.9c8.2,3.8,17.1,6,26.9,9.4
		c-7.8-17.3-34.4-25-33.4-51.9c12.3,4.9,24.2,6.7,32.3,13.2c26.7,21.4,52.1,44.5,77.9,67c2.2,1.9,3.9,4.5,6,6.5
		c5.4,5.2,10,12.2,16.5,15.1c14.4,6.3,26.9,13.5,32.9,29.1c1.1,2.9,6,4.3,9.2,6.3c10.8,6.7,23.6,11.6,31.8,20.7
		c7.2,8,15,6.6,22.9,8.3c4.2,0.9,8.8-0.4,13.1,0.3c19.5,2.9,38.9,6.8,58.4,9.1c25.2,3,50.6,3.9,75.6,7.5c25,3.5,49.8,9.1,74.6,14
		c67.2,13.1,134.8,22.7,203.5,23.9c26.2,0.5,53.2-1.8,78.4,3.7c19.8,4.3,36.3-1.8,54.3-3.7c2.6-0.3,5.3-0.3,7.9-0.5
		c0.1,0.8,0.3,1.7,0.4,2.5c-24.5,5.2-49,10.4-73.6,15.6c0.2,0.8,0.3,1.7,0.5,2.5c3.6,0.3,7.2,0.6,10.8,0.9c-2.5,2.4-5,3.2-7.4,3.4
		c-21.7,1.6-43.4,3.9-65.1,4.5c-34.4,1-68.8,1.3-103.2,1.1c-36.8-0.3-73.7-12-110.4,1.3c42.1,7.5,84.1,15.5,126.5,19.9
		c42.2,4.4,84.8,5.2,127,7.5c0.2-0.6-0.4,1.2-1.1,3.2c2.8,0.9,5.6,2.3,8.4,2.5c17.7,1.4,35.5,4.2,53.1,3.1c13.2-0.8,26-7,39-10.3
		c13.6-3.4,27.6-9.8,40.8-8.5c19.5,1.8,36.6-4.3,53.9-9.6c38.2-11.6,76.4-23.7,108.3-49.3c7.3-5.9,14.5-12,22.3-17.3
		c17.7-12.1,35.8-23.6,53.5-35.6c6.4-4.3,10.1-9.1,7.3-18.7c-3.4-11.9,4.6-18.2,16.2-16.3c0.2,3.6,0.4,7,0.6,10.4
		c2.1-0.4,4.7-0.2,6.3-1.4c19.8-14.3,35.8-31.7,46.8-53.8c7.5-15,15.8-29.7,25.2-43.5c20.7-30.2,42.5-59.5,63.5-89.5
		c14.5-20.8,30.3-41,41.9-63.4c8.9-17.2,19.9-21.6,37.2-18.7c11.8,2,16.1-2.3,17.1-14.3c0.4-4.5,1.3-9.3,3.3-13.2
		c3.8-7.4,9.9-13.8,12.7-21.5c7.2-19.8,13.7-39.9,19.3-60.3c14.4-52.7,29.9-105.1,41.7-158.4c12.1-54.2,15.7-109.8,17-165.4
		c0.5-22-1.2-44-1.8-66c-0.1-3.4,0-6.9-0.3-10.3c-2.1-33.8-1.9-67.9-6.9-101.3c-13.3-90-43.2-175.4-79.6-258.4
		c-9.7-22.1-24.1-42-34.9-63.6c-7.9-15.8-13.6-32.6-25-46.6c-4.1-5-5.4-12.3-8-18.6c0.8-0.3,1.5-0.7,2.3-1
		c9.3,13.9,18.6,27.8,27.9,41.8c1.1-0.8,2.2-1.5,3.2-2.3c-7.9-13.2-16.3-26.2-23.5-39.8c-1.9-3.6-0.6-9-0.7-13.6
		c5.3,1,11.2,1,15.8,3.4c3.9,2,6.3,6.9,9.4,10.5c0.8-0.8,1.7-1.5,2.5-2.3c-11-14.1-21.9-28.2-34.6-44.5c-2,7.4-3,11-4.4,16.6
		c-18.9-22-37-42-53.9-63c-16.7-20.8-44.7-30.5-56.2-54.7c-6.4-4.1-12.8-7.1-18-11.5c-25-21.6-49.7-43.6-74.5-65.3
		c-2.9-2.5-6.4-4.3-9.8-6.2c-5.3-3-11.1-5.4-16.1-8.8c-14.4-9.9-28-21.4-43.1-30.1c-14.2-8.3-29.7-14.7-45.2-20.5
		c-37.8-14.3-75.8-27.8-113.8-41.8c-5.8-2.1-11.4-5-17.1-7.6c0.4-1.1,0.7-2.2,1.1-3.2c6.6,1.5,13.2,3.1,19.8,4.6
		c0.3-1.2,0.6-2.4,0.9-3.6c-31.4-8.4-62.8-16.9-94.1-25.3c0.1-0.9,0.2-1.7,0.3-2.6c2.7-0.9,5.3-1.8,8-2.8c-11.3-1.3-22.5-1.3-33-4.1
		c-21.9-5.8-43-15.3-65.2-19.1c-30.3-5.2-61.4-6.6-92.1-9.6c-11.7-1.1-23.3-2.6-35-3.2c-10.7-0.5-21.4,0.7-32,0.1
		c-14.6-0.8-29.1-3.3-43.7-3.4c-8.8-0.1-17.6,4.2-26.5,4.6c-25.8,0.9-51.5-3.7-76.9,7.2c-12.6,5.4-27.9,4.2-41.9,6.4
		c-79.2,12.3-154.7,37.8-229.6,65c-56.7,20.6-108,52-157.8,85.2c-31.4,20.9-60,45.8-90.1,68.5C787.4,747.4,781.6,748.5,776.6,750.6z
		 M1960.4,2270.6c0.3,0.5,0.5,1.1,0.8,1.6c10-4.3,19.8-10.9,30.2-12.2c10.1-1.3,14.6-4.6,14.7-14.2c26.7,5.4,48.8-14.4,53-45.7
		C2026.5,2223.4,1993.5,2247,1960.4,2270.6z M1699.8,280.9c-0.3,1.4-0.6,2.8-1,4.2c6.1,0.7,12.2,1.3,18.2,2.3
		c3.2,0.5,7.7,0.8,9.1,2.8c9.8,14.4,23.8,12.6,38.2,11.2c7.6-0.7,15.5-1.2,22.8,0.2c18.4,3.6,36.5,8.4,54.8,12.8
		c0.2-1.1,0.5-2.2,0.7-3.2C1795.8,297.6,1749,283.7,1699.8,280.9z M2572.9,1294.3c1.2-0.1,2.4-0.2,3.6-0.3c1-3.9,3.1-7.9,3-11.8
		c-0.6-23.3-12.5-42.1-24.4-61c-3-4.7-5.9-15.3-4.9-15.9c12.4-6.8,1-15.8,3-23.6c-4.2,1.8-10,4.8-9.6,6.8c2.1,12,2.8,25.8,9.4,35.1
		c5.1,7.3,6.5,11.4,1.8,18.6c9.5,5.1,14.1,11.6,9.5,22.1c-0.9,2,1.7,5.4,2.6,8.3c1,3.3,1.9,6.6,2.8,9.9
		C2570.7,1286.5,2571.8,1290.4,2572.9,1294.3z M2187.8,695.3c0.6-0.8,1.1-1.6,1.7-2.3c-23.4-18.7-46.7-37.6-70.5-55.8
		c-3.4-2.6-9.4-1.6-14.2-2.3c-0.1,1.6-0.2,3.3-0.3,4.9c5,0.3,9.9,0.6,14.8,0.8c3.9,21.6,19.3,37.5,40.8,43c-2.6-3.1-5.5-6.5-8.4-9.9
		c1.1-1,2.1-2,3.2-3.1C2165.8,678.8,2176.8,687,2187.8,695.3z M409.5,1424.2c2.1-3.7,5.8-7.4,6.4-11.6c2.8-19.7,4.9-39.5,7-59.2
		c0.3-2.7-1.3-5.6-2-8.4c-1.4,0.1-2.8,0.1-4.2,0.2C413.5,1371.3,396.4,1395.4,409.5,1424.2z M472.5,1169.2c-1.3-0.2-2.6-0.4-3.9-0.6
		c-25.2,44.7-42.1,96.7-36.7,109.8c6.5-17,13.4-35,20.1-53C459,1206.7,465.7,1188,472.5,1169.2z M1610.1,351.6
		c0.2-1.4,0.3-2.9,0.5-4.3c-24.7-2.9-49.4-5.7-74.2-8.6c-0.2,1.4-0.3,2.8-0.5,4.3C1559.4,356.7,1584.7,354.9,1610.1,351.6z
		 M2539.8,1365.4c9.9-15.9,1.9-90.2-10.7-94.1C2532.7,1302.7,2536.2,1333.6,2539.8,1365.4z M1294.5,2773.2
		c-5.2-6.7-8.4-10.8-11.8-15.2c-13.1,2-27.4,4.1-41.7,6.2c-0.1,0.9-0.3,1.9-0.4,2.8C1258,2769,1275.3,2771,1294.5,2773.2z
		 M388.9,1649.4c0.5,0.1,1.1,0.2,1.6,0.3c0-5.4,0.5-10.9-0.1-16.2c-1.1-11-5.2-22.3-3.6-32.7c2-12.6-1.5-17-11.4-17.4
		C379.9,1605.2,384.4,1627.3,388.9,1649.4z M2567.2,1129.4c4.6-23.2-2-37.7-21.9-45.8C2553,1099.9,2559.7,1113.7,2567.2,1129.4z
		 M502.9,1470.1c-7.8,11.3-7.2,47.3,2.5,55.8C504.5,1508.2,503.8,1490.6,502.9,1470.1z M2612.7,1917.9c1.1,0.5,2.1,1.1,3.2,1.6
		c10-27.3,20-54.5,30-81.8c-1.2-0.4-2.4-0.9-3.7-1.3C2632.4,1863.6,2622.5,1890.7,2612.7,1917.9z M1923.8,541.6
		c9.6,15.7,34.1,25.5,46.2,20.2C1955.1,555.3,1941.1,549.1,1923.8,541.6z M1286.2,498.6c0.2,1.4,0.4,2.7,0.6,4.1
		c24.2-2.6,48.4-5.2,72.6-7.8c-0.2-1.6-0.4-3.1-0.5-4.7C1334.7,493,1310.5,495.8,1286.2,498.6z M500.1,1410.2
		c-1.2-0.1-2.4-0.2-3.6-0.3c-8,15.1-2.4,31.4-4,47.1c1.6,0.1,3.1,0.2,4.7,0.3C498.2,1441.6,499.1,1425.9,500.1,1410.2z
		 M968.9,2141.4c1.6-2,3.2-4,4.7-6.1c-10.9-8.3-21.9-16.5-32.8-24.8c-1.2,1.5-2.4,3-3.6,4.4C947.8,2123.8,958.3,2132.6,968.9,2141.4
		z M894.2,2589.1c14.1,6.7,28.1,13.4,43,20.5C923,2591.2,900.4,2580.7,894.2,2589.1z M356.1,1589.2c-1.6,0.4-3.2,0.7-4.8,1.1
		c4.2,18,8.3,36,12.5,54c1.3-0.3,2.5-0.6,3.8-0.9C363.8,1625.3,360,1607.3,356.1,1589.2z M2587.7,1203.2c1.4-0.1,2.9-0.3,4.3-0.4
		c-4.1-13.4-8.2-26.9-12.3-40.3c-1.7,0.5-3.5,1.1-5.2,1.6C2578.9,1177.1,2583.3,1190.1,2587.7,1203.2z M2661.3,1760.7
		c1.3,0.7,2.6,1.3,3.9,2c1.5-3.1,3-6.3,4.6-9.8c2.1,2.3,3.4,3.7,6.2,6.9c1.1-9.8,2-17.5,2.8-25.1c-1.1-0.3-2.1-0.7-3.2-1
		C2670.9,1742.7,2666.1,1751.7,2661.3,1760.7z M665.3,1781.3c4-4.6,6.7-7.7,9.9-11.3c-2.2-4.5-4.8-9.6-7.4-14.8
		c-0.8,0.2-1.7,0.3-2.5,0.5C665.3,1764.4,665.3,1773.1,665.3,1781.3z M2546.7,1126.2c-1.2,0.3-2.3,0.7-3.5,1
		c4.5,15.3,8.9,30.6,13.4,45.9c1.1-0.3,2.2-0.7,3.3-1C2555.5,1156.8,2551.1,1141.5,2546.7,1126.2z M982.9,2116.4
		c9.2,9.9,17.3,18.6,25.4,27.4C1002.5,2132.7,1000.5,2118,982.9,2116.4z M2299.5,965.5c-0.5,18.2,3.9,24.7,14.7,25.3
		C2309.3,982.3,2304.4,973.9,2299.5,965.5z M1472.1,494.7c0.1-1.1,0.1-2.3,0.2-3.4c-13.3-0.8-26.6-1.5-39.9-2.3
		c-0.1,1.3-0.1,2.5-0.2,3.8C1445.5,493.4,1458.8,494.1,1472.1,494.7z M1977.2,622.1c6.2,7.9,10.6,18.8,21.8,18.9
		c0.7-1.1,1.5-2.2,2.2-3.3C1993.2,632.5,1985.2,627.3,1977.2,622.1z M429.3,1302.4c-1.9-0.4-3.9-0.8-5.8-1.2
		c-1.7,10.1-3.5,20.2-5.2,30.2c1.4,0.3,2.7,0.6,4.1,0.9C424.6,1322.4,426.9,1312.4,429.3,1302.4z M1266,515.5
		c0.6,1.7,1.3,3.4,1.9,5.1c9.5-2.7,19-5.4,28.5-8.1c-0.4-1.3-0.8-2.6-1.1-3.9C1285.5,510.9,1275.7,513.2,1266,515.5z M1586.6,2903.7
		c-19.7-3.5-24.2-2.3-28.4,6.9C1566.9,2908.5,1575,2906.5,1586.6,2903.7z M1686.6,329.5c9.4,6.8,19.2,9.9,32.5,2.9
		C1706.5,331.2,1696.5,330.3,1686.6,329.5z M562.4,955.1c-2.4-2.3-4.7-4.5-7.1-6.8c-5.7,6.9-11.5,13.8-17.2,20.7
		c0.7,0.6,1.5,1.2,2.2,1.9C547.7,965.7,555.1,960.4,562.4,955.1z M2161.7,500.8c0.6-1.1,1.3-2.2,1.9-3.3c-8.9-5.7-17.8-11.3-26.7-17
		c-0.7,1.1-1.4,2.1-2.1,3.2C2143.8,489.4,2152.8,495.1,2161.7,500.8z M2397.9,850c-1.8,1-3.5,1.9-5.3,2.9
		c6.3,7.9,12.5,15.9,18.8,23.8c0.8-0.6,1.6-1.1,2.4-1.7C2408.5,866.7,2403.2,858.3,2397.9,850z M1871,320.3
		c-0.4,1.4-0.7,2.8-1.1,4.1c10.3,2.9,20.5,5.9,30.8,8.8c0.3-1,0.6-2,0.9-3.1C1891.4,326.9,1881.2,323.6,1871,320.3z"/>
	<path class="st0" d="M641.7,388.3c6-6.6,11.3-13.9,18-19.5c7.5-6.1,16.6-10.3,24.5-16c7.6-5.4,14.2-12.1,21.7-17.6
		c23.9-17.6,48-34.9,72.1-52.2c2.1-1.5,5.3-1.6,9.7,0.3c-5.5,4.5-11.1,8.9-16.6,13.4c0.5,0.7,0.9,1.4,1.4,2.1c3.1-1.7,6.3-3.2,9.2-5
		c18.2-11.6,36.4-23.1,54.3-35.1c4.8-3.2,8.2-8.8,13.2-11.3c6.1-3.1,13.2-4.2,19.9-6.1c0.6,1.4,1.1,2.8,1.7,4.1
		c-6.4,4.4-12.9,8.8-19.3,13.1c0.7,1.1,1.3,2.2,2,3.3c11.1-6.5,22.2-12.9,34.5-20.1c0,3.3,0,5.3,0,8.5c2.9-1.5,6.8-2.5,6.9-3.7
		c1.2-17.3,18.3-16.2,28-22.8c10.1-6.9,23.8-8.4,36-12.2c5.3-1.7,11.1-2.3,15.8-4.9c13.7-7.6,26.4-17.1,40.5-23.7
		c14.6-6.8,30.5-15.6,45.5-14.9c12.6,0.6,18.7-5.8,27.7-9.4c11.5-4.6,24.5-6,35.5-11.5c24.2-12.2,50.8-10.7,76.3-15.3
		c7.2-1.3,14.6-1.7,22-2.6c0.3,1.4,0.5,2.9,0.8,4.3c-27.4,6.4-55.1,11.6-82.1,19.5c-26.6,7.8-52.3,18.3-78.5,27.6
		c0.4,1.2,0.8,2.4,1.2,3.7c31.4-10.1,62.9-20.3,94.3-30.4c0.7,2.2,1.4,4.4,2.2,6.6c-20.7,7.1-41.5,14.3-62.2,21.4
		c40.7,4.6,77.8-14.6,120.1-17.8c-4.8,3.2-7.4,5-10,6.7c79-23.8,160-26.9,241.4-25.6c0.3,1.6,0.5,3.1,0.8,4.7
		c-5.4,0.8-10.8,2.2-16.2,2.3c-58.3,1.1-115.9,8.9-172.9,20.8c-14.3,3-28.6,6.4-43.1,8.6c-4.7,0.7-10.3-3.8-14.7-2.7
		c-10.3,2.5-20.9,5.7-30.1,10.8c-11.6,6.4-22,15.1-32.9,22.7c2.3,0.4,5.3,0.9,8.3,1.4c0.4,1.1,0.8,2.3,1.1,3.4
		c-10.3,4.8-20.7,9.6-32.4,15.1c4.1,0.9,6.9,1.6,10.5,2.5c-13,10.9-23.5,24.5-43.8,19.8c-5.5-1.3-12.9,3.9-19,7
		c-8.8,4.4-17.6,9.2-25.9,14.6c-5.2,3.4-8.9,9.1-14.3,12c-7.1,3.8-15,7.8-22.7,8.1c-11.1,0.4-21.7-1.3-26.2,12.4
		c-0.8,2.4-4.1,4.3-6.6,5.8c-18.6,11.1-37.2,22.4-56.2,32.7c-3.3,1.8-9-0.8-13.6-1c-3.1-0.1-6.8-0.3-9.2,1.2
		c-10.8,6.7-21.4,13.6-31.7,21c-11.8,8.5-23.2,17.5-34.8,26.3c1.1,1.9,2.3,3.9,3.4,5.8c11.5-6.2,22.9-12.4,34.4-18.6
		c1.1,1.2,2.2,2.3,3.2,3.5c-2.2,3.4-3.8,7.6-6.8,9.9c-22.2,16.7-45,32.3-71.7,41.6c-4.2,1.4-6.7,7.3-10.3,10.6
		c-1.8,1.6-4.5,2.3-3.8,1.9c-15.2,8.8-26.9,15.6-38.5,22.3c-1.1,0.6-2.3,1.2-3.3,2.1c-19.5,18.8-45.7,30.8-57.8,57.3
		c-1.1,2.4-4.5,3.8-6.9,5.4c-7.8,5.1-16.8,8.9-23.1,15.3c-16.4,16.8-31.9,34.6-47.1,52.5c-4.8,5.7-7.6,13.2-12.6,22.3
		c5.5-1.3,7.9-1.8,10.1-2.3c-0.1,24-16.9,38.3-30.8,54.5c-12,14-23.7,28.2-34.8,42.8c-12.9,17.1-25.4,34.6-37.4,52.4
		c-4.7,7-7.6,15.2-11.3,22.8l0.2-0.2c-11.3,9.1-23,32.2-21.7,41.6c5.5-5.3,11.5-10.9,17.4-16.6c-13.8,28.8-28,57.5-41.3,86.6
		c-4.3,9.4-6.2,20-9.1,30c1.5,0.6,2.9,1.2,4.4,1.8c5.5-10.8,11.1-21.6,16.6-32.4c1,0.4,2.1,0.8,3.1,1.1c-1.6,5.8-2.6,11.8-4.8,17.4
		c-11,27.6-22.2,55.2-33.6,82.6c-1.6,3.8-4.2,7.4-7.1,10.4c-5,5.2-10.5,9.9-14.8,15.6c-5.5,2.5-11.7,4.1-16.5,7.6
		c-56,41-111.7,82.3-167.6,123.4c-4,3-8.5,5.4-15.6,9.8c0-7-0.7-11.4,0.1-15.5c7.5-36.2,15.3-72.4,22.9-108.6c0.6-2.9,0.6-6,0.9-8.9
		c5.7-17.4,11.4-34.7,17-52.1c3.1-9.5,6-19,9.1-28.5c-0.7-0.2-1.5-0.5-2.2-0.7c-2.9,6.1-5.8,12.2-8.7,18.3c5.5-19.4,9-39.6,16.9-58
		c24.6-57.8,49.3-115.6,77-172c19.1-38.9,40.9-76.8,65.4-112.6C428.2,577,470.3,517.1,522,464.7c15.9-16.1,29.8-34.3,51.8-42.8
		c1.1-0.4,2.4-0.3,8.2-0.8c-8.3,10-14.5,17.4-20.7,24.9c0.6,0.6,1.2,1.3,1.9,1.9c8.6-9.4,17.3-18.6,25.8-28.1
		c8.7-9.7,17.3-19.4,32.4-15.9c-11.7,12.5-30.5,16.3-38.8,33.3c-3.4,7-10.8,12-15.6,18.4c-3.3,4.4-5.3,9.7-8,14.6
		c0.9,0.6,1.9,1.3,2.8,1.9c2.6-2,5.4-3.7,7.6-6c20.3-21,40.5-42.1,60.6-63.3C634.2,398.2,637.8,393.1,641.7,388.3z M307.9,791.3
		c-1.2-0.5-2.5-1-3.7-1.5c-21.7,51.5-43.3,103.1-65,154.6c1.3,0.5,2.6,1.1,3.9,1.6C264.7,894.5,286.3,842.9,307.9,791.3z
		 M398.7,996.1c1.1,0.6,2.1,1.1,3.2,1.7c4.7-10.2,9.3-20.3,14-30.5c-1.7-0.7-3.4-1.4-5.1-2.1C406.8,975.5,402.8,985.8,398.7,996.1z
		 M530.6,497.8c1,1.3,1.9,2.5,2.9,3.8c6.5-6.1,13.1-12.2,19.6-18.2c-1.1-1.2-2.2-2.4-3.3-3.7C543.4,485.7,537,491.8,530.6,497.8z"/>
	<path class="st0" d="M1019.9,530.3c-6.1-0.9-12.3-1.8-21.9-3.2c17.1-12.3,30.7-23.2,45.5-32c4.7-2.8,12.9-1.1,19.1,0.1
		c9.5,1.9,14.4-1.8,17.3-10.4c0.5-1.6,4.3-3.9,5.1-3.4c14.2,8.9,22.9-5,34.2-8c3.6-1,6.5-4.7,10.1-5.9c27-8.8,54-17.3,81-26
		c6.5-2.1,12.7-5.2,19.3-6.9c4-1,8.4-0.2,12.6-0.2c0,1.2,0,2.4,0,3.7c-5.5,1.5-11.1,3-19.9,5.5c21.3,6.8-0.7,15.5,5.2,23.8
		c3.9-0.5,8.3-1,12.7-1.5c0,1.1,0.1,2.2,0.1,3.3c-7.4,0-14.8,0.2-22.2-0.1c-3.3-0.1-6.8-1.9-9.9-1.4c-19,3.2-38.4,5.1-56.7,10.7
		c-33.9,10.5-67,23.2-100.4,35.1c-1.3,0.5-2,2.6-2.9,4C1038.8,521.9,1029.4,526.1,1019.9,530.3z"/>
	<path class="st0" d="M1185.4,502c7.9-0.7,15.7-1.5,23.6-2.2c0.3,1.1,0.6,2.2,0.9,3.3c-1.9,1.2-3.6,2.9-5.6,3.5
		c-27.7,7.8-55.3,15.9-83.1,23c-11.6,3-23.7,3.9-35.6,5.5c-1.9,0.3-5-0.3-5.9-1.6c-6.9-10.5-18.2-11.5-28.8-13.9
		c0,0,0.1-0.9,0.1-0.9c6.2-1.3,12.4-2.7,18.7-3.7c5.1-0.8,10.5-0.4,15.4-1.8c4.7-1.3,13.6,1.6,11.6-9.1c-0.2-0.9,3.6-3.6,5.7-3.6
		c16.8-0.4,33.6-8.5,50.7,0.2c3.3,1.7,9.1-2.3,13.6-2.1c6.4,0.4,12.7,2.3,19.1,3.6c-9.5,1.2-19,2.4-28.5,3.6
		C1168.7,514.2,1177.6,510.5,1185.4,502z"/>
	<path class="st0" d="M506.5,976.3c-3,6.9-6,13.7-9,20.6c-2.8,6.2-5.8,12.3-8.6,18.5c-1.2,2.7-1.4,5.8-2.7,8.4
		c-12.2,24.3-24.8,48.3-36.6,72.7c-12.9,26.6-22.3,54.4-24.4,84.2c-0.2,3.4-1.2,6.7-2,10.1c-0.2,0.7-0.9,1.4-1.4,2
		c-8.1-24.9,40.4-192.2,60.2-200.5c-2.5,10.2-4.6,19-5.9,24.4c7.6-11.2,16.9-25,26.2-38.7C503.6,977.4,505,976.9,506.5,976.3z"/>
	<path class="st0" d="M1294.4,346.6c21.5-1.8,42.9-3.6,64.4-5.5c0.1,0.2,0.2,0.4,0.3,0.6c-35.3,8.9-70.9,17.2-106,27
		c-35,9.8-69.5,21.2-104.2,31.9c0.3,1,0.5,2.1,0.8,3.1c3.3,1,6.5,1.9,9.8,2.9c-7.7,3.2-12,11.9-23.8,5.5c-6.9-3.8-20.5,2.8-30.4,6.6
		c-20.8,8-41.2,17.1-61.6,26.2c-5.3,2.4-10,6.4-14.9,9.7c-0.7-1-1.4-2-2.1-2.9c9.5-6,18.3-13.2,28.5-17.6
		c35.1-15.2,71.9-27,105.5-44.9c18.8-10,38.8-11.2,57.7-18c19.8-7.1,40.6-11.4,60.9-17.2c2.6-0.7,4.7-3.1,7.1-4.7
		C1289.1,348.4,1291.8,347.5,1294.4,346.6z"/>
	<path class="st0" d="M1811.8,461.8c-17.9-2.5-33.6-3.8-48.9-6.9c-14.9-3.1-32.2,0.3-43.4-12.4c-12.2,0-24.1,0-35.9,0
		c-1.9-12-11.2-11.9-19.4-12.2c-12.8-0.6-25.7,0.2-38.5-0.6c-12.4-0.8-24.7-2.8-37.1-4.2c0.3-14.7-14.8-4.6-19.7-12.5
		c13,4.7,27.7-8.5,39.9,5c0.7,0.8,3.4,0.6,4.7,0c15.1-6.9,28.8-1.3,42.8,4.1c4.3,1.7,9.9-0.6,14.5,0.6c24.3,6.3,48.4,13.5,72.7,19.8
		c11,2.8,22.6,3.4,33.5,6.5C1788.1,452,1798.6,456.8,1811.8,461.8z"/>
	<path class="st0" d="M478.9,797.2c3.6-2.7,8.1-4.8,10.7-8.3c16.9-22.9,33.4-46,51.4-71.1c0.7,4,1,5.9,1.5,9
		c2.9-0.9,5.7-1.8,11.7-3.8c-4.3,8-6.6,13.8-10.2,18.8c-10.4,14.3-21.5,28.1-31.9,42.3c-2.9,4-4.9,8.9-6.4,13.6
		c-4.3,13.2-17.2,22.3-29.7,20.4c1.1-7.1,2.1-14.1,3.2-21.2L478.9,797.2z"/>
	<path class="st0" d="M1993.5,540.2c-48.6-6.6-87.1-34.5-134.4-48.9c5.2-3.3,8.7-6.5,9.6-5.8c9.9,6.7,22.1,3.8,32.2,7.9
		c18.3,7.4,36.2,15.7,53.9,24.5C1967.7,524.3,1979.9,532.2,1993.5,540.2z"/>
	<path class="st0" d="M722.2,706.7c6.2-1.4,12.3-2.7,18.5-4.1c0.9,1.1,1.8,2.1,2.8,3.2c-28.7,28.6-57.4,57.3-86.1,85.9
		c-1-0.6-2.1-1.2-3.1-1.8c1.1-5.8,2.2-11.5,3.4-17.2c2.9-1.5,6.6-2.3,8.7-4.5C685.1,747.8,703.6,727.2,722.2,706.7z"/>
	<path class="st0" d="M944.8,533.1c11.3-13,25.4-21.8,41.2-28.6c36.2-15.5,72.3-31.4,108.4-47.1c0.3,0.4,0.6,0.7,0.9,1.1
		c-23.1,12-46.5,23.8-69.4,36.2c-25.1,13.6-49.8,27.7-74.7,41.7C949.1,535.3,946.9,534.2,944.8,533.1z"/>
	<path class="st0" d="M2013.6,486.7c16.1,9.1,32.1,18.1,48.2,27.2c-1.5,1.1-3.5,3.5-4.3,3.1c-8.1-3.9-16.1-8.2-24.1-12.3
		c-10.4-5.4-19.6-13.9-33.1-11.3c-3,0.6-7.8-2.3-10-5c-10.9-13-24.4-18.4-41.2-17.5c-2.7,0.2-5.6-4.6-8.6-6.7
		c-4.2-2.9-8.3-6.2-12.9-8.1c-5.4-2.2-12.9-1.6-9.8-11c0,0-0.1,0-0.1,0C1949.6,459,1981.6,472.8,2013.6,486.7z"/>
	<path class="st0" d="M2099.1,571.7c16.4,10.6,32.8,21.4,49.4,31.7c4.9,3.1,10.9,4.6,15.8,7.7c5.9,3.7,11.5,8.1,16.6,12.7
		c4,3.6,7.1,8.2,11.5,13.5c-20.9-3-37.1-9.8-50.4-27c-8.7-11.2-23.7-17.5-35.9-26c-4.4-3.1-8.9-6.2-13.3-9.3
		C2094.9,573.9,2097,572.8,2099.1,571.7z"/>
	<path class="st0" d="M357.1,1329.4c-6.9-41.5-1.4-77.6,12.4-112.6c1.1,0.1,2.2,0.1,3.3,0.2c0.6,2.4,2,4.8,1.7,7.1
		c-4.7,32.7-9.6,65.4-14.5,98C359.8,1323.5,358.9,1324.9,357.1,1329.4z"/>
	<path class="st0" d="M2099.1,571.7c-2.1,1.1-4.2,2.2-6.3,3.3c-5.5-1.6-11.7-2.2-16.3-5.2c-2.7-1.8-12.2-0.9-7.2-9.4
		c0.2-0.3-0.7-1.6-1.3-2c-12.2-7.2-24.4-14.4-36.6-21.5c-13.5-7.9-26.9-15.8-41.2-24.1C2003.2,507,2059,538,2099.1,571.7z"/>
	<path class="st0" d="M354.2,2233.4c7.4-5,11.3-3.4,17.3,1.9c14.2,12.6,14.8,30.3,20.7,46.2C371.7,2271.4,363.4,2252.3,354.2,2233.4
		z"/>
	<path class="st0" d="M1369.8,101.2c45.7-1.9,91.1-12.5,137.2-5.3c0,1.3,0.1,2.5,0.1,3.8c-45.6,1.7-91.3,3.4-136.9,5.1
		C1370,103.6,1369.9,102.4,1369.8,101.2z"/>
	<path class="st0" d="M717.6,698.6c-14,12.1-28,24.2-42,36.2c-2.8,0.4-5.7,0.9-8.5,1.3c-0.9-1.2-1.7-2.4-2.6-3.5
		c20.7-18.3,41.4-36.6,62.1-54.9c0.8,0.7,1.6,1.4,2.4,2.1c-3.5,3.7-7.4,7.2-10.4,11.4C717.3,693,717.9,696.1,717.6,698.6z"/>
	<path class="st0" d="M1804.1,117.8c-38-9.7-76-19.4-114-29.1C1731.3,86.2,1768.8,98.9,1804.1,117.8z"/>
	<path class="st0" d="M1491,290.4c-28.6,2.4-55.4,4.7-82.2,6.9c-0.1-0.3-0.3-0.6-0.4-0.9c4.3-1.4,8.6-2.9,16.7-5.6
		c-7.7,0-11.5,0-15.3,0c-0.1-0.9-0.1-1.7-0.2-2.6c7.9,0,15.7,0,23.6,0c5.1,0,10.5,1,15.2-0.3C1469.4,282.1,1469.3,281.9,1491,290.4z
		"/>
	<path class="st0" d="M2543.3,2399.7c20.5-27.8,41.1-55.6,61.6-83.4c1.1,0.8,2.2,1.6,3.3,2.3c-19.9,28.4-39.8,56.8-59.7,85.2
		C2546.9,2402.4,2545.1,2401,2543.3,2399.7z"/>
	<path class="st0" d="M1223.8,334.5c19.3-3.5,38.5-7,57.8-10.5c0.1,0.5,0.3,1,0.4,1.6c-36.6,10.4-73.2,20.8-109.9,31.2
		c-0.3-0.7-0.5-1.3-0.8-2c9-3.5,18-7,26.9-10.5c3.5-2.8,6.9-5.6,10.4-8.3c1-0.6,2-1.1,2.9-1.7
		C1215.7,334.4,1219.8,334.5,1223.8,334.5z"/>
	<path class="st0" d="M598.3,2393.4c-23.8,0.9-29.1-20.4-40.1-34.9c0.9-1,1.7-2.1,2.6-3.1c13.4,11.3,26.8,22.6,40.1,34
		C600.1,2390.7,599.2,2392,598.3,2393.4z"/>
	<path class="st0" d="M2702.1,1738.3c-19.3-18.9-1.1-32.3,5.1-47.6C2715.3,1697.6,2715.3,1697.6,2702.1,1738.3z"/>
	<path class="st0" d="M520.2,944.5c11.6-19.1,23.2-38.2,34.8-57.3c1.6,0.9,3.1,1.8,4.7,2.7c-3.1,5.2-6.7,10.3-9.1,15.8
		c-2.5,5.6-3,12.1-5.8,17.4c-2.6,4.8-6.8,8.9-11,12.6c-3.9,3.5-8.7,6.1-13.1,9.1C520.6,944.7,520.2,944.5,520.2,944.5z"/>
	<path class="st0" d="M761.2,635.8c-11.2,14.4-22.5,28.7-41.4,35.3C719.9,660.2,744.7,638.5,761.2,635.8z"/>
	<path class="st0" d="M2686.2,1705.7c5.2-25,10.2-48.6,15.7-75C2708.3,1656.7,2699.9,1697.4,2686.2,1705.7z"/>
	<path class="st0" d="M2819.8,1799.9c0.8-10.9,2.3-21.8,2.3-32.8c0.1-11.2,2.8-20.3,13.9-25.9c-3.8,20.1-7.6,39.8-11.4,59.6
		C2823.1,1800.5,2821.4,1800.2,2819.8,1799.9z"/>
	<path class="st0" d="M921.5,563.9c5.9-3.5,11.5-7.4,17.6-10.4c14.9-7.4,30-14.4,45.1-21.5c1,1.6,1.9,3.3,2.9,4.9
		c-6.1,4.3-12.4,12.3-18.4,12.1c-15.3-0.7-25.6,8.4-37.7,14.1c-3.1,1.5-6.2,2.8-9.3,4.2C921.6,566.2,921.6,565.1,921.5,563.9z"/>
	<path class="st0" d="M720.2,2500c-19.1-5.4-64.2-42.4-72.3-58.8C671.6,2460.5,695.6,2479.9,720.2,2500z"/>
	<path class="st0" d="M1365.6,473.6c-17.4,0.1-33,10-49.4-0.1C1328.3,466.4,1359.7,465.9,1365.6,473.6z"/>
	<path class="st0" d="M1543.9,283.7c-6.5,1.2-13,2.4-19.5,3.6c-7.5,1.1-15.1,2.3-22.6,3.4c-0.1-3-1.2-6-0.1-7.8
		c1.3-2.2,4.3-3.5,6.6-5.1c3.8,7.8,7.8,3.3,13.1,1.3C1529,276.2,1538.6,272.1,1543.9,283.7z"/>
	<path class="st0" d="M1299.9,481.3c-11.8,0-23.5,0-38.2,0c8.6-8,19.1-9.8,28.4-12c3.4-0.8,8.3,4.6,12.5,7.1
		C1301.7,478.1,1300.8,479.7,1299.9,481.3z"/>
	<path class="st0" d="M328.2,2151.8c1.9,1,3.6,1.4,4,2.2c3.8,9.3,7.9,18.6,10.8,28.3c0.7,2.3-2.7,5.8-4.1,8.8
		c-2.7-1.7-7.1-2.8-7.6-5c-2.4-8.8-3.7-17.9-5-27C325.8,2156.9,327.3,2154.6,328.2,2151.8z"/>
	<path class="st0" d="M2782.1,1947.4c7.8-25.5,15.5-51,23.3-76.5c1.2,0.3,2.4,0.7,3.6,1c-7.6,25.6-15.1,51.1-22.7,76.7
		C2784.9,1948.2,2783.5,1947.8,2782.1,1947.4z"/>
	<path class="st0" d="M1093,395.4c17.1-19.3,42.7-32.3,63.3-34.5C1135.1,372.4,1114.1,383.9,1093,395.4z"/>
	<path class="st0" d="M1602.7,74.1c-22.5-2.5-45-5.1-67.4-7.6C1558.6,62,1581.3,63.9,1602.7,74.1z"/>
	<path class="st0" d="M1050.9,518.7c0,0-0.1,0.9-0.1,0.9c-15.2,14.8-33.8,22.7-54.4,26.4c0,0,0.1,0.1,0.1,0.1
		c7.8-5.2,15.6-10.5,23.5-15.7c9.4-4.2,18.8-8.5,28.2-12.7C1049.1,518,1050,518.3,1050.9,518.7z"/>
	<path class="st0" d="M1607.1,383.8c19.8-2.8,39.5-2.2,59.2,4.6c-19.6,0-39.2,0-58.8,0C1607.4,386.8,1607.3,385.3,1607.1,383.8z"/>
	<path class="st0" d="M892,581.4c-15,8.5-27.4,15.4-41.5,23.4C855.2,591.6,878.3,577.6,892,581.4z"/>
	<path class="st0" d="M485.9,2418.4c-8.8-9.4-17.6-18.7-27-28.8C472.1,2386.3,482.8,2397,485.9,2418.4z"/>
	<path class="st0" d="M807.9,644.3c-9.3,8.5-18.6,17.1-28,25.6c-1-1.1-2-2.2-3-3.3c4.4-13.7,16.1-19.8,27.5-26.2
		C805.6,641.7,806.8,643,807.9,644.3z"/>
	<path class="st0" d="M1940.8,492.5c22.8-10.9,29.8,9.1,43.3,13c-0.4,1-0.8,2.1-1.2,3.1C1969.9,503.7,1956.9,498.7,1940.8,492.5z"/>
	<path class="st0" d="M672.8,573.7c-15.2,12.5-30.3,25-45.5,37.4c-0.9-1-1.7-2-2.6-3.1c14.9-12.7,29.8-25.4,44.7-38.1
		C670.6,571.3,671.7,572.5,672.8,573.7z"/>
	<path class="st0" d="M2712.8,1553.5c-3.5-8.8-6.7-18.4,2.6-26.9c2.5-2.3,6.7-2.9,13.3-5.5
		C2722.2,1534.4,2717.7,1543.6,2712.8,1553.5z"/>
	<path class="st0" d="M771.1,642.5c15.2-10.7,30.3-21.3,45.5-32c1,1.4,2,2.9,3,4.3c-15.5,10.2-30.9,20.4-46.4,30.6
		C772.5,644.5,771.8,643.5,771.1,642.5z"/>
	<path class="st0" d="M944.8,533.1c2.1,1.1,4.3,2.2,6.4,3.3c-10.4,10-22.5,16.2-38.3,14.6C923.5,545.1,934.2,539.1,944.8,533.1z"/>
	<path class="st0" d="M2709.8,1620.1c-13-15.4-1.9-28,0-40.4C2709.8,1592.1,2709.8,1604.5,2709.8,1620.1z"/>
	<path class="st0" d="M1373.7,2861.6c-16.8-2.4-33.5-4.7-50.3-7.1c0.2-1.4,0.5-2.8,0.7-4.3c16.8,2.3,33.6,4.7,50.3,7
		C1374.1,2858.7,1373.9,2860.1,1373.7,2861.6z"/>
	<path class="st0" d="M2760.2,1030.8c5.4,14.5,10.8,28.9,16.3,43.4c-1.2,0.5-2.4,1-3.6,1.5c-5.9-14.4-11.8-28.7-17.8-43.1
		C2756.7,1032,2758.4,1031.4,2760.2,1030.8z"/>
	<path class="st0" d="M958.5,418.1c-13.8,11.8-27.6,23.6-41.4,35.4c-0.9-1.1-1.9-2.2-2.8-3.3c13.8-11.8,27.6-23.6,41.4-35.4
		C956.6,415.9,957.5,417,958.5,418.1z"/>
	<path class="st0" d="M193.5,1680.4c-4.3-22.7-8.7-45.3-13-68c1.2-0.2,2.4-0.5,3.5-0.7c4.2,22.7,8.3,45.4,12.5,68.1
		C195.6,1680,194.5,1680.2,193.5,1680.4z"/>
	<path class="st0" d="M1232.9,150.5c-19.4,4.9-38.8,9.8-58.2,14.8c-0.3-0.9-0.5-1.9-0.8-2.8c19.4-5.5,38.8-11,58.1-16.4
		C1232.3,147.5,1232.6,149,1232.9,150.5z"/>
	<path class="st0" d="M2729.8,1423.4c0,16,0,31.9,0,47.9c-0.5,0.1-0.9,0.2-1.4,0.3c-1.4-15.8-2.7-31.6-4.1-47.5
		C2726.1,1423.9,2727.9,1423.6,2729.8,1423.4z"/>
	<path class="st0" d="M2722.5,1495.8c5.6-5.4,11.2-10.7,17.8-17.1c2.1,8.7,2.1,8.7-14.3,23.5c-1.2-2.2-2.4-4.5-3.6-6.7
		C2722.4,1495.5,2722.5,1495.8,2722.5,1495.8z"/>
	<path class="st0" d="M388.6,1242.6c-3.7,18-7.4,36-11.1,53.9c-1.1-0.2-2.2-0.4-3.4-0.6c3.5-18.2,7-36.4,10.5-54.6
		C386,1241.7,387.3,1242.2,388.6,1242.6z"/>
	<path class="st0" d="M220.3,1003.4c-2.6,13.2-5.2,26.4-7.8,39.5c-3.1,6.8-6.2,13.6-9.3,20.4c-0.9-0.3-1.8-0.5-2.7-0.8
		C207.2,1042.9,213.8,1023.1,220.3,1003.4z"/>
	<path class="st0" d="M1277,493.6c-14.7,2.4-29.5,4.8-44.2,7.2c-0.2-1.1-0.4-2.3-0.6-3.4c14.5-2.8,29.1-5.6,43.6-8.4
		C1276.2,490.5,1276.6,492.1,1277,493.6z"/>
	<path class="st0" d="M1402.7,388.1c-16.1,2.5-32.1,5-48.2,7.4c-0.2-1.5-0.4-2.9-0.6-4.4c16.1-2.1,32.3-4.2,48.4-6.3
		C1402.4,385.9,1402.6,387,1402.7,388.1z"/>
	<path class="st0" d="M1381.6,328.4c-14.3,2.9-28.7,5.7-43,8.6c-0.3-1.8-0.5-3.6-0.8-5.4c14.6-2,29.2-4.1,43.7-6.1
		C1381.5,326.4,1381.6,327.4,1381.6,328.4z"/>
	<path class="st0" d="M1915.2,470c-18,3.5-22.5,1.1-25.1-12.4C1898.4,461.7,1905.5,465.3,1915.2,470z"/>
	<path class="st0" d="M921.5,563.9c0,1.1,0.1,2.2,0.1,3.3c-7,4.5-14,9-21.1,13.4c-1.2-2.2-2.3-4.5-3.5-6.7
		C905.2,570.7,913.4,567.3,921.5,563.9z"/>
	<path class="st0" d="M1215,110.5c13.3-2.9,26.7-5.8,40-8.7c0.3,1.6,0.7,3.2,1,4.7c-13.4,2.6-26.8,5.2-40.2,7.8
		C1215.6,113,1215.3,111.7,1215,110.5z"/>
	<path class="st0" d="M580.9,701.6c-6.7,7.5-13.4,15-20.9,23.4C559.4,713.9,567.6,703.8,580.9,701.6z"/>
	<path class="st0" d="M906.1,555.4c-1.7,12.7-10.7,18.4-24.3,14.1C890.3,564.5,898.2,559.9,906.1,555.4z"/>
	<path class="st0" d="M1294.4,346.6c-2.7,0.9-5.3,1.9-8,2.8c-5.9,0-11.9,0-17.8,0c-0.1-0.9-0.3-1.7-0.4-2.6
		c13.1-2.4,26.1-4.9,39.2-7.3c0.2,0.5,0.3,1,0.5,1.5C1303.4,342.8,1298.9,344.7,1294.4,346.6z"/>
	<path class="st0" d="M370.2,1451.5c0.8,10.7,1.6,21.3,2.4,32c-2.3,0-4.6,0-7,0c0.7-10.7,1.5-21.4,2.2-32.1
		C368.6,1451.4,369.4,1451.5,370.2,1451.5z"/>
	<path class="st0" d="M572.3,883c7.1-9,14.3-18,21.4-27c1.1,0.8,2.2,1.7,3.2,2.5c-7,9.1-13.9,18.3-20.9,27.4
		C574.8,884.9,573.6,884,572.3,883z"/>
	<path class="st0" d="M1460.9,296.9c-14.2,14-17,14.1-23.1,1.3C1445,297.8,1451.4,297.5,1460.9,296.9z"/>
	<path class="st0" d="M783.2,2598.9c-9-4.9-18-9.8-27.1-14.7c0.8-1.5,1.5-3,2.3-4.5c9,4.9,17.9,9.7,26.9,14.6
		C784.6,2595.9,783.9,2597.4,783.2,2598.9z"/>
	<path class="st0" d="M1162,489.3c5.4-2.2,10.7-4.8,16.3-6.3c1.9-0.5,4.6,2,6.9,3.1c-1.8,1.8-3.4,5-5.4,5.2
		c-5.8,0.7-11.7,0.3-17.5,0.3C1162.2,490.8,1162.1,490,1162,489.3z"/>
	<path class="st0" d="M2831.8,1492.2c1.3-12.4,2.7-24.7,4-37.1c1.1,0.1,2.3,0.2,3.4,0.3c-0.9,12.4-1.9,24.7-2.8,37.1
		C2834.9,1492.4,2833.4,1492.3,2831.8,1492.2z"/>
	<path class="st0" d="M982.7,476.9c-7.1,4.8-14.3,9.6-21.4,14.4c-1.1-1.6-2.1-3.2-3.2-4.8c7.3-4.6,14.6-9.2,21.9-13.8
		C980.9,474.1,981.8,475.5,982.7,476.9z"/>
	<path class="st0" d="M610.8,668.6c-6.6,7.1-13.1,14.1-20.5,22.1c-1.7-10.1,3.6-16.6,17.8-24.4C609,667.1,609.9,667.9,610.8,668.6z"
		/>
	<path class="st0" d="M1274.9,437c14.2,0,28.4,0,42.6,0c0,0.7,0,1.3,0,2c-14.2,0-28.4,0-42.7,0
		C1274.9,438.4,1274.9,437.7,1274.9,437z"/>
	<path class="st0" d="M1223.6,351.3c-12.1,3-24.2,6.1-36.2,9.1c-0.3-1.1-0.6-2.1-0.9-3.2c12-3.3,24-6.7,35.9-10
		C1222.9,348.5,1223.3,349.9,1223.6,351.3z"/>
	<path class="st0" d="M506.5,976.3c-1.5,0.6-2.9,1.1-4.4,1.7c6-11.2,12.1-22.3,18.1-33.5c0,0,0.3,0.3,0.3,0.3
		C515.9,955.3,511.2,965.8,506.5,976.3z"/>
	<path class="st0" d="M2720.9,1647.9c-0.8-6-1.6-11.9-2.5-18.7c4.7,1.3,7.4,2,10.5,2.8c-1,5.2-2.1,10.4-3.1,15.6
		C2724.2,1647.7,2722.5,1647.8,2720.9,1647.9z"/>
	<path class="st0" d="M1208.7,336c-3.5,2.8-6.9,5.6-10.4,8.3c-2.9,0-5.7,0-8.6,0c-0.2-0.9-0.4-1.8-0.6-2.7
		C1195.6,339.8,1202.2,337.9,1208.7,336z"/>
	<path class="st0" d="M1223.8,334.5c-4.1-0.1-8.1-0.1-12.2-0.2C1215.7,334.4,1219.8,334.5,1223.8,334.5z"/>
	<path class="st0" d="M776.6,750.6c-6.9,7.8-13.4,16.1-20.9,23.4c-22,21.7-44.3,42.9-67.4,63.5c29.4-29.8,58.9-59.6,88.3-89.4
		C776.6,749,776.6,749.8,776.6,750.6z"/>
	<path class="st0" d="M2490,1719.3c-4.8,5.7-9.7,11.5-14.5,17.2c-0.9-0.3-1.7-0.5-2.6-0.8c5.6-17.9,11.2-35.7,16.8-53.6
		C2489.8,1694.6,2489.9,1706.9,2490,1719.3z"/>
	<path class="st0" d="M1671.8,608.5c-63-9.6-123.5-18.9-186.9-28.6C1512.5,573.8,1645,594.3,1671.8,608.5z"/>
	<path class="st0" d="M1221.5,2217c-6.1-4-14.3-9.3-23.3-15.2c18-10.2,46.6-4.2,53.4,10.3C1241.8,2213.7,1232.1,2215.3,1221.5,2217z
		"/>
	<path class="st0" d="M1653.4,613.4c25.4,2,51.4,1.8,73.6,16.8c-0.3,1.1-0.5,2.2-0.8,3.3C1702,626.8,1677.7,620.1,1653.4,613.4z"/>
	<path class="st0" d="M699.9,1744.4c14.9,17.6,19.1,39.4,24,62.3C703.8,1789.9,708,1764.7,699.9,1744.4z"/>
	<path class="st0" d="M611.7,1478.1c22.1,10.5,22.1,10.5,11.4,32.6C619.2,1499.4,616,1490.2,611.7,1478.1z"/>
	<path class="st0" d="M765.2,889.9c-10.5,11.9-21,23.8-31.5,35.7c-1.4-1.3-2.8-2.6-4.2-3.9c11-11.5,21.9-23,32.9-34.6
		C763.3,888.1,764.3,889,765.2,889.9z"/>
	<path class="st0" d="M1917,669.4c-10.5-5.6-21-11.2-31.4-16.8c0.7-1.3,1.4-2.6,2-3.9c10.5,5.6,21,11.2,31.4,16.8
		C1918.4,666.8,1917.7,668.1,1917,669.4z"/>
	<path class="st0" d="M1831.2,619.4c7.8,3.8,15.7,7.7,23.5,11.5c-0.7,1.5-1.5,3-2.2,4.5c-7.8-3.9-15.6-7.8-23.4-11.7
		C1829.7,622.4,1830.4,620.9,1831.2,619.4z"/>
	<path class="st0" d="M2055,2152.8c9.5-3,14.6-4.6,19.6-6.2c0.7,0.6,1.4,1.3,2.2,1.9c-3.7,3.5-7.1,7.6-11.4,10.2
		C2064.1,2159.6,2060.3,2156,2055,2152.8z"/>
	<path class="st0" d="M2064.7,771.4c-7.4-6.1-14.8-12.2-22.1-18.2c0.7-0.9,1.4-1.8,2.1-2.7c7.6,5.6,15.2,11.3,22.9,16.9
		C2066.6,768.7,2065.7,770,2064.7,771.4z"/>
	<path class="st0" d="M2471,1414.7c6.5,27.6,0.3,54.9-4.4,82.2c0-27.4,0-54.8,0-82.3C2468.1,1414.6,2469.6,1414.7,2471,1414.7z"/>
</g>
</svg>
