<?xml version='1.0' encoding='utf-8'?>
<svg xmlns="http://www.w3.org/2000/svg" width="210mm" height="297mm" viewBox="0 0 744.09448819 1052.3622047" id="svg7134" version="1.1"> <defs id="defs7136"/> <metadata id="metadata7139"> </metadata> <g id="layer1"> <g style="display:inline" id="g9442" transform="matrix(3.8984877,0,0,3.8984877,-940.14091,-1590.092)"> <path id="path9331" d="m 362.58137,603.313 c 11.31387,-12.76943 25.78422,-18.77497 42.04034,-20.95386 10.83758,-0.76753 15.95143,2.8011 15.11861,10.87479 -12.6825,18.157 -31.59475,27.54466 -51.72155,27.71745 -14.00838,-0.31586 -10.7198,-11.10082 -5.4374,-17.63838 z" style="fill:#cccccc;fill-rule:evenodd;stroke:none;stroke-width:1px;stroke-linecap:butt;stroke-linejoin:miter;stroke-opacity:1"/> <path id="path9307" d="m 266.88667,586.85784 c -1.30161,-6.81439 1.81464,-13.62879 5.43901,-20.44318 -6.72181,-2.60759 -15.94024,-2.94553 -17.6299,-10.12781 -6.16059,-4.04911 -15.06559,-6.92204 -7.87719,-16.69214 2.39338,-4.81545 5.49326,-9.69513 13.3162,-15.00417 10.81551,-7.74203 21.63101,-9.77968 32.44652,-12.19089 7.43957,-1.15065 14.87913,-3.63818 22.3187,-0.56265 11.6195,9.98393 22.9706,21.30981 37.32287,17.6299 3.8126,0.75332 7.51802,1.85497 9.94026,7.12698 4.70091,3.95119 5.87957,8.78295 14.25396,11.81578 9.43192,3.03079 13.59965,11.91068 18.75522,19.69297 -9.60816,1.82288 -15.2106,7.1802 -16.31704,16.50459 -14.86825,1.42429 -21.81292,-7.05589 -28.88303,-15.37927 -29.83295,12.28991 -56.71167,15.71711 -83.08558,17.62989 z" style="fill:#aa4400;fill-rule:evenodd;stroke:none;stroke-width:1px;stroke-linecap:butt;stroke-linejoin:miter;stroke-opacity:1"/> <path id="path9432" d="m 306.53125,510.35938 c -4.64973,0.079 -9.29949,1.32185 -13.94922,2.04101 -7.98659,1.78053 -15.97435,3.36309 -23.96094,7.18359 12.03944,5.15443 14.09661,8.97858 16.64649,16.63477 2.40003,-1.57227 -1.95188,-15.97981 3.75,-20.81836 10.85491,6.75453 20.23796,1.73843 30.19531,1.3125 l -0.0547,-1.18359 c -1.41897,-1.23124 -2.83678,-2.47041 -4.25781,-3.69141 -2.78984,-1.15332 -5.5793,-1.52594 -8.36914,-1.47851 z m -40.26172,10.4121 c -2.04475,1.09698 -4.09001,2.35467 -6.13476,3.81836 -0.47619,0.32317 -0.93291,0.64478 -1.375,0.96485 3.4777,-0.3927 6.86143,-0.26847 10.18945,0.16211 1.21808,-0.53667 -0.60282,-2.67447 -2.67969,-4.94532 z m -11.19336,7.73829 c -2.73022,2.44801 -4.59739,4.81703 -6.0664,7.15039 5.44407,-2.75758 10.7703,-3.14936 16.2832,-3.94336 -2.8201,-3.1225 -6.74428,-2.55206 -10.2168,-3.20703 z" style="fill:#b94a00;fill-opacity:1;fill-rule:evenodd;stroke:none;stroke-width:1px;stroke-linecap:butt;stroke-linejoin:miter;stroke-opacity:1"/> <path id="path9363" d="m 270.02539,537.38672 c -8.90914,0.20687 -17.10952,4.36001 -25.67578,7.02539 -1.47921,6.07025 5.33912,8.58437 10.3457,11.875 1.68966,7.18228 10.90905,7.51936 17.63086,10.12695 2.07705,0.0608 3.87705,-1.12506 5.25,-0.5625 l 17.44336,-16.3164 c -4.38483,-5.69987 -10.62411,-9.23795 -18.00586,-11.44141 -2.38825,-0.55465 -4.7108,-0.75991 -6.98828,-0.70703 z" style="fill:#9c3e00;fill-opacity:1;fill-rule:evenodd;stroke:none;stroke-width:1px;stroke-linecap:butt;stroke-linejoin:miter;stroke-opacity:1"/> <path id="path9263" d="m 377.1695,486.87319 c -17.01071,-4.32894 -33.92579,-8.3327 -49.20178,-6.76359 -6.75709,-0.31863 -6.32406,4.78437 -7.69193,9.94645 -0.75722,4.47805 -0.34598,8.51792 1.72405,11.93575 -0.56588,2.19613 -0.91484,4.69594 -3.18286,4.50906 2.2294,7.88983 5.85468,14.27369 14.29266,18.57613 4.55608,-5.0918 7.83428,-1.96542 10.1093,-0.5399 3.18676,2.80013 6.72345,7.54571 11.67051,1.59143 1.18973,-3.22872 3.62878,-5.92201 7.29406,-8.08978 1.93621,-0.0111 5.5131,1.31341 3.84597,-3.71334 -0.82256,-3.53999 -1.9399,-5.69483 4.1112,-9.94645 6.71111,-5.32135 5.95611,-11.52107 7.02882,-17.50576 z" style="fill:#ffccaa;fill-rule:evenodd;stroke:none;stroke-width:1px;stroke-linecap:butt;stroke-linejoin:miter;stroke-opacity:1"/> <path id="path9402" d="m 333.76953,479.77148 c -1.9577,0.0322 -3.89323,0.14176 -5.80273,0.3379 -6.75709,-0.31863 -6.32354,4.78518 -7.69141,9.94726 -0.0912,0.53934 -0.16426,1.07135 -0.2207,1.59766 0.90664,-4.34985 2.66853,-7.79148 7.38281,-8.09571 17.48642,-0.84106 33.45146,1.53498 49.16992,7.0586 0.0163,-0.004 0.0325,-0.0135 0.0488,-0.0176 0.14753,-1.24499 0.29208,-2.49029 0.51367,-3.72656 -14.88437,-3.78783 -29.69645,-7.32722 -43.40039,-7.10157 z" style="fill:#f0c0a0;fill-opacity:1;fill-rule:evenodd;stroke:none;stroke-width:1px;stroke-linecap:butt;stroke-linejoin:miter;stroke-opacity:1"/> <path id="path9407" d="m 331.87305,494.30078 -11.83594,1.66016 c 0.22997,2.16943 0.84958,4.19306 1.96289,6.03125 -0.56588,2.19613 -0.91557,4.69469 -3.18359,4.50781 2.2294,7.88983 5.85498,14.27373 14.29297,18.57617 2.59226,-2.89707 4.77043,-3.13001 6.58593,-2.5332 -6.70243,-7.06451 -11.25225,-15.79025 -7.82226,-28.24219 z" style="fill:#f0c0a0;fill-opacity:1;fill-rule:evenodd;stroke:none;stroke-width:1px;stroke-linecap:butt;stroke-linejoin:miter;stroke-opacity:1"/> <path id="path9269" d="m 321.80921,501.57413 c 15.08291,-0.70931 3.44438,-13.01683 7.53231,-15.52555 l 10.50292,-0.18755 c 3.50104,6.69634 5.67366,5.61002 8.25229,4.59502 -1.49067,-1.13485 -4.57995,-0.19151 -3.84481,-4.21992 3.16113,3.55628 5.75108,1.88898 8.43984,1.12531 -2.33237,0.41112 -4.68123,0.91565 -6.283,-2.81328 2.36982,1.05661 4.70454,2.63981 7.31454,0.0938 4.434,-3.86874 1.81275,-3.45394 -0.56266,-3.18839 l -22.03737,-7.50208 c -10.29463,5.51192 -14.25233,20.33337 -9.31406,27.62264 z" style="fill:#28170b;fill-rule:evenodd;stroke:none;stroke-width:1px;stroke-linecap:butt;stroke-linejoin:miter;stroke-opacity:1"/> <path id="path9265" d="m 339.46934,485.9548 c -0.68865,-5.49236 -5.39242,-9.13569 -9.75271,-1.50041 -1.63485,3.42465 -2.02729,7.38472 0,10.59669 2.68058,4.50535 3.53466,3.14973 5.62656,2.3444" style="fill:#ffccaa;fill-opacity:1;fill-rule:evenodd;stroke:#b98d70;stroke-width:1px;stroke-linecap:butt;stroke-linejoin:miter;stroke-opacity:1"/> <path id="path9267" d="m 334.03032,483.6104 c 1.76056,0.93848 3.56269,1.85409 1.87553,4.68881 -1.378,1.60176 -2.02209,3.16857 0.28132,4.59502 1.93294,2.05596 -1.44717,3.33289 -3.37593,0.93776 -0.86477,-3.56511 0.89772,-10.43263 1.21908,-10.22159 z" style="fill:#deaa87;fill-rule:evenodd;stroke:none;stroke-width:1px;stroke-linecap:butt;stroke-linejoin:miter;stroke-opacity:1"/> <path id="path9271" d="m 376.97976,487.17389 c 3.84815,-1.71154 5.58829,0.19064 7.78341,1.31287 -1.55523,-0.0548 -1.95575,1.04508 -4.6888,-0.18756 2.37007,1.13922 3.65994,2.76944 3.28216,5.15769 -1.04722,-1.47427 -1.90133,-3.27041 -3.65726,-3.56349 3.04418,3.39953 0.6086,4.60716 0.28132,6.6581 -2.72039,-3.3905 -3.52899,-6.48688 -3.00083,-9.37761 z" style="fill:#28170b;fill-opacity:1;fill-rule:evenodd;stroke:none;stroke-width:1px;stroke-linecap:butt;stroke-linejoin:miter;stroke-opacity:1"/> <path id="path9273" d="m 370.46232,498.42702 c 1.98576,1.51153 -0.11219,3.25244 -1.35975,2.3444 -2.0767,-1.55527 -4.84611,-1.91881 -7.36142,-2.7195 2.8649,-0.5103 5.73405,-0.95648 8.72117,0.3751 z" style="fill:#000000;fill-rule:evenodd;stroke:none;stroke-width:1px;stroke-linecap:butt;stroke-linejoin:miter;stroke-opacity:1"/> <path id="path9275" d="m 362.63203,502.88138 c 0.24066,-1.59488 1.67637,-1.40375 0.7502,0.70332 -0.37011,1.40502 -0.852,2.75098 -2.43484,3.51523 l 1.4502,1.12669 c -6.14556,1.51984 -3.68452,-1.8201 -5.48591,-5.39213 0.7945,1.16351 1.15813,2.61427 2.62573,3.32905 2.41836,-0.52009 2.44935,-1.81642 3.09462,-3.28216 z" style="fill:#000000;fill-rule:evenodd;stroke:none;stroke-width:1px;stroke-linecap:butt;stroke-linejoin:miter;stroke-opacity:1"/> <path id="path9279" d="m 350.72246,513.24364 c 1.24981,0.42977 2.05889,-0.0107 2.95395,-0.28133 -2.21163,3.01256 1.50539,5.43226 4.03237,7.97096" style="fill:none;fill-rule:evenodd;stroke:#000000;stroke-width:1px;stroke-linecap:butt;stroke-linejoin:miter;stroke-opacity:1"/> <path id="path9281" d="m 319.34746,506.23562 c -1.61321,0.74709 -4.94153,-2.04228 -3.97859,5.30477 2.94866,18.55216 8.05879,32.24099 15.25123,41.24463 9.04535,-0.21182 11.56672,-11.67137 16.24783,-22.62592 -9.0342,0.29062 -25.90632,-14.3843 -27.52047,-23.92348 z" style="fill:#dde9af;fill-rule:evenodd;stroke:none;stroke-width:1px;stroke-linecap:butt;stroke-linejoin:miter;stroke-opacity:1"/> <path id="path9283" d="m 319.08222,506.89871 c 2.13197,5.1135 8.61335,29.117 15.51646,25.59554 l 0.79572,1.72405 c -2.43136,0.8538 -5.26057,2.31221 -7.69193,-2.65238 -4.24969,-7.9117 -9.08797,-15.74464 -8.62025,-24.66721 z" style="fill:#cdde87;fill-rule:evenodd;stroke:none;stroke-width:1px;stroke-linecap:butt;stroke-linejoin:miter;stroke-opacity:1"/> <path id="path9285" d="m 333.80297,529.17877 c 2.86941,0.96155 5.545,2.49816 8.06231,1.52316 -2.45044,5.63432 -5.3262,7.73876 -11.31149,10.5452" style="fill:none;fill-rule:evenodd;stroke:#b6cf51;stroke-width:1px;stroke-linecap:butt;stroke-linejoin:miter;stroke-opacity:1"/> <path id="path9287" d="m 344.34621,530.63758 c -1.48727,5.49947 -4.28169,10.12751 -8.42133,13.85873" style="fill:none;fill-rule:evenodd;stroke:#b6cf51;stroke-width:1px;stroke-linecap:butt;stroke-linejoin:miter;stroke-opacity:1"/> <path id="path9417" d="m 352.22266,529.4668 c -2.4689,0.63302 -4.84638,0.81247 -7.1543,0.64062 5.96756,6.3991 13.66082,11.24436 13.00391,23.60547 5.57001,-3.24111 11.14092,-0.95874 16.71093,-0.26562 1.9084,1.14277 3.53759,0.89382 6.09961,5.30468 -0.36894,4.54511 3.71182,7.97854 7.79688,11.41016 1.90489,-0.91543 4.0705,-1.59915 6.49219,-2.05859 -5.15557,-7.78229 -9.32199,-16.66257 -18.75391,-19.69336 -8.37439,-3.03283 -9.553,-7.86522 -14.25391,-11.81641 -2.42224,-5.27201 -6.1288,-6.37363 -9.9414,-7.12695 z" style="fill:#9c3e00;fill-opacity:1;fill-rule:evenodd;stroke:none;stroke-width:1px;stroke-linecap:butt;stroke-linejoin:miter;stroke-opacity:1"/> <path id="path9293" d="m 306.2063,512.97369 4.70018,-0.29938 c 4.79107,12.12837 1.16553,24.91984 0.0549,37.04821 l 26.81996,9.56516 c 3.72472,2.55088 6.04392,1.93932 6.93943,-1.87552 3.41055,-12.55885 3.11951,-18.44596 4.24739,-27.35254 l 3.24331,-0.58232 c -0.27183,7.63617 0.003,15.71425 -2.4268,22.87095 -1.08235,3.56311 -0.27705,6.55992 1.12532,9.37761 -1.52034,22.6855 -12.69062,42.46786 -16.50459,59.64157 l -84.2109,0 14.62906,-33.75938 c 1.06266,-0.91846 1.83903,-1.13908 3.45637,-0.94002 35.27315,-9.59997 36.46048,-53.50675 37.92634,-73.69434 z" style="fill:#abc837;fill-rule:evenodd;stroke:none;stroke-width:1px;stroke-linecap:butt;stroke-linejoin:miter;stroke-opacity:1"/> <path id="path9291" d="m 315.45795,507.76578 c -9.03571,0.87039 -18.75923,2.01047 -20.25091,-1.7429 0.0403,9.81833 12.14645,7.02238 20.66015,6.7197 z" style="fill:#d1e192;fill-opacity:1;fill-rule:evenodd;stroke:none;stroke-width:1px;stroke-linecap:butt;stroke-linejoin:miter;stroke-opacity:1"/> <path id="path9382" d="m 274.94141,565.65039 c -1.29433,-0.0142 -2.60844,0.0812 -3.93946,0.28711 0.44976,0.1512 0.89241,0.30905 1.32422,0.47656 -0.77958,1.46574 -1.52314,2.9327 -2.21679,4.39844 l 18.17172,4.31865 6.0021,-6.03349 c -6.50111,-0.82611 -12.71513,-3.37452 -19.34179,-3.44727 z" style="fill:#9c3e00;fill-opacity:1;fill-rule:evenodd;stroke:none;stroke-width:1px;stroke-linecap:butt;stroke-linejoin:miter;stroke-opacity:1"/> <path id="path9376" d="m 298.33984,558.07422 c -2.5164,6.27655 -5.92443,12.15557 -10.57226,17.05078 10.75207,2.79281 21.45192,5.16334 31.97851,6.15234 3.55188,3.66069 6.56086,9.17715 12.46485,4.77344 -0.23012,1.30802 1.48621,6.50884 -0.79492,3.71484 -3.71115,-1.05715 -2.92469,0.63322 -2.25391,2.25391 0.80859,0.66903 2.38648,2.27985 5.70117,2.91797 -0.2747,1.60759 1.04023,1.26504 2.78516,0.39648 2.12464,1.60208 3.73941,1.98259 4.8457,1.14063 0.52005,-1.45724 1.03732,-2.90682 1.54688,-4.39453 l 0.5039,-5.76367 c 0.28525,0.57338 0.57022,1.11492 0.85547,1.66211 0.58597,-1.82057 1.15536,-3.65626 1.68555,-5.52149 -0.14168,-0.26062 -0.27488,-0.52063 -0.41797,-0.78125 -2.23948,-3.11937 -5.55192,-4.99053 -9.28516,-6.36719 -13.01467,-5.30874 -26.02829,-8.5013 -39.04297,-17.23437 z" style="fill:#a1bc34;fill-opacity:1;fill-rule:evenodd;stroke:none;stroke-width:1px;stroke-linecap:butt;stroke-linejoin:miter;stroke-opacity:1"/> <path id="path9297" d="m 301.87065,577.78156 c -9.11766,4.80374 -19.14024,7.66838 -30.00834,8.72117 l -4.6888,1.78175 c 16.02825,-0.1831 30.15539,-3.21787 43.69964,-7.12698 -5.44403,0.29515 -13.70903,2.2304 -9.0025,-3.37594 z" style="fill:#a0bb33;fill-opacity:1;fill-rule:evenodd;stroke:none;stroke-width:1px;stroke-linecap:butt;stroke-linejoin:miter;stroke-opacity:1"/> <path id="path9299" d="m 313.02449,590.14001 c -15.8169,1.24492 -31.63379,1.78328 -47.45069,-2.15685" style="fill:none;fill-rule:evenodd;stroke:#91a92e;stroke-width:1px;stroke-linecap:butt;stroke-linejoin:miter;stroke-opacity:1"/> <path id="path9329" d="m 366.1621,604.24133 c -3.65564,4.49187 -7.40559,14.4458 5.17215,13.12932 17.38236,-1.73746 29.28437,-9.14501 41.24463,-19.22981 7.30035,-7.25485 3.05346,-12.57127 -4.37644,-12.9967 -18.67532,0.85624 -31.07196,9.13275 -42.04034,19.09719 z" style="fill:#c8ab37;fill-rule:evenodd;stroke:none;stroke-width:1px;stroke-linecap:butt;stroke-linejoin:miter;stroke-opacity:1"/> <path id="path9335" d="m 342.55585,580.36985 -1.45882,3.4481 22.67792,15.51647 c 0.22017,4.53901 3.72228,7.25471 7.02882,10.07907 l 7.69193,-7.16145 c -3.72617,-2.40852 -6.48889,-5.03557 -13.26194,-4.90691 z" style="fill:#333333;fill-rule:evenodd;stroke:none;stroke-width:1px;stroke-linecap:butt;stroke-linejoin:miter;stroke-opacity:1"/> <path id="path9301" d="m 294.94549,549.86739 c -9.91972,2.7177 -16.55986,8.02454 -19.76029,16.04695 14.97387,4.14688 29.93281,8.17431 44.56011,9.54859 3.55188,3.66069 6.56224,9.17801 12.46623,4.7743 -0.23012,1.30802 1.48541,6.50734 -0.79572,3.71334 -3.71115,-1.05716 -2.92531,0.63384 -2.25453,2.25453 0.80859,0.66903 2.38794,2.27951 5.70263,2.91763 -0.2747,1.60759 1.04008,1.26641 2.78501,0.39785 3.32497,2.50718 5.40883,2.03567 6.23311,-1.45881 l 0.6631,-7.5593 c 1.50302,3.02123 3.00604,5.3467 4.50906,10.47693 0.89456,3.32974 4.27883,2.17153 3.4481,-1.45882 -1.01974,-4.55326 -3.33532,-9.10653 -5.83525,-13.65979 -2.23948,-3.11937 -5.55012,-4.98907 -9.28336,-6.36573 -14.14607,-5.77025 -28.29213,-9.02233 -42.4382,-19.62767 z" style="fill:#ffccaa;fill-opacity:1;fill-rule:evenodd;stroke:none;stroke-width:1px;stroke-linecap:butt;stroke-linejoin:miter;stroke-opacity:1"/> <path id="path9303" d="m 335.99962,578.51177 c -0.1737,3.88762 3.81599,10.47112 -1.72014,9.89005" style="fill:none;fill-rule:evenodd;stroke:#b98d70;stroke-width:1px;stroke-linecap:butt;stroke-linejoin:miter;stroke-opacity:1"/> <path id="path9305" d="m 339.56311,579.16821 c 1.23412,5.39153 1.03201,8.61741 -1.4606,10.54744" style="fill:none;fill-rule:evenodd;stroke:#b98d70;stroke-width:1px;stroke-linecap:butt;stroke-linejoin:miter;stroke-opacity:1"/> <path id="path9309" d="m 289.64072,514.45802 c -0.25035,9.92103 2.67693,20.41981 -1.06096,29.70674 -3.29567,-3.2225 -7.74737,-4.13293 -11.6705,-6.10049 7.04612,2.80244 8.01627,1.6989 5.17215,-1.85667 l 3.97858,3.84596 c 4.66398,-6.6389 2.45272,-17.02793 3.58073,-25.59554 z" style="fill:#883600;fill-opacity:1;fill-rule:evenodd;stroke:none;stroke-width:1px;stroke-linecap:butt;stroke-linejoin:miter;stroke-opacity:1"/> <path id="path9311" d="m 259.13826,527.3221 c 10.13227,-1.66591 16.40206,2.07565 20.29076,9.15073" style="fill:none;fill-rule:evenodd;stroke:#7e3200;stroke-width:1px;stroke-linecap:butt;stroke-linejoin:miter;stroke-opacity:1"/> <path id="path9313" d="m 269.48257,522.01732 c 4.64292,2.32753 8.40587,5.94116 9.81383,12.9967" style="fill:none;fill-rule:evenodd;stroke:#7e3200;stroke-width:1px;stroke-linecap:butt;stroke-linejoin:miter;stroke-opacity:1"/> <path id="path9315" d="m 247.20252,543.23642 c 8.58978,-4.86616 17.90877,-7.23217 28.24792,-6.10049 1.07267,2.49843 -0.004,4.6175 -3.18286,6.36573 -0.0121,-2.02144 -0.0825,-3.9845 -2.78501,-3.31548 -7.42668,-1.66539 -14.85337,1.52519 -22.28005,3.05024 z" style="fill:#883600;fill-opacity:1;fill-rule:evenodd;stroke:none;stroke-width:1px;stroke-linecap:butt;stroke-linejoin:miter;stroke-opacity:1"/> <path id="path9317" d="m 249.19181,538.59474 c 9.49948,-5.97404 18.30636,-6.58049 26.39125,-1.59143" style="fill:none;fill-rule:evenodd;stroke:#7e3200;stroke-width:1px;stroke-linecap:butt;stroke-linejoin:miter;stroke-opacity:1"/> <path id="path9319" d="m 375.47875,553.71335 c -3.95141,4.05808 -0.0157,3.72877 3.52191,3.62091 -11.01181,2.20654 -15.8489,10.99651 -18.86736,21.72548 -0.91629,-10.88202 3.8532,-19.47027 15.34545,-25.34639 z" style="fill:#883600;fill-opacity:1;fill-rule:evenodd;stroke:none;stroke-width:1px;stroke-linecap:butt;stroke-linejoin:miter;stroke-opacity:1"/> <path id="path9333" d="m 359.00065,617.37065 c 8.49278,11.72518 16.90832,23.53462 40.58153,18.69934 14.71978,-4.87987 23.51451,-15.06109 24.79982,-31.96127 l -4.24382,-11.93575 c -18.30882,19.63833 -37.90426,32.29208 -61.13753,25.19768 z" style="fill:#666666;fill-rule:evenodd;stroke:none;stroke-width:1px;stroke-linecap:butt;stroke-linejoin:miter;stroke-opacity:1"/> <path id="path9397" d="m 423.27344,600.98828 c -12.78968,15.77604 -33.67917,31.99863 -60.57813,21.3711 7.52686,9.77219 16.60458,17.85358 36.88672,13.71093 14.71978,-4.87987 23.51547,-15.06076 24.80078,-31.96093 l -1.10937,-3.1211 z" style="fill:#5c5c5c;fill-opacity:1;fill-rule:evenodd;stroke:none;stroke-width:1px;stroke-linecap:butt;stroke-linejoin:miter;stroke-opacity:1"/> <path id="path9321" d="m 395.33836,568.16886 c 9.21078,5.92038 17.87808,13.47117 27.71745,17.50576 1.38831,1.11904 3.54921,1.31096 3.31548,4.37644 0.52745,3.5105 1.37988,5.0711 2.25453,6.49835 1.406,2.091 1.50903,3.96485 0.79572,5.70263 1.53971,7.73792 -1.47831,13.68999 -1.85667,16.57743 -1.16737,-0.31113 -2.54668,1.17915 -3.05025,-4.7743 -0.89729,2.57029 -2.33937,4.69948 -5.17215,5.70263 -1.16011,-0.14388 -2.42632,-0.21909 -0.6631,-2.25453 -0.65373,-0.68045 -1.66948,-1.25349 -0.79572,-2.38715 -0.87049,-0.45206 -2.31375,-0.48409 -0.66309,-2.785 4.91255,-5.99693 5.1946,-9.91014 3.05024,-12.73146 l 0,-4.1112 c -1.36633,1.52314 -2.98397,2.8955 -2.65239,5.43739 -0.48008,2.81941 0.84875,6.2966 -3.18286,7.82454 -1.42937,-3.49231 -1.17095,-6.98462 -0.13262,-10.47693 0.30663,-3.10794 -1.33183,-6.84581 3.1116,-8.74623 -10.04366,-3.22971 -29.03137,-2.9423 -38.25574,-6.77023 -0.58812,-8.72162 5.82443,-12.92668 16.17957,-14.58814 z" style="fill:#ffccaa;fill-opacity:1;fill-rule:evenodd;stroke:none;stroke-width:1px;stroke-linecap:butt;stroke-linejoin:miter;stroke-opacity:1"/> <path id="path9337" d="m 370.83693,608.71723 c 1.655,1.85001 3.50365,2.9211 5.10584,4.14436" style="fill:none;fill-rule:evenodd;stroke:#333333;stroke-width:1px;stroke-linecap:butt;stroke-linejoin:miter;stroke-opacity:1"/> <path id="path9339" d="m 378.56201,611.00492 -5.50371,-4.87376" style="fill:none;fill-rule:evenodd;stroke:#333333;stroke-width:1px;stroke-linecap:butt;stroke-linejoin:miter;stroke-opacity:1"/> <path id="path9341" d="m 375.41229,604.53973 5.40425,4.44275" style="fill:none;fill-rule:evenodd;stroke:#333333;stroke-width:1px;stroke-linecap:butt;stroke-linejoin:miter;stroke-opacity:1"/> <path id="path9343" d="m 382.57374,606.66165 c -1.93783,-1.79001 -2.51785,-3.08464 -4.64594,-4.17125" style="fill:none;fill-rule:evenodd;stroke:#333333;stroke-width:1px;stroke-linecap:butt;stroke-linejoin:miter;stroke-opacity:1"/> <path id="path9345" d="m 392.35903,601.58069 c -3.37556,0.38166 -5.53492,1.73627 -7.68963,3.09461" style="fill:none;fill-rule:evenodd;stroke:#927c28;stroke-width:1px;stroke-linecap:butt;stroke-linejoin:miter;stroke-opacity:1"/> <path id="path9347" d="m 388.23289,607.76991 c 4.53498,-0.85632 6.04572,-3.00875 7.12698,-5.34524" style="fill:none;fill-rule:evenodd;stroke:#927c28;stroke-width:1px;stroke-linecap:butt;stroke-linejoin:miter;stroke-opacity:1"/> <path id="path9349" d="m 398.54825,599.98649 c -5.28272,-3.87356 -10.56543,-0.35582 -15.84815,2.81328" style="fill:none;fill-rule:evenodd;stroke:#927c28;stroke-width:1px;stroke-linecap:butt;stroke-linejoin:miter;stroke-opacity:1"/> <path id="path9351" d="m 381.94989,599.42384 c 7.6316,-4.18513 14.36981,-5.33277 19.50542,-1.03154" style="fill:none;fill-rule:evenodd;stroke:#927c28;stroke-width:1px;stroke-linecap:butt;stroke-linejoin:miter;stroke-opacity:1"/> <path id="path9353" d="m 405.58146,597.54831 c -6.25402,-5.81385 -14.89331,-6.6868 -28.13282,1.9693" style="fill:none;fill-rule:evenodd;stroke:#927c28;stroke-width:1px;stroke-linecap:butt;stroke-linejoin:miter;stroke-opacity:1"/> <path id="path9355" d="m 319.72996,493.20812 c -2.52005,-6.52038 2.49947,-18.29969 7.93597,-30.36984 -16.76991,-9.99321 -18.58472,-18.51951 -2.90986,-25.3303 14.52238,-4.38232 28.89931,-4.97286 42.72199,8.8855 7.47003,4.42279 13.16262,11.74162 23.14658,12.06836 7.60537,3.70345 18.9696,6.14917 3.30665,17.63838 -4.09813,2.25037 -6.57215,3.89254 -11.24262,2.78501 -1.72706,3.2911 -3.80879,8.21121 -5.85181,8.65105 -15.6766,-5.52362 -31.59881,-7.90068 -49.03866,-7.05962 -6.29087,0.40705 -7.30977,6.43054 -8.06824,12.73146 z" style="fill:#f2f2f2;fill-rule:evenodd;stroke:none;stroke-width:1px;stroke-linecap:butt;stroke-linejoin:miter;stroke-opacity:1"/> <path id="path9357" d="m 332.16299,459.5228 c 13.17695,5.75982 26.01788,6.97115 38.48945,3.18286 -0.68862,2.75794 2.65991,2.11344 4.76159,2.51977 -12.98611,3.42168 -26.43277,5.13021 -43.25104,-5.70263 z" style="fill:#cccccc;fill-rule:evenodd;stroke:none;stroke-width:1px;stroke-linecap:butt;stroke-linejoin:miter;stroke-opacity:1"/> <path id="path9359" d="m 323.16888,454.0854 c 5.14363,-3.99374 11.4282,0.0205 17.59141,3.18287 8.50912,2.00488 17.01825,2.95871 25.52737,0.39786" style="fill:none;fill-rule:evenodd;stroke:#a9a9a9;stroke-width:0.99866754px;stroke-linecap:butt;stroke-linejoin:miter;stroke-opacity:1"/> <path id="path9361" d="m 384.80493,472.12164 c -3.83683,-1.58361 -7.98418,-0.98786 -12.1685,-0.13262" style="fill:none;fill-rule:evenodd;stroke:#a9a9a9;stroke-width:0.99866754px;stroke-linecap:butt;stroke-linejoin:miter;stroke-opacity:1"/> <path id="path9323" d="m 425.64189,597.80929 c 0.50659,2.3537 0.2856,4.58613 -0.26524,6.76359 -0.68405,1.68978 0.3583,3.33822 -2.18822,5.63633 -1.97875,1.97194 -3.23836,4.02796 -5.57002,4.97322" style="fill:none;fill-rule:evenodd;stroke:#b98d70;stroke-width:1px;stroke-linecap:butt;stroke-linejoin:miter;stroke-opacity:1"/> <path id="path9325" d="m 418.54675,617.43696 c 2.89075,-0.86655 3.91665,-2.26591 5.70263,-3.4481 4.28573,-2.48862 3.02028,-7.48202 4.64168,-11.53789" style="fill:none;fill-rule:evenodd;stroke:#b98d70;stroke-width:1px;stroke-linecap:butt;stroke-linejoin:miter;stroke-opacity:1"/> <path id="path9412" d="m 323.15234,459.88477 -0.008,0.0156 c 1.37136,0.96624 2.85074,1.9419 4.52149,2.9375 -5.4365,12.07015 -10.4556,23.85071 -7.93555,30.37109 0.75847,-6.30092 1.77749,-12.32537 8.06836,-12.73242 17.43985,-0.84106 33.36051,1.53693 49.03711,7.06055 2.02965,-0.43696 4.098,-5.29155 5.81836,-8.58203 -19.98286,-5.61135 -40.44999,-8.80454 -59.50196,-19.07031 z" style="fill:#dbdbdb;fill-opacity:1;fill-rule:evenodd;stroke:none;stroke-width:1px;stroke-linecap:butt;stroke-linejoin:miter;stroke-opacity:1"/> <path id="path9289" d="m 319.56703,506.88588 c -12.62204,4.87798 -20.24846,-3.59027 -27.18368,-12.80571 11.10516,7.89743 25.17239,-1.34651 27.18368,12.80571 z" style="fill:#d0dca5;fill-opacity:1;fill-rule:evenodd;stroke:none;stroke-width:1px;stroke-linecap:butt;stroke-linejoin:miter;stroke-opacity:1"/> <path id="path9422" d="m 395.33789,568.16797 c -2.70491,0.434 -5.13176,1.047 -7.24414,1.86328 13.49699,5.21139 21.44049,11.34786 32.21094,17.01367 3.06657,0.49197 4.88653,1.60668 6.07226,3.03906 -0.002,-0.0118 -0.004,-0.0213 -0.006,-0.0332 0.23373,-3.06548 -1.92614,-3.25791 -3.31445,-4.37695 -9.83937,-4.03459 -18.50797,-11.58548 -27.71875,-17.50586 z" style="fill:#eebf9f;fill-opacity:1;fill-rule:evenodd;stroke:none;stroke-width:1px;stroke-linecap:butt;stroke-linejoin:miter;stroke-opacity:1"/> <path id="path9427" d="m 294.94531,549.86719 c -6.81044,1.86585 -12.07528,4.95318 -15.74219,9.30078 15.33889,4.48083 31.85755,10.53432 43.19922,9.68555 3.55326,-2.68126 9.68732,-0.87993 15.85938,0.98632 -0.29185,-0.11636 -0.58137,-0.23598 -0.87891,-0.3457 -14.14607,-5.77025 -28.29143,-9.02161 -42.4375,-19.62695 z" style="fill:#eebf9f;fill-opacity:1;fill-rule:evenodd;stroke:none;stroke-width:1px;stroke-linecap:butt;stroke-linejoin:miter;stroke-opacity:1"/> <path id="path9437" d="m 270.63867,595.85938 c 12.81282,5.52962 -0.72235,4.97922 -5.81445,6.37695 21.11693,5.82446 36.76859,3.45401 53.07617,2.06445 -16.97809,1.93149 -16.46477,9.82418 -53.07617,5.0625 5.6725,7.3165 -4.9431,7.11721 -11.44141,8.81641 25.85761,-1.10073 54.72666,-5.21205 74.64649,-0.375 3.59437,0.0967 6.06753,-0.66396 7.82422,-1.97461 1.46328,-5.00941 3.35876,-10.23428 5.32617,-15.67188 -23.41331,-0.85453 -45.33124,6.88539 -70.54102,-4.29882 z" style="fill:#b8d73b;fill-opacity:1;fill-rule:evenodd;stroke:none;stroke-width:1px;stroke-linecap:butt;stroke-linejoin:miter;stroke-opacity:1"/> <path id="path9295" d="m 251.42644,573.20401 c 5.02573,4.05928 10.1209,13.07732 16.6305,13.33348 -0.26255,0.92991 -0.49385,1.85981 -1.3634,2.78972 -4.6901,4.43171 -9.90368,10.89957 -11.26102,2.36829 -0.19525,-6.59902 -0.22247,-13.2622 -4.00608,-18.49149 z" style="fill:#a0bb33;fill-opacity:1;fill-rule:evenodd;stroke:none;stroke-width:1px;stroke-linecap:butt;stroke-linejoin:miter;stroke-opacity:1"/> </g> </g> </svg>