<?xml version="1.0" encoding="UTF-8"?>
<svg viewBox="0 0 640 480" xmlns="http://www.w3.org/2000/svg">
 <defs>
  <filter id="a">
   <feGaussianBlur stdDeviation="0.414313"/>
  </filter>
  <filter id="g" x="-.086395" y="-.11145" width="1.1728" height="1.2229">
   <feGaussianBlur stdDeviation="11.145"/>
  </filter>
  <linearGradient id="j" x1=".13679" x2=".83378" y1="-.086787" y2="-.086787" gradientTransform="matrix(1.0228 0 0 1.0228 -6.1273 -1.9736)">
   <stop stop-color="#ffefef" stop-opacity=".582" offset="0"/>
   <stop stop-color="#ffefef" stop-opacity=".143" offset="1"/>
  </linearGradient>
  <linearGradient id="h" x1=".38649" x2="1.1516" y1=".28683" y2=".28683" gradientTransform="matrix(1.0228 0 0 1.0228 -6.1273 -1.9736)">
   <stop stop-color="#fff" stop-opacity=".112" offset="0"/>
   <stop stop-color="#fff" stop-opacity=".898" offset="1"/>
  </linearGradient>
  <linearGradient id="i" x1=".57433" x2=".47472" y1=".89604" y2=".89604" gradientTransform="matrix(1.0228 0 0 1.0228 -6.1273 -1.9736)">
   <stop stop-color="#fffbfb" stop-opacity=".827" offset="0"/>
   <stop stop-opacity="0" offset="1"/>
  </linearGradient>
  <radialGradient id="k" cx="170.31" cy="209.17" r="104.54" gradientTransform="matrix(1.3143 -1.078 1.0948 1.3348 -239.24 161.35)" gradientUnits="userSpaceOnUse">
   <stop stop-color="#70ffea" offset="0"/>
   <stop stop-color="#0055f6" offset="1"/>
  </radialGradient>
 </defs>
 <g fill-rule="evenodd">
  <g stroke="#000">
   <path d="m226.13 387.54l-155.02-32.196-62.008-174.1 232.53-64.393 70.355 168.14-85.857 102.55z" fill="#1a1a1a" filter="url(#g)"/>
   <g fill="none" stroke-width="1.023">
    <path d="m125.14 330.77l10.86 5.9563 21.196-14.017-10.638-5.6096-21.418 13.67z"/>
    <path d="m188.83 289.64l10.51 5.1609 19.017-12.409-10.529-4.9814-18.998 12.23z"/>
    <path d="m207.9 277.37l10.381 4.9122 18.339-12.174-10.267-4.6844-18.453 11.946z"/>
    <path d="m226.17 265.43l10.529 4.8031 15.676-10.37-10.311-4.5584-15.895 10.125z"/>
    <path d="m242.08 255.28l10.361 4.5786 14.195-9.5524-10.002-4.2942-14.554 9.2681z"/>
    <path d="m256.69 246.03l9.7894 4.2047 14.245-9.0597-9.3865-4.6051-14.648 9.4601z"/>
   </g>
  </g>
  <g stroke-linecap="round" stroke-linejoin="round">
   <path d="m81.533 337.3l201.9 117.95 195.43-190.19-174.93-65.368-222.41 137.6z" stroke="#333" stroke-width=".818"/>
   <path d="m337.7 212.4c-122.83 72.084-46.607 55.59-215.3 148.12l107.37 63.378c102.5-31.31 216.46-91.029 202.59-176.36l-72.801-27.044-21.858-8.0941z" fill="url(#j)" stroke-width="2"/>
   <g stroke="#333" stroke-width=".818">
    <path d="m81.367 337.27l0.1612 16.17 200.97 121.6c3.9792-2.1446 5.6942-14.787 1.2893-19.796l-202.42-117.97z"/>
    <path d="m478.85 265.16c1.2029 3.7112 2.4832 11.79-1.0232 15.107l-195.01 194.45c5.162-5.9072 3.5722-12.779 0.96695-19.796l195.06-189.76z"/>
    <g fill="#1a1a1a">
     <path d="m40.754 90.792s34.811 248.01 37.39 245.37c2.5786-2.6394 224.98-138.29 224.98-138.29l0.6447-190.65-263.02 83.568z"/>
     <path d="m296.02 5.4766c6.1403-1.7234 5.9962 0.61956 7.7189 1.7546l-262.98 82.917c-2.3648-2.109-3.3544-1.2477-8.6564-1.0849l263.92-83.586z"/>
    </g>
   </g>
  </g>
  <g stroke-width="1.023">
   <path d="m48.282 105.98l251.92-82.772-1.8067 162.93-218.59 132.01-31.52-212.16z" fill="url(#k)" stroke="#000" stroke-linejoin="round"/>
   <g fill="none">
    <path d="m328.65 209.22l-218.06 144.34-11.005-6.1605 219.56-141.94 9.4962 3.7632z" stroke="#999"/>
    <path d="m137.29 335.77l23.9-15.632-23.9 15.632z" opacity=".3" stroke="#000"/>
   </g>
  </g>
 </g>
 <g stroke-linejoin="round">
  <g stroke="#000">
   <path d="m316.73 341.66l47.447-39.681c2.7191-2.274 8.4497-2.5546 12.897-0.63776l23.874 10.644c4.7409 2.0432 6.5529 5.6877 4.0122 8.182l-43.872 42.432c-3.035 2.9794-9.5971 3.4142-14.65 0.96121l-27.076-12.898c-4.7087-2.2858-5.8556-6.306-2.6314-9.0024" fill="#999" opacity=".89" stroke-linecap="round" stroke-width=".974"/>
   <g fill-rule="evenodd" stroke-width=".205">
    <path d="m189.2 289.61c3.1041-2.3788 10.938 2.181 10.486 5.0499l-10.486-5.0499z" fill="#666" opacity=".997" stroke-linecap="round"/>
    <path d="m135.66 336.9l21.435-14.266c-1.7945-3.6783-5.1448-6.3153-10.525-5.8329l-21.311 13.999c3.716-2.5385 10.935 3.0915 10.401 6.0999z" fill="#808080"/>
    <path d="m125.24 330.82c4.2411-2.7416 11.502 4.0557 10.388 6.1945l-10.388-6.1945z" fill="none" opacity=".69" stroke-linecap="round"/>
    <g fill="#4d4d4d">
     <path d="m199.63 294.67l18.104-11.965c-0.91138-3.4477-3.6344-5.6803-10.049-5.1223l-18.534 12.043c3.2736-2.5937 11.376 2.6066 10.479 5.0442z"/>
     <path d="m217.62 282.73l18.3-11.926c-1.2633-3.565-4.3187-5.8758-10.44-4.8291l-18.495 12.004c3.7094-1.6181 10.038 0.42627 10.636 4.7509z"/>
     <path d="m235.84 270.78l16.227-10.792c-2.1235-3.2913-4.7684-4.6636-10.088-4.4967l-16.579 10.499c3.9049-0.91431 9.4518 0.42624 10.44 4.79z"/>
     <path d="m252.12 259.97l14.174-9.4432c-2.4363-3.0567-5.2376-4.3508-9.8537-4.3403l-14.526 9.3259c4.0809-0.36685 7.8291 0.79768 10.206 4.4577z"/>
     <path d="m266.26 250.57l14.35-9.4627c-1.8107-4.2297-5.394-4.9765-9.4627-4.614l-14.996 9.8733c3.6312-0.40594 6.8906 0.19165 10.108 4.2035z"/>
    </g>
   </g>
  </g>
  <path d="m269.17 347.19l61.286-49.302c0.73718-0.58643 2.2585-0.59857 3.4146-0.027832l9.3603 4.603c1.1735 0.57938 1.5359 1.529 0.80878 2.1298l-60.352 50.721c-0.90463 0.74747-2.6428 0.78531-3.8924 0.084076l-10.063-5.6482c-1.2289-0.68967-1.4777-1.8314-0.5625-2.5594" fill="#808080" stroke-linecap="round" stroke-width=".7"/>
 </g>
 <g fill="#f0f" fill-rule="evenodd" stroke="#000" stroke-width="1.023">
  <path d="m265.93 349.16l13.9 7.8969-10.234 8.6222-14.133-7.9678 10.467-8.5514z"/>
  <path d="m254.16 358.69l14.266 7.9225-10.637 8.9445-13.9-8.5818 10.271-8.2852z"/>
  <path d="m242.79 367.83l13.904 8.5648-10.948 9.1109-14.606-8.3389 11.65-9.3368z"/>
  <path d="m230.05 378.11l14.66 8.3523-13.435 11.33-14.899-8.5237 13.674-11.159z"/>
  <path d="m332.79 295.5l12.858 6.3647 9.7503-8.0782-12.922-6.0174-9.6864 7.7309z"/>
  <path d="m343.68 286.85l9.2394-7.4533 13.217 5.6576-9.6074 7.7929-12.849-5.9973z"/>
  <path d="m354.17 278.44l13.104 5.6602 9.1687-7.6352-12.653-5.8534-9.6197 7.8283z"/>
  <path d="m352.67 277.87l-11.005-5.4548 9.9064-7.704 10.916 5.2953-9.817 7.8636z"/>
  <path d="m215.02 388.46l-13.378-7.5319 27.206-20.828 12.61 6.9353-26.438 21.424z"/>
  <path d="m352.84 263.7l10.737 5.2645 25.715-20.775-11.125-4.3575-25.328 19.868z"/>
  <path d="m362.64 254.31l14.118-11.092-26.407-10.25-17.618 13.017 12.023 4.8156 3.3313-2.5474 14.553 6.0565z"/>
  <path d="m348.62 232.28l-24.116 17.904-11.403-4.8669 24.651-17.23 10.867 4.1931z"/>
  <path d="m200.27 380.17l23.377-17.926-14.849-7.8187-23.416 17.425 14.888 8.3201z"/>
  <path d="m183.87 371.11l18.514-13.826-13.447-7.2424-18.604 13.333 13.538 7.7357z"/>
  <path d="m168.93 362.67l13.595-9.7837-12.853-7.0911-13.443 9.6559 12.701 7.2189z"/>
  <path d="m171.01 344.94l11.055-7.8515 12.779 6.7118-11.176 8.1738-12.658-7.0341z"/>
  <path d="m242.72 366.03l10.086-8.058-13.054-6.6544-9.7435 7.8062 12.711 6.9063z"/>
  <path d="m224.83 361.28l10.3-8.0776-14.561-7.7589-10.384 7.8021 14.645 8.0345z"/>
  <path d="m203.8 356.36l10.338-7.8399-13.527-7.1575-10.327 7.6882 13.516 7.3092z"/>
  <path d="m183.38 336.22l10.77-7.4526 12.475 6.5881-10.53 7.5568-12.715-6.6923z"/>
  <path d="m215.43 347.59l10.378-8.0011-13.084-6.7615-10.891 7.6882 13.597 7.0744z"/>
  <path d="m195.49 327.88l10.514-7.4242 12.418 6.4172-10.416 7.5568-12.516-6.5498z"/>
  <path d="m236.19 352.35l10.542-8.2388-14.48-7.4367-10.384 7.8021 14.322 7.8733z"/>
  <path d="m254.2 357.05l10.469-8.5617-12.851-6.4849-10.772 8.2208 13.154 6.8258z"/>
  <path d="m265.92 347.58l10.912-8.7632-12.69-6.3237-11.054 8.5029 12.832 6.584z"/>
  <path d="m278.13 337.87l9.3296-7.3082-12.78-6.1959-9.3006 7.1618 12.751 6.3423z"/>
  <path d="m288.66 329.54l10.412-8.2768-12.609-6.0918-10.487 8.1737 12.684 6.1949z"/>
  <path d="m300.05 320.3l10.268-8.1588-12.367-5.9209-10.289 7.9791 12.388 6.1005z"/>
  <path d="m311.46 311.25l9.4835-7.5378-12.338-5.6872-9.3878 7.3109 12.242 5.9141z"/>
  <path d="m322.09 302.78l8.3794-7.1096-11.806-5.5041-8.8839 6.9495 12.311 5.6642z"/>
  <path d="m331.56 294.73l9.5075-7.5528-11.685-5.2624-9.4479 7.3121 11.626 5.5031z"/>
  <path d="m342.24 286.22l9.1852-7.3514-11.081-5.4236-9.5688 7.3927 11.464 5.3823z"/>
  <path d="m207.39 319.5l11.426-7.994 11.905 6.1892-10.929 8.2975-12.402-6.4928z"/>
  <path d="m220.09 310.58l10.514-7.4242 11.563 6.3032-10.245 7.215-11.832-6.094z"/>
  <path d="m231.8 302.28l10.998-7.7091 11.564 6.2324-11.014 7.7848-11.549-6.3081z"/>
  <path d="m244.04 293.69l9.5745-6.6558 11.989 5.5112-9.9669 7.4095-11.597-6.2649z"/>
  <path d="m254.8 286.05l10.457-7.2532 11.848 5.3915-10.245 7.4998-12.06-5.6382z"/>
  <path d="m266.48 277.95l10.34-7.215 11.848 5.1351-10.32 7.4376-11.868-5.3578z"/>
  <path d="m278.18 269.71l10.514-7.4242 11.677 5.1636-10.416 7.5568-11.775-5.2963z"/>
  <path d="m290.06 261.35l9.4313-6.7119 11.705 5.0497-9.4756 6.8446-11.661-5.1823z"/>
  <path d="m300.78 253.75l11.012-7.5381 11.534 4.9072-10.658 7.7562-11.889-5.1253z"/>
  <path d="m233.38 335.81l10.54-7.8896 14.405 7.3524-10.475 7.9768-14.47-7.4397z"/>
  <path d="m245.11 326.94l10.029-7.3709 14.322 7.1312-9.9978 7.6794-14.353-7.4397z"/>
  <path d="m256.37 318.65l10.155-7.6032 14.118 6.9334-10.037 7.8358-14.236-7.166z"/>
  <path d="m267.71 310.16l14.077 6.9015 9.201-7.0942-13.991-6.7675s-9.2476 6.9992-9.2867 6.9602z"/>
  <path d="m278.1 302.2l14.077 6.9015 9.201-7.0943-13.991-6.7675s-9.2477 6.9993-9.2868 6.9602z"/>
  <path d="m288.6 294.3l13.959 6.7842 9.9029-7.8467-13.52-6.3669-10.342 7.4294z"/>
  <path d="m300.22 285.88l13.468 6.4592 9.6702-7.5244-13.784-5.9634-9.3552 7.0286z"/>
  <path d="m311.03 277.83l13.524 6.0167 9.0904-6.9836-13.549-5.8274-9.0656 6.7943z"/>
  <path d="m321.33 270.12l13.442 5.8343 9.2792-7.1725-13.435-5.622-9.2867 6.9601z"/>
  <path d="m331.86 262.22l13.386 5.6296 7.8738-6.0435-13.272-5.6338-7.9872 6.0477z"/>
  <path d="m341.14 255.19l13.081 5.7402 7.2656-5.6564-13.162-5.4956-7.1854 5.4118z"/>
  <path d="m227 338.59l10.378-8.0011-13.084-6.7615-10.891 7.6882 13.597 7.0744z"/>
  <path d="m238.89 329.52l10.71-7.8905-13.416-6.8721-10.891 7.6882 13.597 7.0744z"/>
  <path d="m250.91 320.72l10.821-7.8353-13.084-6.3744-10.615 7.467 12.878 6.7426z"/>
  <path d="m262.9 311.85l11.219-8.1575-12.752-6.2923-11.439 8.1574 12.971 6.2924z"/>
  <path d="m275.21 302.66l9.5488-7.1163-12.577-6.0884-9.4629 6.9045 12.491 6.3003z"/>
  <path d="m285.85 294.56l9.2999-6.6739-12.282-6.0979-9.3981 6.8034 12.38 5.9684z"/>
  <path d="m296.52 286.91l9.089-6.9789-11.913-6.0331-9.4455 6.8224 12.27 6.1896z"/>
  <path d="m307.06 279.21l9.3616-7.1409-11.889-5.6689-9.4053 6.6715 11.932 6.1383z"/>
  <path d="m317.56 271.02l8.8316-6.3762-11.81-5.3538-8.6635 6.0632 11.642 5.6668z"/>
  <path d="m327.7 263.7l7.724-5.8997-11.591-5.2684-8.0156 5.8633 11.883 5.3048z"/>
  <path d="m336.6 256.9l6.6732-5.1808-11.757-4.6601-6.412 4.6467 11.496 5.1943z"/>
 </g>
 <g stroke-linecap="round" stroke-linejoin="round">
  <g fill="#808080" stroke-width=".2">
   <path d="m368.5 283.08l6.734-5.6077c0.66861-0.55676 0.47968-1.3404-0.42642-1.7596l-9.2918-4.2986c-0.9556-0.44205-2.2921-0.34082-2.9933 0.22983l-7.0652 5.7496c-0.71393 0.58093-0.48892 1.3951 0.50104 1.8228l9.6229 4.1567c0.93814 0.40527 2.2386 0.27341 2.9188-0.29306" opacity=".997"/>
   <path d="m285.92 329.81l-9.7256-4.7152c-0.83658-0.40552-2.0011-0.3526-2.6128 0.11853l-7.0779 5.4503c-0.61957 0.47708-0.448 1.1952 0.3866 1.6103l9.7035 4.8265c0.85367 0.42459 2.0428 0.37466 2.6644-0.11221l7.1-5.5616c0.61365-0.48071 0.41736-1.2018-0.43814-1.6166" opacity=".997"/>
   <path d="m300.68 255.15l9.3074 4.0152c0.67209 0.28995 0.78418 0.83411 0.24994 1.22l-7.5346 5.4425c-0.54108 0.3909-1.5169 0.46588-2.1864 0.16834l-9.2722-4.1207c-0.65381-0.29053-0.74551-0.83295-0.20697-1.2162l7.4993-5.337c0.53177-0.37843 1.4872-0.45523 2.1435-0.17209" opacity=".997"/>
   <path d="m256.57 320.28l11.388 5.6702c0.82874 0.41269 1.0488 1.0902 0.49039 1.5191l-7.9496 6.1061c-0.57632 0.44266-1.7116 0.45221-2.5424 0.021576l-11.412-5.9154c-0.79823-0.41379-0.97328-1.0887-0.39539-1.5134l7.9742-5.8609c0.56027-0.4118 1.6505-0.42404 2.4474-0.027283" opacity=".997"/>
   <path d="m231.39 303.58l10.027 5.4661c0.41481 0.22617 0.44444 0.62176 0.067215 0.88742l-8.8847 6.257c-0.3763 0.26498-1.0203 0.30264-1.4448 0.084045l-10.261-5.2846c-0.44604-0.22971-0.49495-0.63455-0.10872-0.90723l9.118-6.4385c0.38716-0.27338 1.0504-0.30182 1.4863-0.064178" opacity=".997"/>
   <path d="m243.71 387.31l-11.386 9.6016c-0.57681 0.48639-1.5495 0.58804-2.1801 0.22732l-12.627-7.2235c-0.62852-0.35956-0.66121-1.0352-0.074173-1.5142l11.588-9.4564c0.5687-0.46408 1.5237-0.55356 2.1422-0.2012l12.424 7.0783c0.62047 0.35346 0.67084 1.0169 0.11212 1.4881" opacity=".997"/>
   <path d="m275.71 338.26l-10.47-5.2179c-0.60764-0.3028-1.5181-0.22177-2.0432 0.18207l-9.1209 7.0158c-0.54604 0.42001-0.49257 1.0122 0.12174 1.3274l10.588 5.4326c0.62891 0.32266 1.5707 0.23349 2.1098-0.19946l9.0038-7.2306c0.51822-0.41608 0.43338-1.0002-0.18838-1.31" opacity=".997"/>
   <path d="m243.72 295.06l9.7221 5.2394c0.51315 0.27655 0.5368 0.77466 0.052673 1.1168l-9.2593 6.5445c-0.48798 0.34491-1.2937 0.39725-1.8062 0.11734l-9.7087-5.3031c-0.50687-0.27686-0.52234-0.77472-0.035034-1.1163l9.2459-6.4808c0.48346-0.33887 1.281-0.39145 1.7886-0.11789" opacity=".997"/>
   <path d="m204.69 378.6l21.46-16.428c1.4988-1.1474 3.2874-1.74 4.0211-1.3365l9.9509 5.4729c0.7394 0.40665 0.1709 1.6774-1.2852 2.8573l-20.854 16.899c-1.6367 1.3263-3.5962 2.0462-4.3808 1.6044l-10.557-5.9436c-0.77815-0.43814-0.038681-1.8361 1.6451-3.1251" opacity=".997"/>
   <path d="m233.48 352.32l-11.298-6.0204c-0.89099-0.47479-2.1171-0.4729-2.752 0.004211l-8.0573 6.0539c-0.65402 0.49139-0.46178 1.2826 0.43407 1.7742l11.363 6.2342c0.922 0.50583 2.1892 0.50336 2.8381-0.005524l7.9925-6.2677c0.6297-0.4938 0.39636-1.2844-0.52011-1.7728" opacity=".997"/>
   <path d="m224.46 338.89l-10.404-5.3765c-0.74026-0.38251-1.8142-0.35272-2.4108 0.068451l-8.6589 6.1124c-0.63997 0.45172-0.53845 1.139 0.23074 1.5392l10.812 5.6252c0.77383 0.40268 1.8902 0.34677 2.5001-0.12344l8.2511-6.3612c0.5684-0.4382 0.4245-1.0995-0.32007-1.4842" opacity=".997"/>
   <path d="m195.08 329.26l10.611 5.6041c0.51532 0.27216 0.58534 0.73871 0.15646 1.0464l-8.9568 6.428c-0.44254 0.31757-1.2221 0.35104-1.7474 0.074615l-10.816-5.6927c-0.5269-0.27731-0.58621-0.75311-0.13353-1.0664l9.1614-6.3394c0.43863-0.3035 1.2075-0.32779 1.7244-0.054749" opacity=".997"/>
   <path d="m267.46 367.42l-8.6811 7.3c-0.55045 0.46283-1.5978 0.46359-2.3431 0.003387l-11.342-7.0022c-0.67188-0.4148-0.78172-1.0924-0.25072-1.5207l8.3828-6.7619c0.51511-0.4155 1.4819-0.4425 2.1722-0.059265l11.64 6.4643c0.76422 0.42444 0.95456 1.1282 0.4216 1.5764" opacity=".997"/>
   <path d="m304.03 279.13l-8.75-4.4311c-0.87769-0.44449-2.1292-0.4089-2.8084 0.081635l-6.9368 5.0104c-0.71057 0.51321-0.55679 1.2952 0.34717 1.7512l9.0118 4.5461c0.90097 0.4545 2.1786 0.39609 2.8623-0.12891l6.675-5.1253c0.65356-0.50186 0.47369-1.261-0.40109-1.704" opacity=".997"/>
   <path d="m293.7 287.17l-9.3468-4.6405c-0.82367-0.40894-1.9908-0.37485-2.615 0.076996l-7.1521 5.1775c-0.62009 0.44891-0.44943 1.133 0.3808 1.5332l9.4215 4.542c0.80896 0.39002 1.9528 0.34903 2.5665-0.091339l7.0774-5.079c0.61762-0.44324 0.47015-1.1204-0.3324-1.5188" opacity=".997"/>
   <path d="m354.05 279.88l10.847 4.6429c0.68088 0.29147 0.84818 0.83774 0.37231 1.2238l-7.8854 6.3962c-0.47806 0.38776-1.398 0.45029-2.06 0.1413l-10.545-4.9216c-0.61466-0.2869-0.7374-0.81561-0.27771-1.1865l7.5833-6.1174c0.45773-0.3692 1.3332-0.44931 1.9656-0.17868" opacity=".997"/>
   <path d="m260.58 312.32l-10.85-5.2857c-0.59947-0.29205-1.4794-0.24594-1.9752 0.10288l-8.8026 6.1923c-0.50798 0.35736-0.44406 0.89319 0.14571 1.202l10.679 5.5911c0.62862 0.32913 1.5539 0.2926 2.0719-0.08255l8.9734-6.4976c0.50525-0.36591 0.396-0.91126-0.2424-1.2223" opacity=".997"/>
   <path d="m289.88 262.81l9.2849 4.1059c0.66663 0.29477 0.73468 0.87259 0.15118 1.296l-8.2821 6.0088c-0.59857 0.43426-1.6228 0.54077-2.2952 0.23837l-9.3629-4.2114c-0.66388-0.29864-0.71091-0.88281-0.10678-1.3094l8.3601-5.9033c0.58908-0.41596 1.5923-0.51602 2.2508-0.22485" opacity=".997"/>
   <path d="m278.02 271.26l9.4206 4.0831c0.6825 0.29581 0.76935 0.86853 0.1925 1.2843l-8.2056 5.914c-0.59433 0.42831-1.6252 0.52481-2.3091 0.2161l-9.4368-4.2602c-0.66309-0.29935-0.71576-0.87494-0.12039-1.2903l8.2218-5.7369c0.57816-0.40344 1.5749-0.49701 2.237-0.21002" opacity=".997"/>
   <path d="m312.56 246.53l10.003 4.2557c0.42624 0.18134 0.46457 0.54926 0.08493 0.82552l-9.2422 6.726c-0.40466 0.2945-1.0851 0.37958-1.5245 0.19012l-10.31-4.4448c-0.43509-0.18756-0.44788-0.56941-0.029785-0.85559l9.5496-6.5368c0.3923-0.26851 1.0472-0.33966 1.4693-0.16006" opacity=".997"/>
   <path d="m244.91 328.43l12.419 6.3387c0.55216 0.28183 0.67706 0.75226 0.27972 1.0548l-9.0305 6.877c-0.4027 0.30667-1.1738 0.32407-1.7284 0.03891l-12.475-6.4139c-0.55061-0.28314-0.66736-0.75528-0.26213-1.0586l9.0866-6.8017c0.39981-0.29929 1.1627-0.31497 1.7108-0.035187" opacity=".997"/>
   <path d="m266.15 279.21l10.04 4.5691c0.50598 0.23029 0.57477 0.664 0.15271 0.97296l-8.6816 6.3554c-0.444 0.32504-1.2174 0.39316-1.7326 0.15228l-10.22-4.778c-0.50398-0.2356-0.54379-0.67865-0.090759-0.99286l8.8613-6.1465c0.43091-0.29889 1.1754-0.35767 1.6706-0.13232" opacity=".997"/>
   <path d="m201.18 356.64l-11.096-5.9759c-0.64102-0.34524-1.8598-0.1185-2.7361 0.50949l-15.35 11.001c-0.92659 0.664-1.1562 1.4963-0.51125 1.865l11.17 6.3828c0.6666 0.38092 1.949 0.13187 2.8716-0.5571l15.275-11.408c0.87157-0.65091 1.0377-1.4609 0.37585-1.8173" opacity=".997"/>
   <path d="m182.71 337.43l11.451 6.0142c0.37724 0.19815 0.42616 0.54459 0.10889 0.77658l-10.015 7.3245c-0.3261 0.23856-0.89023 0.26321-1.264 0.055481l-11.342-6.303c-0.35504-0.1973-0.38069-0.54044-0.058197-0.76944l9.9064-7.0356c0.31393-0.22299 0.85478-0.25095 1.2134-0.062622" opacity=".997"/>
   <path d="m212.7 347.76l-10.675-5.6481c-0.78223-0.41391-1.893-0.38797-2.4921 0.057983l-8.1494 6.0669c-0.60739 0.45221-0.46841 1.1564 0.31316 1.579l10.666 5.7679c0.79747 0.43124 1.9303 0.40732 2.5384-0.053864l8.158-6.1867c0.59959-0.45474 0.43858-1.1608-0.35948-1.5831" opacity=".997"/>
   <path d="m245.05 343.25l-11.235-5.7696c-0.87038-0.44699-2.0789-0.42166-2.7144 0.055878l-8.0574 6.0539c-0.65344 0.49097-0.49071 1.2661 0.36966 1.7391l11.112 6.1084c0.91802 0.50464 2.1957 0.49435 2.8595-0.024353l8.1801-6.3928c0.64487-0.50397 0.41293-1.2941-0.51471-1.7705" opacity=".997"/>
   <path d="m222.1 361.43l-11.807-6.217c-0.83138-0.43774-2.5418-0.01413-3.8398 0.95181l-18.619 13.855c-1.3598 1.0119-1.7879 2.2031-0.95467 2.6688l11.838 6.6157c0.85634 0.47852 2.6434 0.023621 4.0015-1.0178l18.588-14.253c1.2954-0.99335 1.6469-2.1533 0.79315-2.6029" opacity=".997"/>
   <path d="m219.71 311.97l10.127 5.2648c0.49388 0.25678 0.54272 0.72842 0.10796 1.0585l-9.295 7.0573c-0.47017 0.35696-1.2643 0.42834-1.7789 0.15894l-10.549-5.523c-0.51157-0.26785-0.52637-0.76123-0.034912-1.1051l9.7177-6.7991c0.45459-0.31805 1.2147-0.36774 1.7059-0.11237" opacity=".997"/>
   <path d="m251.57 357.34l-10.653-5.4307c-0.64595-0.32925-1.5644-0.27319-2.061 0.12479l-7.9524 6.3711c-0.49559 0.39703-0.38962 0.991 0.23938 1.3328l10.373 5.6362c0.66588 0.36179 1.6166 0.3241 2.1296-0.085754l8.2322-6.5768c0.51422-0.4108 0.37596-1.0231-0.30794-1.3717" opacity=".997"/>
   <path d="m255.27 377.58l-8.0403 6.6915c-0.8163 0.67929-2.3074 0.75223-3.3468 0.15884l-10.726-6.1235c-1.11-0.63376-1.3073-1.7089-0.43817-2.4054l8.5559-6.8574c0.84474-0.67697 2.378-0.69421 3.4342-0.04361l10.21 6.2894c0.99007 0.60989 1.145 1.6292 0.35069 2.2902" opacity=".997"/>
   <path d="m278.62 358.08l-7.788 6.5615c-0.68503 0.57712-1.9876 0.61966-2.9199 0.094025l-10.756-6.0636c-0.93884-0.52933-1.1301-1.4172-0.42947-1.9897l7.9652-6.5076c0.68512-0.55972 1.9795-0.58713 2.9029-0.062622l10.578 6.0097c0.91696 0.52097 1.1163 1.3938 0.44641 1.9583" opacity=".997"/>
   <path d="m263.5 347.9l-10.547-5.3225c-0.63069-0.3183-1.5546-0.2562-2.0738 0.14004l-8.8407 6.7468c-0.55086 0.42038-0.47684 1.0291 0.1685 1.364l10.796 5.6023c0.66087 0.34296 1.6261 0.26562 2.1617-0.17239l8.592-7.0265c0.50433-0.41248 0.38895-1.006-0.25644-1.3317" opacity=".997"/>
   <path d="m207.05 321l10.298 5.3217c0.59038 0.30512 0.67442 0.83493 0.18764 1.1881l-8.6377 6.2668c-0.49823 0.36145-1.3791 0.40195-1.9742 0.090485l-10.379-5.4317c-0.58849-0.30801-0.65669-0.84204-0.15382-1.1971l8.719-6.1568c0.49142-0.34702 1.3565-0.38327 1.9404-0.081482" opacity=".997"/>
   <path d="m248.21 320.92l-10.668-5.4643c-0.75601-0.38724-1.8523-0.35416-2.4599 0.074738l-8.6599 6.1131c-0.62851 0.44366-0.51927 1.1221 0.24683 1.5208l10.812 5.6252c0.77692 0.40424 1.9016 0.36258 2.5197-0.092834l8.5159-6.274c0.5974-0.44012 0.45979-1.1101-0.30666-1.5027" opacity=".997"/>
   <path d="m236.04 329.9l-10.404-5.3765c-0.74023-0.38251-1.8143-0.35272-2.4109 0.068451l-8.6588 6.1124c-0.63995 0.45175-0.53841 1.139 0.23073 1.5392l10.812 5.6253c0.77386 0.40268 1.8902 0.34674 2.5001-0.12344l8.2511-6.3612c0.56842-0.4382 0.4245-1.0995-0.32007-1.4842" opacity=".997"/>
   <path d="m346.3 301.32l8.4556-7.0056c0.35278-0.2923 0.24268-0.71072-0.24548-0.93805l-11.206-5.2182c-0.46256-0.21539-1.1162-0.16339-1.4668 0.11646l-8.4002 6.7044c-0.36188 0.28888-0.2839 0.70462 0.17612 0.93234l11.15 5.5194c0.48599 0.24057 1.1718 0.19125 1.5362-0.11069" opacity=".997"/>
   <path d="m323.7 249.84l-9.8304-4.1958c-0.42874-0.18298 0.048462-0.90463 1.0634-1.614l21.243-14.848c0.87274-0.61002 1.9005-0.97147 2.3096-0.81363l9.3684 3.6149c0.42099 0.16248 0.077698 0.80019-0.77502 1.4332l-20.781 15.428c-0.99411 0.73801-2.1558 1.1836-2.5981 0.99487" opacity=".997"/>
   <path d="m181.53 352.34l-10.892-6.0094c-0.53711-0.29636-1.426-0.20664-1.9934 0.20093l-11.392 8.183c-0.5686 0.40839-0.59947 0.97989-0.068649 1.2816l10.764 6.1176c0.54257 0.30838 1.4428 0.22369 2.0178-0.19016l11.521-8.2913c0.57382-0.4129 0.59331-0.98944 0.044266-1.2924" opacity=".997"/>
   <path d="m374.79 242.46s-21.736-8.4363-21.736-8.4363c-1.4894-0.57811-3.3786-0.55641-4.2126 0.059738l-14.537 10.74c-0.87314 0.64514-1.0513 1.1997 0.64166 1.671l8.2644 3.3775c1.3369 0.5464 1.3343 0.57466 2.4952-0.27133l1.5471-1.1274c0.33832-0.24652 1.3522-0.34213 2.4392 0.12627l11.197 4.8242c1.2349 0.34372 2.3075 0.44836 3.0046-0.09935l11.649-9.1524c0.67081-0.52704 0.34116-1.2877-0.75333-1.7125"/>
   <path d="m319.71 303.47l-10.372-4.7809c-0.53357-0.24594-1.2928-0.18631-1.7036 0.13358l-7.892 6.1461c-0.41785 0.32541-0.32913 0.79306 0.20023 1.0488l10.291 4.9716c0.55139 0.26639 1.3362 0.21082 1.7584-0.12476l7.9726-6.3368c0.41486-0.32974 0.30051-0.80158-0.25507-1.0576" opacity=".997"/>
   <path d="m272.78 303.03l-10.063-4.9654c-0.74979-0.36993-1.8865-0.28815-2.5489 0.1842l-9.0265 6.4372c-0.6739 0.48062-0.60249 1.1661 0.16022 1.5361l10.236 4.9656c0.75259 0.36505 1.8907 0.27142 2.5516-0.20914l8.8532-6.4374c0.64963-0.47238 0.57696-1.146-0.16296-1.5111" opacity=".997"/>
   <path d="m268.09 311.81l10.954 5.3799c0.88614 0.43515 1.1077 1.1708 0.49426 1.6498l-7.788 6.08c-0.63245 0.49374-1.8632 0.5293-2.7569 0.079407l-11.046-5.5604c-0.87329-0.43964-1.0592-1.1794-0.41943-1.6583l7.8796-5.8995c0.62079-0.46484 1.816-0.49625 2.6822-0.070892" opacity=".997"/>
   <path d="m254.76 287.56l9.5281 4.3798c0.72702 0.33414 0.87653 0.93308 0.32727 1.3414l-7.9244 5.8911c-0.58212 0.4328-1.6248 0.4733-2.3296 0.09259l-9.216-4.9786c-0.61385-0.33164-0.65335-0.90973-0.095337-1.2976l7.6126-5.292c0.52884-0.36762 1.4613-0.42908 2.0973-0.13669" opacity=".997"/>
   <path d="m365.58 267.35l21.872-17.67c1.0219-0.82561 1.4592-1.638 0.98498-1.8237l-9.4624-3.7064c-0.44672-0.17499-1.6143 0.31897-2.6222 1.1096l-21.542 16.899c-1.0893 0.85452-1.6234 1.7142-1.1928 1.9254l9.1329 4.4778c0.45828 0.22464 1.7228-0.31674 2.8302-1.2115" opacity=".997"/>
   <path d="m314.79 271.29l-8.7305-4.1629c-0.84784-0.40424-2.0666-0.34537-2.7398 0.13217l-6.907 4.8994c-0.71072 0.50415-0.60464 1.262 0.24539 1.6993l8.7624 4.5075c0.90594 0.46606 2.212 0.40634 2.9201-0.13388l6.8749-5.244c0.66934-0.51056 0.47614-1.2677-0.42551-1.6976" opacity=".997"/>
   <path d="m297.73 320.61l-9.9502-4.8072c-0.73337-0.35431-1.8119-0.25873-2.4192 0.21463l-8.2759 6.4501c-0.6178 0.48154-0.52206 1.1595 0.21561 1.5198l10.01 4.8887c0.74405 0.36334 1.8377 0.26306 2.4511-0.22449l8.2166-6.5315c0.60306-0.47937 0.49225-1.1526-0.24738-1.51" opacity=".997"/>
   <path d="m293.22 308.29l7.1395-5.5048c0.56555-0.43604 0.31598-1.1274-0.55814-1.5501l-10.856-5.2512c-0.86249-0.41718-2.0153-0.40872-2.5862 0.019135l-7.206 5.4007c-0.58188 0.4361-0.35294 1.1298 0.51477 1.5552l10.923 5.3552c0.87958 0.43121 2.053 0.42032 2.6295-0.02417" opacity=".997"/>
   <path d="m303.93 300l7.2717-5.7618c0.70248-0.55664 0.45187-1.385-0.55563-1.8594l-9.9296-4.6762c-0.98144-0.46216-2.3575-0.41135-3.0916 0.11597l-7.5945 5.4554c-0.78806 0.56607-0.6127 1.4199 0.40006 1.9121l10.252 4.9826c1.0409 0.5058 2.4922 0.4295 3.2472-0.16873" opacity=".997"/>
   <path d="m329.23 295.1l-9.3165-4.3435c-0.69345-0.32327-1.6553-0.26831-2.158 0.12494l-7.0097 5.4834c-0.53546 0.41885-0.38562 1.0255 0.33756 1.3582l9.7147 4.4698c0.7149 0.32898 1.6982 0.24734 2.2031-0.18112l6.6116-5.6097c0.47434-0.4024 0.30304-0.98233-0.38278-1.3021" opacity=".997"/>
   <path d="m339.73 286.57l-9.0667-4.0832c-0.71158-0.3205-1.7491-0.21701-2.329 0.23169l-7.331 5.6738c-0.59286 0.45883-0.5025 1.0978 0.20523 1.4328l9.0205 4.2699c0.73535 0.34808 1.8102 0.24689 2.4069-0.22717l7.3773-5.8606c0.58334-0.46344 0.45587-1.1046-0.28314-1.4374" opacity=".997"/>
   <path d="m314.99 291.33l7.1023-5.5262c0.70224-0.54642 0.40726-1.3572-0.65204-1.8155l-10.12-4.3784c-0.96979-0.41952-2.2912-0.34454-2.9711 0.16623l-6.8709 5.1621c-0.69641 0.52322-0.50128 1.3083 0.44562 1.7624l9.8886 4.7423c1.0358 0.49674 2.4572 0.44745 3.1775-0.11304" opacity=".997"/>
   <path d="m282.76 316.3l7.2607-5.5982c0.53226-0.41037 0.2973-1.061-0.52542-1.459l-11.041-5.3404c-0.81171-0.39264-1.8966-0.3847-2.4339 0.017944l-7.3284 5.4925c-0.54767 0.41049-0.33228 1.0634 0.48438 1.4637l11.108 5.4462c0.82782 0.40591 1.9322 0.39569 2.4749-0.022736" opacity=".997"/>
   <path d="m308.92 311.47l-9.5963-4.5942c-0.75928-0.36352-1.8776-0.26175-2.5096 0.2283l-7.9835 6.1914c-0.64523 0.5003-0.55402 1.2047 0.20642 1.5792l9.6126 4.7336c0.77725 0.38278 1.9231 0.2789 2.567-0.23282l7.9672-6.3308c0.63055-0.50104 0.5119-1.2033-0.26388-1.5748" opacity=".997"/>
   <path d="m283.06 294.72l-9.2368-4.4715c-0.90903-0.44003-2.1941-0.38809-2.8848 0.11588l-6.9501 5.0711c-0.70138 0.51175-0.54214 1.2897 0.36054 1.745l9.1737 4.6271c0.93503 0.47162 2.2606 0.42718 2.9685-0.1004l7.0132-5.2266c0.69687-0.51935 0.4971-1.3048-0.44421-1.7605" opacity=".997"/>
   <path d="m343 271.37l7.2757-5.6582c0.71912-0.5592 1.9376-0.69754 2.7346-0.31094l8.0171 3.8892c0.80878 0.3923 0.88837 1.167 0.17587 1.7378l-7.2101 5.7753c-0.73169 0.58618-1.9794 0.73322-2.795 0.32901l-8.0827-4.0063c-0.80344-0.39825-0.85376-1.1817-0.11545-1.7559" opacity=".997"/>
   <path d="m333.9 257.11l-8.5132-3.8694c-0.85938-0.39064-2.0188-0.36427-2.5998 0.060699l-5.887 4.3062c-0.5983 0.43762-0.37073 1.108 0.51047 1.5013l8.7274 3.8962c0.86679 0.38696 2.0289 0.3428 2.6054-0.097473l5.6728-4.333c0.55984-0.42764 0.32956-1.0802-0.51608-1.4646" opacity=".997"/>
   <path d="m355.2 260.17l5.3362-4.1544c0.52927-0.41206 0.15146-1.0787-0.84198-1.4935l-9.6656-4.0358c-0.94312-0.39381-2.1202-0.39249-2.6437 0.001831l-5.2774 3.9748c-0.53345 0.40176-0.21234 1.0553 0.72479 1.4666l9.6067 4.2155c0.98767 0.43344 2.2214 0.44513 2.761 0.025146" opacity=".997"/>
   <path d="m346.3 267.05l5.783-4.4388c0.57669-0.44269 0.25888-1.1307-0.71298-1.5432l-9.7479-4.1378c-0.98053-0.41629-2.2412-0.39523-2.8262 0.047699l-5.8664 4.4419c-0.58994 0.44669-0.26846 1.1417 0.72049 1.5576l9.8312 4.1348c0.9801 0.41223 2.2371 0.38419 2.8187-0.062164" opacity=".997"/>
   <path d="m341.38 251.16l-8.6283-3.4201c-0.80823-0.32033-1.8233-0.30646-2.286 0.028793l-4.7091 3.4127c-0.48071 0.34839-0.24066 0.91364 0.54825 1.2701l8.4362 3.8119c0.90506 0.40894 2.0472 0.42773 2.5483 0.038666l4.9009-3.8049c0.48071-0.3732 0.11386-0.97089-0.81024-1.3371" opacity=".997"/>
   <path d="m324.77 263.91l-8.6726-3.9316c-0.8425-0.38193-2.0239-0.33347-2.654 0.1076l-6.3629 4.4531c-0.64435 0.45096-0.49896 1.1383 0.33121 1.5424l8.5491 4.1614c0.88303 0.42984 2.1276 0.39499 2.7847-0.079407l6.4863-4.683c0.64215-0.46365 0.43359-1.1646-0.46182-1.5705" opacity=".997"/>
   <path d="m349.98 278.16l-8.1382-3.9832c-0.82748-0.405-2.0522-0.30164-2.7456 0.23404l-7.0277 5.4294c-0.71439 0.55191-0.5997 1.3218 0.25668 1.7238l8.4199 3.9529c0.83026 0.38974 2.0502 0.26001 2.7357-0.28864l6.746-5.3991c0.66574-0.53287 0.55585-1.2763-0.24686-1.6692" opacity=".997"/>
   <path d="m325.77 282.91l6.6765-5.1292c0.6629-0.50925 0.37961-1.2698-0.6318-1.7047l-9.9506-4.2798c-0.98181-0.4223-2.3019-0.36307-2.9631 0.13245l-6.6582 4.9901c-0.67246 0.50394-0.42767 1.2604 0.55218 1.6963l9.9324 4.4189c1.0097 0.44922 2.3682 0.39407 3.0426-0.12402" opacity=".997"/>
   <path d="m336.02 274.99l6.8152-5.2678c0.6749-0.52167 0.4075-1.2798-0.5958-1.6996l-9.8671-4.129c-0.97321-0.40726-2.2977-0.32736-2.9733 0.17899l-6.8207 5.1119c-0.69052 0.51755-0.46573 1.2743 0.50781 1.6968l9.8727 4.2849c1.0041 0.43579 2.3711 0.35724 3.0612-0.17621" opacity=".997"/>
  </g>
  <g fill="#4d4d4d">
   <g stroke-width=".2">
    <path d="m241.39 385.77l-9.379 7.9094c-0.47514 0.4007-1.2764 0.48444-1.7958 0.18729l-10.401-5.9504c-0.51773-0.29626-0.54468-0.85275-0.061111-1.2474l9.5458-7.7899c0.46844-0.38232 1.2552-0.45602 1.7646-0.16574l10.234 5.8308c0.51111 0.29123 0.5526 0.83777 0.092377 1.2259" opacity=".997"/>
    <path d="m206.21 376.99l19.533-14.953c1.3642-1.0443 2.9921-1.5836 3.6599-1.2164l9.0572 4.9814c0.67294 0.37012 0.15552 1.5267-1.1698 2.6007l-18.981 15.381c-1.4896 1.2071-3.2732 1.8624-3.9873 1.4604l-9.6089-5.4098c-0.7083-0.39883-0.035217-1.6713 1.4973-2.8445" opacity=".997"/>
    <path d="m220.35 360.79l-10.632-5.5984c-0.74867-0.39423-2.2889-0.012726-3.4578 0.85712l-16.766 12.476c-1.2245 0.91119-1.61 1.9839-0.8597 2.4033l10.66 5.9574c0.77116 0.43097 2.3804 0.021393 3.6033-0.91644l16.738-12.835c1.1665-0.8945 1.483-1.9391 0.7142-2.3439" opacity=".997"/>
    <path d="m199.23 355.83l-9.6301-5.1866c-0.55635-0.29962-1.6142-0.10294-2.3748 0.44223l-13.323 9.5479c-0.80421 0.57636-1.0035 1.2988-0.44371 1.6187l9.6948 5.5398c0.57855 0.33063 1.6916 0.11441 2.4923-0.48352l13.258-9.9012c0.75647-0.56494 0.90059-1.2679 0.3262-1.5773" opacity=".997"/>
    <path d="m179.86 351.49l-9.3996-5.186c-0.46356-0.25577-1.2306-0.17831-1.7203 0.1734l-9.8316 7.0617c-0.49071 0.35251-0.51733 0.84564-0.059235 1.106l9.2889 5.2794c0.46823 0.26614 1.2451 0.19308 1.7413-0.16406l9.9423-7.1552c0.49519-0.35638 0.51201-0.85391 0.038193-1.1153" opacity=".997"/>
    <path d="m254.12 376.66l-7.2224 6.0107c-0.73329 0.61029-2.0726 0.67578-3.0063 0.1427l-9.6348-5.5006c-0.99716-0.56921-1.1743-1.535-0.39358-2.1607l7.6855-6.1597c0.7588-0.60815 2.1361-0.62357 3.0848-0.039215l9.1717 5.6497c0.88933 0.54782 1.0285 1.4634 0.31502 2.0572" opacity=".997"/>
    <path d="m266.21 366.5l-7.7185 6.4906c-0.48938 0.41144-1.4206 0.41214-2.0832 0.002899l-10.084-6.2257c-0.59738-0.36877-0.69504-0.97122-0.22292-1.3521l7.4534-6.0122c0.45799-0.36942 1.3176-0.39346 1.9313-0.052673l10.349 5.7476c0.67944 0.37735 0.84866 1.0031 0.37482 1.4016" opacity=".997"/>
    <path d="m277.36 357.12l-6.8912 5.806c-0.60611 0.51068-1.7587 0.54822-2.5836 0.083221l-9.517-5.3654c-0.83072-0.46832-0.99997-1.254-0.37997-1.7605l7.0479-5.7583c0.60626-0.49527 1.7516-0.51956 2.5687-0.055359l9.3602 5.3177c0.81134 0.46094 0.98779 1.2333 0.39496 1.7327" opacity=".997"/>
    <path d="m250.28 356.62l-9.2995-4.7407c-0.56389-0.28742-1.3656-0.23846-1.7992 0.10892l-6.942 5.5617c-0.4326 0.34656-0.3401 0.86505 0.20897 1.1634l9.0552 4.9202c0.58131 0.31586 1.4112 0.2829 1.8591-0.07486l7.1863-5.7412c0.44887-0.35858 0.32817-0.89313-0.26884-1.1975" opacity=".997"/>
    <path d="m232.35 351.65l-10.116-5.3906c-0.79778-0.42511-1.8956-0.42343-2.4641 0.003723l-7.2143 5.4206c-0.5856 0.43997-0.41348 1.1485 0.38866 1.5885l10.174 5.5819c0.82552 0.45294 1.9601 0.45068 2.5412-0.004944l7.1563-5.6119c0.56383-0.44214 0.3549-1.1501-0.4657-1.5874" opacity=".997"/>
    <path d="m182.74 337.42l10.135 5.3232c0.33391 0.17532 0.37721 0.4819 0.09639 0.68729l-8.8639 6.4828c-0.28864 0.21106-0.78793 0.23297-1.1188 0.049103l-10.039-5.5788c-0.31426-0.17459-0.33691-0.47827-0.051529-0.68094l8.768-6.2272c0.27788-0.19733 0.75656-0.22205 1.0739-0.05542" opacity=".997"/>
    <path d="m211.55 347.1l-9.5004-5.0268c-0.69617-0.36832-1.6848-0.34534-2.2179 0.051575l-7.2529 5.3995c-0.54057 0.40247-0.41686 1.0292 0.2787 1.4053l9.4927 5.1334c0.70975 0.38382 1.718 0.36249 2.2591-0.047913l7.2605-5.5061c0.53365-0.40469 0.39032-1.0332-0.3199-1.409" opacity=".997"/>
    <path d="m223.28 338.26l-9.2436-4.7768c-0.65767-0.33984-1.6119-0.31335-2.1419 0.060791l-7.6932 5.4307c-0.56859 0.40137-0.47838 1.012 0.205 1.3676l9.6059 4.9978c0.68755 0.35773 1.6794 0.30804 2.2212-0.10971l7.3309-5.6517c0.50502-0.38937 0.37714-0.97684-0.28438-1.3187" opacity=".997"/>
    <path d="m195.07 329.25l9.5704 5.0544c0.46477 0.24545 0.52794 0.66623 0.14114 0.94379l-8.0783 5.7975c-0.39911 0.28644-1.1022 0.31665-1.5759 0.067322l-9.755-5.1343c-0.47525-0.25012-0.52872-0.6792-0.12045-0.9617l8.2628-5.7176c0.39562-0.27377 1.089-0.29559 1.5553-0.049347" opacity=".997"/>
    <path d="m207.04 320.97l9.183 4.7456c0.52646 0.27206 0.60147 0.74448 0.16733 1.0595l-7.7026 5.5884c-0.4443 0.32233-1.2298 0.3584-1.7605 0.080688l-9.2556-4.8437c-0.5248-0.27466-0.5856-0.75079-0.13718-1.0675l7.7752-5.4903c0.43825-0.30942 1.2096-0.34177 1.7304-0.072662" opacity=".997"/>
    <path d="m219.65 311.95l9.2381 4.8029c0.45058 0.23422 0.49513 0.66449 0.098526 0.96564l-8.4795 6.4381c-0.42891 0.32562-1.1534 0.39072-1.6228 0.14499l-9.6238-5.0385c-0.4667-0.24429-0.48021-0.6943-0.03186-1.0081l8.8651-6.2025c0.4147-0.29019 1.1082-0.33551 1.5562-0.10254" opacity=".997"/>
    <path d="m235.1 329.4l-9.4922-4.9053c-0.67535-0.34897-1.6552-0.32184-2.1995 0.062408l-7.9001 5.5767c-0.58391 0.4122-0.49123 1.0393 0.2105 1.4044l9.8643 5.1323c0.70604 0.36731 1.7246 0.31638 2.281-0.11267l7.528-5.8037c0.5186-0.39981 0.38728-1.003-0.29204-1.3541" opacity=".997"/>
    <path d="m243.92 342.6l-10.047-5.1598c-0.77837-0.39978-1.8591-0.37708-2.4275 0.049988l-7.2057 5.4141c-0.58437 0.43903-0.43886 1.1323 0.33061 1.5552l9.9372 5.4628c0.82094 0.45132 1.9636 0.44208 2.5572-0.02182l7.3155-5.717c0.57671-0.45071 0.36935-1.1573-0.46024-1.5834" opacity=".997"/>
    <path d="m262.35 347.3l-9.4029-4.745c-0.56229-0.28369-1.3859-0.22833-1.8487 0.12482l-7.8815 6.0148c-0.49109 0.37479-0.42508 0.91748 0.15021 1.216l9.6246 4.9944c0.58917 0.30576 1.4497 0.23685 1.9272-0.15369l7.6597-6.264c0.44962-0.36771 0.34677-0.89688-0.22855-1.1873" opacity=".997"/>
   </g>
   <path d="m270.29 345.62l59.526-47.751c0.71072-0.56525 2.1774-0.57696 3.2919-0.026764l7.9179 3.8845c1.1314 0.55853 1.4807 1.474 0.77969 2.0532l-58.625 49.119c-0.87216 0.72058-2.5478 0.75708-3.7525 0.080994l-8.5954-4.8922c-1.1848-0.66486-1.4246-1.7656-0.54233-2.4674" stroke-width=".7"/>
   <g stroke-width=".2">
    <path d="m274.55 337.67l-9.3395-4.6543c-0.54202-0.27011-1.3541-0.19784-1.8224 0.16238l-8.1358 6.258c-0.48703 0.3746-0.43933 0.90292 0.1086 1.184l9.444 4.8458c0.56091 0.28781 1.401 0.20825 1.8819-0.17789l8.0313-6.4496c0.46222-0.37118 0.38657-0.89212-0.168-1.1685" opacity=".997"/>
    <path d="m231.37 303.57l9.0887 4.9545c0.37599 0.20496 0.40283 0.56351 0.060898 0.80429l-8.0531 5.6714c-0.3411 0.2402-0.92482 0.27432-1.3096 0.076202l-9.3002-4.79c-0.4043-0.20822-0.44859-0.57516-0.098526-0.82233l8.2645-5.8358c0.35092-0.2478 0.95212-0.27356 1.3472-0.058197" opacity=".997"/>
    <path d="m246.93 320.24l-9.3929-4.8114c-0.66568-0.341-1.631-0.31183-2.166 0.065796l-7.625 5.3826c-0.55336 0.39059-0.45718 0.98804 0.21741 1.339l9.5196 4.953c0.68408 0.35596 1.6743 0.31924 2.2186-0.081726l7.4982-5.5242c0.52602-0.38757 0.40488-0.97745-0.26999-1.3231" opacity=".997"/>
    <path d="m245.01 328.41l11.019 5.624c0.48984 0.25 0.60071 0.66739 0.24814 0.93588l-8.0121 6.1016c-0.35736 0.27212-1.0415 0.28757-1.5336 0.034515l-11.068-5.6907c-0.48852-0.25116-0.5921-0.6701-0.23254-0.93924l8.062-6.0348c0.35474-0.26553 1.0316-0.27939 1.5179-0.031189" opacity=".997"/>
    <path d="m256.65 320.25s10.121 5.0396 10.121 5.0396c0.7366 0.36676 0.93213 0.96899 0.43588 1.3502l-7.0656 5.4271c-0.51224 0.39343-1.5213 0.40189-2.2597 0.019196l-10.143-5.2577c-0.70949-0.36774-0.86505-0.96759-0.3514-1.3451l7.0874-5.2092c0.49797-0.36603 1.467-0.37683 2.1752-0.024231" opacity=".997"/>
    <path d="m285 329.33l-8.7841-4.2587c-0.75552-0.3663-1.8073-0.31851-2.3599 0.107l-6.3927 4.9227c-0.55957 0.43088-0.4046 1.0795 0.34915 1.4544l8.7641 4.3593c0.771 0.38348 1.8451 0.33838 2.4065-0.10141l6.4126-5.0232c0.55429-0.43417 0.37698-1.0854-0.39569-1.46" opacity=".997"/>
    <path d="m243.66 295.05l8.8376 4.7628c0.46651 0.2514 0.48802 0.70422 0.047928 1.0153l-8.417 5.9491c-0.44357 0.31354-1.1761 0.36112-1.6419 0.10666l-8.8255-4.8206c-0.46075-0.25171-0.47481-0.70428-0.03183-1.0148l8.4048-5.8913c0.4395-0.30804 1.1645-0.35584 1.6259-0.10718" opacity=".997"/>
    <path d="m259.44 311.73l-9.6945-4.723c-0.53561-0.26092-1.3218-0.21976-1.7649 0.09198l-7.8655 5.533c-0.45389 0.31928-0.3968 0.7981 0.13017 1.074l9.5418 4.9959c0.56169 0.29407 1.3884 0.26141 1.8514-0.073792l8.0181-5.8059c0.45148-0.32687 0.35385-0.81421-0.21658-1.0921" opacity=".997"/>
    <path d="m268.13 311.78l9.8134 4.8195c0.79379 0.38983 0.99234 1.0489 0.44275 1.4779l-6.9768 5.4468c-0.56659 0.44226-1.6692 0.47418-2.4698 0.071167l-9.8955-4.9812c-0.78235-0.39386-0.94891-1.0565-0.37576-1.4857l7.0589-5.2851c0.55615-0.41635 1.6268-0.44452 2.4028-0.063446" opacity=".997"/>
    <path d="m296.73 320.12l-8.9724-4.3348c-0.66132-0.31952-1.6338-0.23334-2.1816 0.19354l-7.4626 5.8162c-0.5571 0.43414-0.4708 1.0455 0.19443 1.3704l9.0259 4.4082c0.67093 0.3277 1.6571 0.2373 2.2102-0.20242l7.4092-5.8896c0.54373-0.43228 0.44379-1.0394-0.22311-1.3616" opacity=".997"/>
    <path d="m282.38 314.9l6.4582-4.9794c0.47339-0.36502 0.2644-0.94373-0.46741-1.2977l-9.8203-4.7501c-0.72198-0.34921-1.687-0.34213-2.1649 0.016022l-6.5184 4.8853c-0.48712 0.36505-0.2955 0.9458 0.43085 1.3019l9.8806 4.8442c0.73636 0.36105 1.7187 0.35193 2.2013-0.020233" opacity=".997"/>
    <path d="m271.82 302.56l-9.1611-4.5205c-0.68259-0.33679-1.7175-0.26233-2.3205 0.16766l-8.2177 5.8604c-0.61351 0.43753-0.54852 1.0616 0.14584 1.3984l9.3189 4.5206c0.68518 0.33234 1.7213 0.2471 2.323-0.19046l8.0599-5.8605c0.59149-0.43005 0.5253-1.0433-0.14832-1.3757" opacity=".997"/>
    <path d="m254.76 287.54l8.6608 3.9812c0.66083 0.30374 0.79672 0.84814 0.29746 1.2193l-7.2031 5.3549c-0.52918 0.39337-1.4769 0.43021-2.1176 0.084106l-8.3771-4.5254c-0.558-0.30145-0.5939-0.82694-0.08667-1.1796l6.9197-4.8102c0.48073-0.33414 1.3283-0.39002 1.9065-0.12427" opacity=".997"/>
    <path d="m282.21 294.29l-8.3984-4.0656c-0.82648-0.40012-1.9949-0.35288-2.6229 0.10535l-6.3192 4.6108c-0.63773 0.4653-0.49295 1.1727 0.32776 1.5866l8.3411 4.2071c0.85013 0.42877 2.0554 0.38837 2.699-0.091278l6.3766-4.7522c0.63361-0.4722 0.45196-1.1863-0.40393-1.6007" opacity=".997"/>
    <path d="m266.13 279.19l8.9598 4.0773c0.45151 0.20544 0.51288 0.59253 0.13629 0.8682l-7.7472 5.6714c-0.39624 0.29001-1.0864 0.35083-1.5461 0.13586l-9.1201-4.2638c-0.44971-0.21027-0.48526-0.60559-0.080994-0.88602l7.9076-5.4849c0.38455-0.26669 1.0489-0.31921 1.4909-0.11813" opacity=".997"/>
    <path d="m308.08 311.07l-8.791-4.2088c-0.69559-0.33298-1.7201-0.23978-2.299 0.20917l-7.3137 5.6719c-0.59106 0.45837-0.50751 1.1037 0.18912 1.4468l8.8061 4.3365c0.71204 0.35068 1.7617 0.25546 2.3516-0.21332l7.2987-5.7996c0.57764-0.45895 0.46896-1.1023-0.24179-1.4426" opacity=".997"/>
    <path d="m292.89 307.11l6.469-4.9878c0.51245-0.39511 0.28632-1.0215-0.50568-1.4046l-9.8368-4.7581c-0.78152-0.37796-1.826-0.3703-2.3433 0.017365l-6.5293 4.8935c-0.52719 0.39508-0.31976 1.0236 0.46646 1.4091l9.8971 4.8523c0.79691 0.39069 1.8601 0.38086 2.3825-0.021912" opacity=".997"/>
    <path d="m318.68 302.95l-9.2811-4.2781c-0.47751-0.22009-1.1569-0.16669-1.5244 0.11957l-7.0621 5.4997c-0.3739 0.2912-0.2945 0.70969 0.1792 0.93851l9.209 4.4488c0.49341 0.23834 1.1957 0.18863 1.5735-0.11166l7.1341-5.6704c0.37128-0.29504 0.26892-0.71726-0.22821-0.94644" opacity=".997"/>
    <path d="m328.22 294.59l-8.273-3.857c-0.61578-0.28708-1.4699-0.23828-1.9163 0.11096l-6.2246 4.8692c-0.47546 0.37195-0.34247 0.91061 0.29977 1.2062l8.6265 3.9692c0.63489 0.29205 1.508 0.21954 1.9564-0.16089l5.871-4.9814c0.42117-0.35736 0.26898-0.87234-0.3399-1.1562" opacity=".997"/>
    <path d="m346.03 299.69l7.421-6.1484c0.3096-0.2565 0.21292-0.62372-0.21545-0.82324l-9.8344-4.5797c-0.40591-0.18903-0.97961-0.14343-1.2874 0.1022l-7.3724 5.884c-0.31757 0.25348-0.24912 0.61838 0.15463 0.81824l9.7857 4.844c0.42651 0.21112 1.0284 0.16785 1.3483-0.097137" opacity=".997"/>
    <path d="m354.13 279.87l9.8125 4.2003c0.616 0.26367 0.76727 0.75787 0.33673 1.1071l-7.1336 5.7864c-0.4325 0.35086-1.2648 0.40741-1.8636 0.12787l-9.5393-4.4524c-0.55603-0.25952-0.66708-0.73779-0.25119-1.0733l6.8603-5.5342c0.41406-0.33404 1.2061-0.40652 1.7782-0.16168" opacity=".997"/>
    <path d="m368.19 281.92l6.0771-5.0606c0.6033-0.50247 0.4328-1.2096-0.38486-1.5879l-8.3852-3.8792c-0.86237-0.39902-2.0684-0.30762-2.7013 0.20737l-6.3759 5.1886c-0.64429 0.52429-0.44119 1.2591 0.45215 1.6449l8.684 3.7512c0.84665 0.36569 2.0202 0.24667 2.6341-0.2645" opacity=".997"/>
    <path d="m277.96 271.23l8.1891 3.5494c0.59329 0.25711 0.66882 0.755 0.16736 1.1164l-7.1329 5.1409c-0.51663 0.37234-1.4128 0.45624-2.0072 0.18784l-8.2032-3.7032c-0.57642-0.26019-0.62222-0.76056-0.10471-1.1217l7.147-4.9869c0.50256-0.35068 1.369-0.43201 1.9446-0.18256" opacity=".997"/>
    <path d="m292.57 286.57l-8.2159-4.0791c-0.72397-0.35944-1.7499-0.32947-2.2986 0.067688l-6.2867 4.5511c-0.54507 0.39456-0.39505 0.99585 0.33466 1.3476l8.2816 3.9925c0.71109 0.34286 1.7166 0.30682 2.256-0.080261l6.2211-4.4644c0.54294-0.38965 0.4133-0.98486-0.29211-1.3351" opacity=".997"/>
    <path d="m303.56 298.62l6.4746-5.1302c0.62549-0.4956 0.40237-1.2331-0.49469-1.6556l-8.8412-4.1636c-0.87387-0.41153-2.0991-0.36627-2.7528 0.10327l-6.762 4.8574c-0.70163 0.50406-0.54553 1.2642 0.3562 1.7024l9.1286 4.4365c0.92676 0.45041 2.219 0.38242 2.8913-0.15021" opacity=".997"/>
    <path d="m314.59 289.84l6.2187-4.8388c0.61487-0.47846 0.35666-1.1883-0.57092-1.5896l-8.8612-3.8337c-0.84912-0.3674-2.0062-0.30173-2.6014 0.14554l-6.0162 4.52c-0.60977 0.4581-0.43896 1.1455 0.39023 1.5432l8.6585 4.1524c0.90692 0.43494 2.1515 0.39178 2.7823-0.098999" opacity=".997"/>
    <path d="m303.2 278.69l-7.944-4.023c-0.79681-0.40353-1.9331-0.37128-2.5497 0.074127l-6.2978 4.5489c-0.64511 0.46591-0.50549 1.1759 0.31522 1.5899l8.1817 4.1274c0.81793 0.41263 1.9779 0.35962 2.5986-0.11706l6.0602-4.6531c0.59341-0.45566 0.43012-1.1448-0.36417-1.547" opacity=".997"/>
    <path d="m338.8 286.14l-8.1476-3.6693c-0.63937-0.28796-1.5718-0.19504-2.0929 0.20828l-6.588 5.0986c-0.53274 0.41232-0.4516 0.98654 0.18448 1.2876l8.1061 3.8371c0.66089 0.31278 1.6267 0.22177 2.1629-0.20419l6.6294-5.2664c0.52426-0.4165 0.40967-0.99264-0.25442-1.2917" opacity=".997"/>
    <path d="m349.15 277.77l-7.3762-3.6103c-0.75-0.36706-1.86-0.27341-2.4885 0.21213l-6.3697 4.9211c-0.64749 0.50021-0.54358 1.1981 0.23264 1.5624l7.6316 3.5828c0.75253 0.3533 1.8582 0.23572 2.4796-0.2616l6.1144-4.8936c0.60346-0.483 0.50382-1.1568-0.22372-1.5129" opacity=".997"/>
    <path d="m325.41 281.74l5.9895-4.6014c0.59467-0.45685 0.34052-1.1391-0.5668-1.5294l-8.9268-3.8394c-0.88083-0.37882-2.0651-0.32571-2.6582 0.11887l-5.9732 4.4766c-0.60321 0.45209-0.38354 1.1306 0.49551 1.5218l8.9104 3.9642c0.90576 0.40302 2.1245 0.35355 2.7296-0.11124" opacity=".997"/>
    <path d="m313.94 270.87l-7.9137-3.7734c-0.76849-0.36646-1.8732-0.31308-2.4835 0.11978l-6.2607 4.441c-0.64423 0.45697-0.5481 1.144 0.22244 1.5403l7.9426 4.0858c0.82117 0.42246 2.005 0.36829 2.6469-0.12134l6.2316-4.7534c0.60678-0.4628 0.43161-1.149-0.38568-1.5388" opacity=".997"/>
    <path d="m289.81 262.79l8.1713 3.6134c0.58673 0.25946 0.64664 0.76798 0.13309 1.1406l-7.2888 5.2881c-0.52673 0.3822-1.4282 0.47592-2.0199 0.20978l-8.2399-3.7063c-0.58432-0.26285-0.62567-0.77692-0.093964-1.1524l7.3574-5.1953c0.5184-0.36606 1.4013-0.45416 1.9808-0.19791" opacity=".997"/>
    <path d="m300.67 255.13l8.2963 3.579c0.59906 0.25845 0.69894 0.74347 0.22275 1.0874l-6.7161 4.8513c-0.48233 0.34842-1.3521 0.41528-1.949 0.15002l-8.2649-3.673c-0.58273-0.259-0.66452-0.74243-0.18451-1.0841l6.6847-4.7572c0.474-0.33734 1.3256-0.40576 1.9107-0.1534" opacity=".997"/>
    <path d="m323.98 263.53l-7.875-3.57c-0.76498-0.3468-1.8377-0.3028-2.4099 0.097656l-5.7777 4.0436c-0.58505 0.40945-0.45306 1.0336 0.30075 1.4005l7.7629 3.7786c0.80185 0.39029 1.9319 0.35867 2.5286-0.072113l5.8897-4.2523c0.5831-0.42102 0.39374-1.0575-0.41928-1.426" opacity=".997"/>
    <path d="m335.65 273.71l6.0496-4.6761c0.59912-0.46307 0.36176-1.136-0.52878-1.5087l-8.7587-3.6652c-0.86386-0.36151-2.0396-0.29059-2.6393 0.15884l-6.0545 4.5377c-0.61298 0.45941-0.41342 1.1311 0.45078 1.5062l8.7636 3.8036c0.89127 0.38684 2.1047 0.31711 2.7174-0.15637" opacity=".997"/>
    <path d="m344.07 270.64l6.4168-4.9903c0.63416-0.49313 1.7088-0.61517 2.4118-0.27423l7.0705 3.43c0.71335 0.34604 0.78348 1.0293 0.15512 1.5326l-6.3589 5.0935c-0.64532 0.51694-1.7458 0.64664-2.465 0.29016l-7.1285-3.5333c-0.70856-0.3512-0.75293-1.0422-0.10184-1.5485" opacity=".997"/>
    <path d="m333.1 256.71l-7.6908-3.4957c-0.77646-0.35288-1.8239-0.32906-2.3487 0.054855l-5.3183 3.8903c-0.54047 0.39539-0.3349 1.001 0.46115 1.3564l7.8844 3.5198c0.78311 0.34958 1.8329 0.30969 2.3537-0.088104l5.1248-3.9144c0.5058-0.38635 0.29776-0.97586-0.46622-1.3231" opacity=".997"/>
    <path d="m312.51 246.52l9.096 3.8698c0.38757 0.16487 0.42246 0.49944 0.07724 0.75063l-8.4041 6.1161c-0.36804 0.26779-0.98672 0.34518-1.3863 0.17291l-9.3756-4.0418c-0.3956-0.17055-0.4072-0.51778-0.027069-0.778l8.6838-5.9441c0.35672-0.24416 0.95221-0.30885 1.3361-0.14555" opacity=".997"/>
    <path d="m345.94 266.08l5.2487-4.0286c0.52338-0.40176 0.23492-1.0262-0.64712-1.4006l-8.8472-3.7555c-0.88995-0.37778-2.0341-0.35873-2.565 0.043304l-5.3243 4.0315c-0.53552 0.40543-0.24374 1.0362 0.65387 1.4137l8.9228 3.7527c0.88956 0.37415 2.0304 0.34876 2.5583-0.056427" opacity=".997"/>
    <path d="m365.98 265.67l20.292-16.394c0.94812-0.76596 1.3538-1.5196 0.91391-1.692l-8.7789-3.4386c-0.41449-0.16234-1.4977 0.29594-2.4328 1.0294l-19.986 15.678c-1.0106 0.79279-1.5062 1.5904-1.1067 1.7863l8.4731 4.1544c0.42523 0.20847 1.5984-0.29385 2.6259-1.1239" opacity=".997"/>
    <path d="m354.78 259.1l4.7624-3.7078c0.47238-0.3678 0.13522-0.96272-0.75146-1.3329l-8.6263-3.6019c-0.84174-0.35144-1.8922-0.35028-2.3594 0.001678l-4.71 3.5474c-0.47607 0.35855-0.18951 0.9419 0.64688 1.3089l8.5737 3.7623c0.8815 0.38681 1.9826 0.39731 2.4641 0.02243" opacity=".997"/>
    <path d="m340.56 250.76l-7.6818-3.0448c-0.71957-0.28523-1.6234-0.27287-2.0352 0.025589l-4.1925 3.0383c-0.42801 0.31015-0.21426 0.81342 0.48807 1.1308l7.5108 3.3937c0.80579 0.36409 1.8226 0.38078 2.2687 0.034409l4.3633-3.3875c0.42795-0.3322 0.10138-0.86433-0.72144-1.1904" opacity=".997"/>
    <path d="m324.11 248.63l-9.2756-3.9589c-0.40454-0.17267 0.045746-0.85358 1.0034-1.5229l20.044-14.01c0.82346-0.57559 1.7932-0.91661 2.1792-0.76768l8.8396 3.4109c0.39722 0.15328 0.073334 0.75496-0.73129 1.3523l-19.608 14.557c-0.93799 0.69636-2.0341 1.1168-2.4514 0.9387" opacity=".997"/>
    <path d="m373.47 241.88l-20.301-7.8794c-1.3911-0.53992-3.1556-0.51964-3.9345 0.055847l-13.577 10.031c-0.81549 0.60254-0.982 1.1205 0.5993 1.5607l7.7188 3.1545c1.2487 0.51032 1.2462 0.53673 2.3305-0.2534l1.445-1.053c0.31595-0.23024 1.2629-0.31952 2.2781 0.1179l10.458 4.5058c1.1533 0.321 2.1552 0.41872 2.8062-0.092773l10.88-8.5482c0.62656-0.49226 0.31873-1.2027-0.70355-1.5994"/>
   </g>
  </g>
 </g>
 <g fill-rule="evenodd">
  <g fill="#fff">
   <path d="m237.56 383.28c2.6589 1.6423 2.307 2.8153-0.70386 5.5134-3.0354 2.7201 0.89937-1.2121 1.7205-2.4634 0.85733-1.3064-3.6298-4.664-1.0167-3.05z"/>
   <path d="m262.43 363.69c2.6589 1.6423 3.2064 2.4634 0.19553 5.1615-3.0354 2.72 0.58652-1.1731 1.5641-2.5025 0.95087-1.2932-4.3727-4.2729-1.7596-2.659z"/>
   <path d="m250.54 373.66c2.6589 1.6423 3.3628 2.2288 0.3519 4.9268-3.0354 2.7201 0.74297-1.4859 1.3295-2.2679 0.69003-0.92001-4.2946-4.2729-1.6814-2.6589z"/>
   <path d="m273.84 354.27c2.6589 1.6423 3.3628 2.2288 0.35193 4.9268-3.0354 2.7201 1.4859-1.0557 1.2121-2.5417-0.27252-1.4794-4.1772-3.9992-1.5641-2.3852z"/>
   <path d="m246.92 355.36c2.6132 1.614 3.0891 2.1702-0.019531 4.7705-3.1222 2.6116 1.2892-1.8264 1.6032-2.4244 0.30594-0.58264-4.1968-3.9601-1.5837-2.3461z"/>
   <path d="m229.19 350.39c3.1672 1.7596 3.6029 2.3392 0.35191 4.9269-3.27 2.6027 1.3294-1.3686 1.3294-2.5807 0-1.2513-4.8322-4.0966-1.6814-2.3462z"/>
   <path d="m207.37 345.66c2.8153 1.4859 3.6756 2.3852 0.35191 4.9269-3.3182 2.5374 1.6814-1.3686 1.4077-2.5417-0.29106-1.2473-4.5476-3.8567-1.7596-2.3852z"/>
   <path d="m188.76 340.85c2.659 1.5641 3.5192 2.5025 0.35191 4.9268-3.1811 2.4349 1.4468-1.0558 1.1731-2.6198-0.27264-1.5579-4.2187-3.8916-1.525-2.307z"/>
   <path d="m195.05 354.38c2.659 1.6423 3.5093 2.3594 0.35191 4.9269-3.1527 2.5636-5.1786 3.93-0.89934 0.15643 4.3012-3.7929-2.0658-6.6973 0.54742-5.0833z"/>
   <path d="m216.64 359.35c4.4186 2.3462 3.7538 2.0724-3.2064 7.6249-6.9412 5.5374 3.2281-3.3809 4.2621-4.5358 0.99716-1.1137-5.4438-5.419-1.0557-3.0891z"/>
   <path d="m234.35 364c2.6589 1.6422 2.7762 3.5974-4.6923 9.6191-7.4922 6.0409 6.9373-5.3734 5.0442-7.8204-1.8407-2.3792-2.9651-3.4127-0.35191-1.7987z"/>
   <path d="m175.58 349.65c3.2064 1.8769 3.2846 2.698 0 5.1614-3.2474 2.4356 1.7596-1.5641 1.4859-2.7371-0.26508-1.136-4.6632-4.2842-1.4859-2.4243z"/>
   <path d="m200.72 332.37c2.6589 1.6423 3.5192 2.4634 0.35193 4.9268-3.2056 2.4932 0.93845-1.6423 1.4468-2.2679 0.47108-0.5798-4.4119-4.273-1.7987-2.6589z"/>
   <path d="m219.73 336.75c2.6589 1.6423 3.3628 2.2288 0.35194 4.9269-3.0354 2.72 1.2513-1.0166 0.97757-2.5808-0.27266-1.5579-3.9427-3.9601-1.3295-2.3461z"/>
   <path d="m240.52 341.32c2.659 1.6422 3.3628 2.2288 0.35193 4.9268-3.0354 2.7201 1.2513-1.0166 0.97755-2.5807-0.27264-1.5579-3.9426-3.9601-1.3295-2.3461z"/>
   <path d="m258.66 345.84c3.4331 1.6976 3.9158 2.1736 0.35193 4.9268-3.511 2.7125 1.6431-1.6317 1.5306-2.6914-0.10675-1.0048-5.3606-3.9554-1.8825-2.2355z"/>
   <path d="m212.22 323.92c2.6589 1.6423 3.504 2.4107 0.35191 4.9269-3.1136 2.4854 1.2513-1.0949 1.2122-2.5026-0.039078-1.4077-4.1773-4.0384-1.5641-2.4243z"/>
   <path d="m231.3 327.83c2.7371 1.4859 3.5192 2.307 0.35191 4.9269-3.1152 2.5768 1.4859-0.93845 1.2122-2.5025-0.27264-1.5579-4.3107-3.9153-1.5641-2.4244z"/>
   <path d="m251.89 332.51c2.659 1.6423 3.3628 2.2288 0.35194 4.9268-3.0354 2.7201 1.2513-1.0167 0.97754-2.5807-0.27264-1.5579-3.9427-3.9602-1.3295-2.3462z"/>
   <path d="m271.03 336.12c3.7096 2.0294 3.3628 2.2288 0.35193 4.9269-3.0354 2.72 1.5397-1.7432 1.4199-2.7466-0.10672-0.89435-5.439-4.1864-1.7718-2.1802z"/>
   <path d="m337.31 300.73c5.5898 3.1353 5.022 1.7514-7.9429 12.503-12.856 10.661 4.222-5.1844 7.6269-8.2927 3.3771-3.0831-5.358-7.3927 0.31604-4.21z"/>
   <path d="m281.27 327.21c2.6589 1.6423 3.3628 2.2288 0.35196 4.9269-3.0355 2.72 1.2512-1.0167 0.97754-2.5807-0.27268-1.5579-3.9427-3.9602-1.3295-2.3462z"/>
   <path d="m293.16 319.07c2.6589 1.6423 3.3628 2.2288 0.35193 4.9269-3.0354 2.72 1.2512-1.0167 0.97757-2.5807-0.27268-1.5579-3.9427-3.9601-1.3295-2.3462z"/>
   <path d="m304.11 310.31c2.6589 1.6423 3.3628 2.2288 0.35193 4.9268-3.0354 2.7201 1.2512-1.0167 0.97751-2.5808-0.27261-1.5579-3.9426-3.9601-1.3294-2.3461z"/>
   <path d="m314.43 301.56c2.6589 1.6423 3.3627 2.2288 0.3519 4.9268-3.0354 2.7201 1.2512-1.0166 0.97757-2.5807-0.27264-1.5579-3.9427-3.9601-1.3295-2.3461z"/>
   <path d="m261.1 323.61c2.6589 1.6423 3.3628 2.2288 0.35193 4.9269-3.0354 2.72 1.2512-1.0167 0.97754-2.5808-0.27261-1.5579-3.9426-3.9601-1.3295-2.3461z"/>
   <path d="m243.31 318.77c4.6141 2.4243 3.832 2.3852 0.35191 4.9268-3.4071 2.4883 0.53241-1.0167 1.4752-2.3596 0.90782-1.293-6.4094-4.9749-1.8272-2.5673z"/>
   <path d="m224.89 315.16c3.441 2.0333 3.9102 2.1506 0.35191 4.9269-3.5099 2.7385 1.5641-0.93845 1.2904-2.5025-0.27268-1.5579-5.0255-4.4235-1.6423-2.4244z"/>
   <path d="m235.92 306.56c2.659 1.6423 3.3628 2.2288 0.35193 4.9269-3.0354 2.72 1.2513-1.0167 0.97755-2.5808-0.27264-1.5579-3.9426-3.9601-1.3295-2.3461z"/>
   <path d="m248.51 298.51c2.6589 1.6423 3.3628 2.2288 0.3519 4.9269-3.0354 2.72 1.2513-1.0166 0.97755-2.5807-0.27264-1.5579-3.9426-3.9602-1.3294-2.3462z"/>
   <path d="m254.84 310.08c2.659 1.6423 3.3628 2.2288 0.35193 4.9269-3.0354 2.72 1.2513-1.0166 0.97755-2.5808-0.27266-1.5579-3.9427-3.9601-1.3295-2.3461z"/>
   <path d="m267.04 301.09c2.659 1.6422 3.3628 2.2288 0.35196 4.9268-3.0354 2.72 1.2513-1.0167 0.97754-2.5808-0.27261-1.5579-3.9426-3.9602-1.3295-2.3461z"/>
   <path d="m274.55 315.24c2.6589 1.6423 3.3628 2.2288 0.35193 4.9268-3.0354 2.72 1.2512-1.0166 0.97754-2.5807-0.27264-1.5579-3.9427-3.9601-1.3295-2.3461z"/>
   <path d="m284.71 307.34c2.6589 1.6423 3.3628 2.2288 0.35193 4.9269-3.0354 2.72 1.2512-1.0167 0.97757-2.5807-0.27264-1.5579-3.9427-3.9602-1.3295-2.3462z"/>
   <path d="m278.46 292.8c2.659 1.6424 3.3628 2.2288 0.35193 4.9269-3.0354 2.72 1.2513-1.0166 0.97757-2.5807-0.27268-1.5579-3.9427-3.9602-1.3295-2.3462z"/>
   <path d="m295.26 299.37c2.9122 1.4593 3.4734 2.2288 0.46249 4.9268-3.0354 2.7201 1.583-1.8461 1.4752-2.6913-0.10715-0.84-4.938-3.7389-1.9377-2.2355z"/>
   <path d="m259.61 290.06c2.6589 1.6423 3.3628 2.2288 0.35193 4.9269-3.0354 2.72 1.2512-1.0167 0.97754-2.5808-0.27264-1.5579-3.9427-3.9601-1.3295-2.3461z"/>
   <path d="m270.68 281.57c2.9354 1.4211 3.6946 2.3948 0.35193 4.9269-3.3347 2.5261 1.7489-2.012 1.6411-2.8019-0.12265-0.89862-4.9072-3.5357-1.993-2.1249z"/>
   <path d="m299.71 277.22c2.8801 1.5317 3.971 1.9523 0.3519 4.9269-3.5921 2.9524 1.749-1.1273 1.4752-2.6914-0.27264-1.5579-4.6847-3.7552-1.8272-2.2355z"/>
   <path d="m288.78 285c2.8248 1.4487 3.584 2.45 0.35193 4.9269-3.2282 2.4738 1.6936-1.6803 1.5306-2.6914-0.18204-1.1282-4.6962-3.6786-1.8825-2.2355z"/>
   <path d="m345.87 276.43c2.7972 1.4764 3.2611 2.4565 0.35193 4.9268-2.9253 2.484 1.03-1.3823 1.4476-2.1937 0.40668-0.79004-4.5751-4.1982-1.7995-2.7332z"/>
   <path d="m282.43 273.46c2.7696 1.3658 3.5287 2.1182 0.35196 4.5951-3.2038 2.4979 1.749-1.6802 1.5305-2.5254-0.21539-0.83344-4.6076-3.4135-1.8825-2.0696z"/>
   <path d="m294.63 265.24c4.127 2.2418 2.7545 1.897-0.36697 4.4292-3.0882 2.5052 1.9109-1.8 1.6411-2.6914-0.26971-0.89139-5.4012-3.9796-1.2742-1.7378z"/>
   <path d="m310.28 269.64c3.0184 1.587 3.6669 2.3947 0.3519 4.9268-3.311 2.5291 1.6107-1.7632 1.5029-2.5807-0.11188-0.84866-4.8515-3.9218-1.8548-2.3461z"/>
   <path d="m327.18 274.65c2.6589 1.6423 3.3628 2.2288 0.35193 4.9268-3.0354 2.7201 1.2513-1.0166 0.97757-2.5807-0.27264-1.5579-3.9427-3.9601-1.3295-2.3461z"/>
   <path d="m316.62 282.47c2.6589 1.6423 3.3628 2.2288 0.35196 4.9268-3.0354 2.7201 1.2512-1.0166 0.97751-2.5808-0.27261-1.5579-3.9426-3.9601-1.3295-2.3461z"/>
   <path d="m306.26 290.59c3.3778 1.7529 3.5287 2.2841 0.35193 4.9269-3.1718 2.6386 1.5831-1.7909 1.4752-2.802-0.11542-1.0824-5.0944-3.8225-1.8272-2.1249z"/>
   <path d="m324.29 292.8c2.6589 1.6424 3.3628 2.2288 0.3519 4.9269-3.0355 2.72 1.2512-1.0166 0.97754-2.5807-0.27264-1.5579-3.9426-3.9602-1.3294-2.3462z"/>
   <path d="m335.35 284.95c3.0736 1.4764 3.5563 2.1459 0.37961 4.761-3.1577 2.5994 1.7509-1.7144 1.6411-2.6913-0.10675-0.94962-5.0274-3.5138-2.0207-2.0696z"/>
   <path d="m349.02 291.23c3.2845 1.7596 3.6364 2.2093 0.35187 4.9268-3.2654 2.7018 0.24832-0.69849 1.2317-1.9551 0.95911-1.2255-4.8441-4.7184-1.5836-2.9718z"/>
   <path d="m359.81 282.85c3.0736 1.3934 3.584 2.1735 0.35193 4.9268-3.205 2.7302-0.019501-0.59198 1.2816-2.1107 1.2737-1.4865-4.674-4.1945-1.6336-2.8162z"/>
   <path d="m370.32 274.35c3.0184 1.587 3.3628 2.2288 0.3519 4.9268-3.0354 2.72 0.091919-0.82773 0.867-2.2766 0.83331-1.5579-4.2042-4.2199-1.2189-2.6502z"/>
   <path d="m356.56 267.5c2.874 1.4076 3.4996 2.307 0.35193 4.9268-3.1459 2.6183 1.4669-1.7447 1.3881-2.7372-0.077087-0.97138-4.614-3.5974-1.74-2.1897z"/>
   <path d="m337.47 266.47c3.4885 1.974 3.5287 2.45 0.3519 4.9268-3.2037 2.4979-1.2592 0.16705 0.9223-1.5301 2.2158-1.7238-4.6316-5.2968-1.2742-3.3968z"/>
   <path d="m319.98 262.45c2.6589 1.6423 3.3628 2.2288 0.35196 4.9269-3.0354 2.72 1.2512-1.0167 0.97751-2.5807-0.27261-1.5579-3.9426-3.9601-1.3295-2.3462z"/>
   <path d="m305.22 257.44c3.9597 1.7877 3.9157 1.8971 0.2413 4.4845-3.7006 2.6059 1.8517-1.3788 1.5306-2.5254-0.32794-1.1708-5.6857-3.7259-1.7718-1.959z"/>
   <path d="m317.09 248.61c2.6589 1.6423 3.3627 2.2288 0.35193 4.9269-3.0355 2.72 1.2512-1.0167 0.97754-2.5807-0.27264-1.5579-3.9427-3.9602-1.3295-2.3462z"/>
   <path d="m329.53 255.49c2.659 1.6423 3.3628 2.2288 0.35196 4.9268-3.0355 2.7201 1.2512-1.0166 0.97754-2.5807-0.27264-1.5579-3.9427-3.9601-1.3295-2.3461z"/>
   <path d="m346.62 259.5c3.3225 1.5317 3.8052 2.2288 0.35196 4.9268-3.385 2.6447-0.29715 0.089325 1.3093-2.1383 1.4798-2.0521-4.8928-4.2783-1.6612-2.7885z"/>
   <path d="m336.72 249.47c2.659 1.6423 3.3628 2.2288 0.35193 4.9268-3.0354 2.72 1.2513-1.0167 0.97754-2.5807-0.27264-1.5579-3.9427-3.9601-1.3295-2.3461z"/>
   <path d="m355.41 252.99c2.6589 1.6423 3.3628 2.2288 0.3519 4.9269-3.0354 2.7201 1.2513-1.0166 0.97754-2.5808-0.27264-1.5579-3.9427-3.9601-1.3294-2.3461z"/>
   <path d="m382.94 246.34c3.7538 1.4077 3.9098 1.6069-4.0275 8.0159-7.8989 6.378 1.9522-2.1111 4.614-4.614 2.6828-2.5225-4.3276-4.8048-0.58652-3.4019z"/>
   <path d="m369.41 241.1c2.6589 1.6423 3.3628 2.2288 0.3519 4.9268-3.0354 2.72 1.2512-1.0166 0.97757-2.5807-0.27268-1.5579-3.9426-3.9601-1.3295-2.3461z"/>
   <path d="m341.83 230.51c4.7603 1.9188 4.5793 1.7311-2.9107 7.4706-7.4822 5.7334 3.2973-3.118 4.8484-4.6268 1.553-1.5105-6.7373-4.7784-1.9377-2.8438z"/>
  </g>
  <path d="m300.2 23.227l-251.93 82.74 9.0326 60.726c83.253-42.82 176.63-15.326 241.81-43.325l1.0948-100.14z" fill="url(#i)"/>
  <path d="m32.078 89.138c5.1174-1.8842 6.7367-1.1816 8.6458 1.0852l36.871 246.08-10.334-5.1891-35.183-241.98z" fill="#1a1a1a" stroke="#333" stroke-linecap="round" stroke-linejoin="round" stroke-width=".818"/>
  <path d="m111.53 313.76l168.92-103.54c2.1305 1.3076 3.9942 2.7754 4.0666 5.3179l-168.3 103.7c-0.29749-2.4053-1.8923-4.216-4.6922-5.4743z" fill="#808080"/>
  <g fill="#fff">
   <path d="m198.73 290.4l78.192-51.538 0.6636 1.1059-76.865 52.202-1.9908-1.7695z" filter="url(#a)" opacity=".67"/>
   <path d="m133.81 331.99l19.465-12.608 0.6636 1.106-18.138 13.272-1.9908-1.7695z" filter="url(#a)" opacity=".67"/>
   <path d="m133.81 331.99l19.465-12.608 0.6636 1.106-18.138 13.272-1.9908-1.7695z" filter="url(#a)" opacity=".67"/>
   <path d="m198.73 290.4l78.192-51.538 0.6636 1.1059-76.865 52.202-1.9908-1.7695z" filter="url(#a)" opacity=".67"/>
  </g>
  <path d="m125.27 330.92c3.1041-2.8765 11.104 2.5128 10.32 6.1006l-10.32-6.1006z" fill="#666" opacity=".997" stroke="#000" stroke-linecap="round" stroke-linejoin="round" stroke-width=".205"/>
 </g>
 <path d="m369.96 300.11c-2.3285 0.11478-4.4276 0.73987-5.7871 1.8769l-47.431 39.689c-3.2242 2.6965-2.0889 6.7077 2.6198 8.9934 0 0 6.153 2.9458 12.2 5.8262 41.579-7.5025 13.844-50.476 50.481-52.944-1.6297-0.72653-4.966-2.1897-4.966-2.1897-2.2239-0.9584-4.7881-1.3661-7.1166-1.2512z" fill="url(#h)" stroke-linecap="round" stroke-linejoin="round" stroke-width=".953"/>
</svg>
